<svg width="32" height="32" viewBox="0 0 32 32" fill="none" xmlns="http://www.w3.org/2000/svg">
<path fill-rule="evenodd" clip-rule="evenodd" d="M19.9871 3.99902C18.7954 3.36017 17.436 3 16 3C11.6951 3 8.07863 6.23689 7.60323 10.5155L7.26749 13.5371C7.19765 14.1656 7.16774 14.4288 7.1196 14.6831C6.99923 15.319 6.79126 15.9352 6.50163 16.5139C6.38577 16.7454 6.25008 16.9729 5.9247 17.5152L4.95989 19.1232L4.92239 19.1857C4.55178 19.8032 4.21733 20.3605 4.0231 20.8288C3.81959 21.3195 3.65084 21.9898 4.02578 22.6521C4.40072 23.3143 5.06235 23.5145 5.58784 23.5924C6.08936 23.6668 6.73928 23.6668 7.45947 23.6667H7.45949L7.53237 23.6667H24.4676L24.5405 23.6667H24.5405C25.2607 23.6668 25.9106 23.6668 26.4121 23.5924C26.9376 23.5145 27.5993 23.3143 27.9742 22.6521C28.3491 21.9898 28.1804 21.3195 27.9769 20.8288C27.7827 20.3605 27.4482 19.8032 27.0776 19.1857L27.0776 19.1857L27.0401 19.1232L26.0753 17.5152C25.7499 16.9729 25.6142 16.7454 25.4984 16.5139C25.2087 15.9352 25.0008 15.319 24.8804 14.6831C24.8344 14.4401 24.805 14.189 24.7415 13.6186C24.4989 13.6503 24.2513 13.6667 24 13.6667C23.5592 13.6667 23.1302 13.6163 22.7184 13.5211L22.7447 13.7579L22.7494 13.8004C22.8132 14.3743 22.8512 14.7167 22.9153 15.0551C23.07 15.8727 23.3374 16.6649 23.7098 17.409C23.8639 17.7169 24.0412 18.0123 24.3382 18.5073L24.3383 18.5075L24.3603 18.5442L25.3251 20.1522C25.7454 20.8527 25.9991 21.2808 26.1295 21.595L26.1362 21.6114L26.1186 21.6141C25.7822 21.664 25.2845 21.6667 24.4676 21.6667H7.53237C6.71547 21.6667 6.21783 21.664 5.88135 21.6141L5.86378 21.6114L5.87053 21.595C6.00084 21.2808 6.25459 20.8527 6.67488 20.1522L7.63969 18.5442L7.66166 18.5075C7.95875 18.0124 8.13604 17.7169 8.29017 17.409C8.66255 16.6649 8.92994 15.8727 9.0847 15.0551C9.14875 14.7167 9.18679 14.3743 9.25054 13.8004L9.25055 13.8004L9.25526 13.7579L9.591 10.7363C9.95385 7.47062 12.7142 5 16 5C17.0147 5 17.9793 5.23562 18.8386 5.6575C19.1208 5.03669 19.5118 4.47575 19.9871 3.99902ZM22.3653 5.89296C21.7791 6.34839 21.388 7.04305 21.3386 7.83039C21.7867 8.49066 22.1164 9.24042 22.2956 10.051C22.7577 10.4354 23.3518 10.6667 24 10.6667C24.1394 10.6667 24.2764 10.656 24.4101 10.6353L24.3967 10.5155C24.1999 8.74418 23.4648 7.15142 22.3653 5.89296ZM26.1966 21.8043C26.1964 21.8041 26.1961 21.8016 26.1959 21.797C26.1967 21.8021 26.1967 21.8044 26.1966 21.8043ZM26.326 21.5671C26.3301 21.5649 26.3325 21.5639 26.3326 21.564C26.3328 21.564 26.3308 21.5652 26.326 21.5671ZM5.66734 21.564C5.66752 21.5639 5.66989 21.5649 5.67395 21.5672C5.66919 21.5652 5.66716 21.564 5.66734 21.564ZM5.8034 21.8043C5.80356 21.8041 5.80393 21.8016 5.80406 21.797C5.8036 21.8001 5.8034 21.8021 5.80334 21.8033C5.80331 21.804 5.80334 21.8043 5.8034 21.8043Z" fill="#2B7FAF"/>
<path d="M12.1363 23.5529C12.3642 24.8287 12.8664 25.9561 13.565 26.7601C14.2635 27.5642 15.1195 28 16 28C16.8805 28 17.7365 27.5642 18.435 26.7601C19.1336 25.9561 19.6358 24.8287 19.8637 23.5529" stroke="#2B7FAF" stroke-width="2" stroke-linecap="round"/>
<path d="M24.0002 11.1666C25.7491 11.1666 27.1668 9.74888 27.1668 7.99998C27.1668 6.25108 25.7491 4.83331 24.0002 4.83331C22.2513 4.83331 20.8335 6.25108 20.8335 7.99998C20.8335 9.74888 22.2513 11.1666 24.0002 11.1666Z" fill="#2B7FAF" stroke="#2B7FAF"/>
</svg>
