<svg width="68" height="68" viewBox="0 0 68 68" fill="none" xmlns="http://www.w3.org/2000/svg">
<path d="M41.9999 9.54666C41.9199 9.53333 41.8266 9.53333 41.7466 9.54666C39.9066 9.47999 38.4399 7.97333 38.4399 6.10666C38.4399 4.19999 39.9733 2.66666 41.8799 2.66666C43.7866 2.66666 45.3199 4.21333 45.3199 6.10666C45.3066 7.97333 43.8399 9.47999 41.9999 9.54666Z" stroke="#00659F" stroke-width="1.5" stroke-linecap="round" stroke-linejoin="round"/>
<path d="M40.6264 19.2533C42.4531 19.56 44.4664 19.24 45.8798 18.2933C47.7598 17.04 47.7598 14.9867 45.8798 13.7333C44.4531 12.7867 42.4131 12.4667 40.5864 12.7867" stroke="#00659F" stroke-width="1.5" stroke-linecap="round" stroke-linejoin="round"/>
<path d="M25.9601 9.54666C26.0401 9.53333 26.1335 9.53333 26.2135 9.54666C28.0535 9.47999 29.5201 7.97333 29.5201 6.10666C29.5201 4.19999 27.9868 2.66666 26.0801 2.66666C24.1735 2.66666 22.6401 4.21333 22.6401 6.10666C22.6535 7.97333 24.1201 9.47999 25.9601 9.54666Z" stroke="#00659F" stroke-width="1.5" stroke-linecap="round" stroke-linejoin="round"/>
<path d="M27.3333 19.2533C25.5066 19.56 23.4933 19.24 22.0799 18.2933C20.1999 17.04 20.1999 14.9867 22.0799 13.7333C23.5066 12.7867 25.5466 12.4667 27.3733 12.7867" stroke="#00659F" stroke-width="1.5" stroke-linecap="round" stroke-linejoin="round"/>
<path d="M33.9999 19.5067C33.9199 19.4934 33.8266 19.4934 33.7466 19.5067C31.9066 19.44 30.4399 17.9333 30.4399 16.0667C30.4399 14.16 31.9733 12.6267 33.8799 12.6267C35.7866 12.6267 37.3199 14.1733 37.3199 16.0667C37.3066 17.9333 35.8399 19.4534 33.9999 19.5067Z" stroke="#00659F" stroke-width="1.5" stroke-linecap="round" stroke-linejoin="round"/>
<path d="M30.12 23.7067C28.24 24.96 28.24 27.0133 30.12 28.2667C32.2533 29.6933 35.7466 29.6933 37.88 28.2667C39.76 27.0133 39.76 24.96 37.88 23.7067C35.76 22.2933 32.2533 22.2933 30.12 23.7067Z" stroke="#00659F" stroke-width="1.5" stroke-linecap="round" stroke-linejoin="round"/>
<path d="M1.828 64V52.8H6.916C8.132 52.8 9.204 53.0347 10.132 53.504C11.06 53.9627 11.7853 54.608 12.308 55.44C12.8307 56.272 13.092 57.2587 13.092 58.4C13.092 59.5307 12.8307 60.5173 12.308 61.36C11.7853 62.192 11.06 62.8427 10.132 63.312C9.204 63.7707 8.132 64 6.916 64H1.828ZM4.42 61.872H6.788C7.53467 61.872 8.18 61.7333 8.724 61.456C9.27867 61.168 9.70533 60.7627 10.004 60.24C10.3133 59.7173 10.468 59.104 10.468 58.4C10.468 57.6853 10.3133 57.072 10.004 56.56C9.70533 56.0373 9.27867 55.6373 8.724 55.36C8.18 55.072 7.53467 54.928 6.788 54.928H4.42V61.872ZM19.1428 64.128C18.1614 64.128 17.2974 63.936 16.5508 63.552C15.8148 63.168 15.2441 62.6453 14.8388 61.984C14.4334 61.312 14.2308 60.5493 14.2308 59.696C14.2308 58.832 14.4281 58.0693 14.8228 57.408C15.2281 56.736 15.7774 56.2133 16.4708 55.84C17.1641 55.456 17.9481 55.264 18.8228 55.264C19.6654 55.264 20.4228 55.4453 21.0948 55.808C21.7774 56.16 22.3161 56.672 22.7108 57.344C23.1054 58.0053 23.3028 58.8 23.3028 59.728C23.3028 59.824 23.2974 59.936 23.2868 60.064C23.2761 60.1813 23.2654 60.2933 23.2548 60.4H16.2628V58.944H21.9427L20.9828 59.376C20.9828 58.928 20.8921 58.5387 20.7108 58.208C20.5294 57.8773 20.2788 57.6213 19.9588 57.44C19.6388 57.248 19.2654 57.152 18.8388 57.152C18.4121 57.152 18.0334 57.248 17.7028 57.44C17.3828 57.6213 17.1321 57.8827 16.9508 58.224C16.7694 58.5547 16.6788 58.9493 16.6788 59.408V59.792C16.6788 60.2613 16.7801 60.6773 16.9828 61.04C17.1961 61.392 17.4894 61.664 17.8628 61.856C18.2468 62.0373 18.6948 62.128 19.2068 62.128C19.6654 62.128 20.0654 62.0587 20.4068 61.92C20.7588 61.7813 21.0788 61.5733 21.3668 61.296L22.6948 62.736C22.3001 63.184 21.8041 63.5307 21.2068 63.776C20.6094 64.0107 19.9214 64.128 19.1428 64.128ZM30.0525 64.128C29.2952 64.128 28.6445 63.968 28.1005 63.648C27.5565 63.328 27.1405 62.8427 26.8525 62.192C26.5645 61.5307 26.4205 60.6987 26.4205 59.696C26.4205 58.6827 26.5698 57.8507 26.8685 57.2C27.1778 56.5493 27.6045 56.064 28.1485 55.744C28.6925 55.424 29.3272 55.264 30.0525 55.264C30.8632 55.264 31.5885 55.4453 32.2285 55.808C32.8792 56.1707 33.3912 56.6827 33.7645 57.344C34.1485 58.0053 34.3405 58.7893 34.3405 59.696C34.3405 60.592 34.1485 61.3707 33.7645 62.032C33.3912 62.6933 32.8792 63.2107 32.2285 63.584C31.5885 63.9467 30.8632 64.128 30.0525 64.128ZM24.9645 64V52.128H27.4605V57.136L27.3005 59.68L27.3485 62.24V64H24.9645ZM29.6205 62.08C30.0365 62.08 30.4045 61.984 30.7245 61.792C31.0552 61.6 31.3165 61.328 31.5085 60.976C31.7112 60.6133 31.8125 60.1867 31.8125 59.696C31.8125 59.1947 31.7112 58.768 31.5085 58.416C31.3165 58.064 31.0552 57.792 30.7245 57.6C30.4045 57.408 30.0365 57.312 29.6205 57.312C29.2045 57.312 28.8312 57.408 28.5005 57.6C28.1698 57.792 27.9085 58.064 27.7165 58.416C27.5245 58.768 27.4285 59.1947 27.4285 59.696C27.4285 60.1867 27.5245 60.6133 27.7165 60.976C27.9085 61.328 28.1698 61.6 28.5005 61.792C28.8312 61.984 29.2045 62.08 29.6205 62.08ZM39.5314 64.128C38.518 64.128 37.7287 63.872 37.1634 63.36C36.598 62.8373 36.3154 62.064 36.3154 61.04V53.488H38.8114V61.008C38.8114 61.3707 38.9074 61.6533 39.0994 61.856C39.2914 62.048 39.5527 62.144 39.8834 62.144C40.278 62.144 40.614 62.0373 40.8914 61.824L41.5634 63.584C41.3074 63.7653 40.998 63.904 40.6354 64C40.2834 64.0853 39.9154 64.128 39.5314 64.128ZM34.9874 57.504V55.584H40.9554V57.504H34.9874ZM46.7949 64.128C45.8775 64.128 45.0615 63.936 44.3469 63.552C43.6429 63.168 43.0829 62.6453 42.6669 61.984C42.2615 61.312 42.0589 60.5493 42.0589 59.696C42.0589 58.832 42.2615 58.0693 42.6669 57.408C43.0829 56.736 43.6429 56.2133 44.3469 55.84C45.0615 55.456 45.8775 55.264 46.7949 55.264C47.7015 55.264 48.5122 55.456 49.2269 55.84C49.9415 56.2133 50.5015 56.7307 50.9069 57.392C51.3122 58.0533 51.5149 58.8213 51.5149 59.696C51.5149 60.5493 51.3122 61.312 50.9069 61.984C50.5015 62.6453 49.9415 63.168 49.2269 63.552C48.5122 63.936 47.7015 64.128 46.7949 64.128ZM46.7949 62.08C47.2109 62.08 47.5842 61.984 47.9149 61.792C48.2455 61.6 48.5069 61.328 48.6989 60.976C48.8909 60.6133 48.9869 60.1867 48.9869 59.696C48.9869 59.1947 48.8909 58.768 48.6989 58.416C48.5069 58.064 48.2455 57.792 47.9149 57.6C47.5842 57.408 47.2109 57.312 46.7949 57.312C46.3789 57.312 46.0055 57.408 45.6749 57.6C45.3442 57.792 45.0775 58.064 44.8749 58.416C44.6829 58.768 44.5869 59.1947 44.5869 59.696C44.5869 60.1867 44.6829 60.6133 44.8749 60.976C45.0775 61.328 45.3442 61.6 45.6749 61.792C46.0055 61.984 46.3789 62.08 46.7949 62.08ZM53.1833 64V55.392H55.5673V57.824L55.2313 57.12C55.4873 56.512 55.8979 56.0533 56.4633 55.744C57.0286 55.424 57.7166 55.264 58.5273 55.264V57.568C58.4206 57.5573 58.3246 57.552 58.2393 57.552C58.1539 57.5413 58.0633 57.536 57.9673 57.536C57.2846 57.536 56.7299 57.7333 56.3033 58.128C55.8873 58.512 55.6793 59.1147 55.6793 59.936V64H53.1833ZM62.9699 64.128C62.2339 64.128 61.5245 64.0427 60.8419 63.872C60.1699 63.6907 59.6365 63.4667 59.2419 63.2L60.0739 61.408C60.4685 61.6533 60.9325 61.856 61.4659 62.016C62.0099 62.1653 62.5432 62.24 63.0659 62.24C63.6419 62.24 64.0472 62.1707 64.2819 62.032C64.5272 61.8933 64.6499 61.7013 64.6499 61.456C64.6499 61.2533 64.5539 61.104 64.3619 61.008C64.1805 60.9013 63.9352 60.8213 63.6259 60.768C63.3165 60.7147 62.9752 60.6613 62.6019 60.608C62.2392 60.5547 61.8712 60.4853 61.4979 60.4C61.1245 60.304 60.7832 60.1653 60.4739 59.984C60.1645 59.8027 59.9139 59.5573 59.7219 59.248C59.5405 58.9387 59.4499 58.5387 59.4499 58.048C59.4499 57.504 59.6045 57.024 59.9139 56.608C60.2339 56.192 60.6925 55.8667 61.2899 55.632C61.8872 55.3867 62.6019 55.264 63.4339 55.264C64.0205 55.264 64.6179 55.328 65.2259 55.456C65.8339 55.584 66.3405 55.7707 66.7459 56.016L65.9139 57.792C65.4979 57.5467 65.0765 57.3813 64.6499 57.296C64.2339 57.2 63.8285 57.152 63.4339 57.152C62.8792 57.152 62.4739 57.2267 62.2179 57.376C61.9619 57.5253 61.8339 57.7173 61.8339 57.952C61.8339 58.1653 61.9245 58.3253 62.1059 58.432C62.2979 58.5387 62.5485 58.624 62.8579 58.688C63.1672 58.752 63.5032 58.8107 63.8659 58.864C64.2392 58.9067 64.6125 58.976 64.9859 59.072C65.3592 59.168 65.6952 59.3067 65.9939 59.488C66.3032 59.6587 66.5539 59.8987 66.7459 60.208C66.9379 60.5067 67.0339 60.9013 67.0339 61.392C67.0339 61.9253 66.8739 62.4 66.5539 62.816C66.2339 63.2213 65.7699 63.5413 65.1619 63.776C64.5645 64.0107 63.8339 64.128 62.9699 64.128Z" fill="#00659F"/>
</svg>
