<svg width="92" height="68" viewBox="0 0 92 68" fill="none" xmlns="http://www.w3.org/2000/svg">
<g opacity="0.5">
<rect x="35.3335" y="5.33334" width="8" height="8" rx="1" stroke="#121212" stroke-width="2" stroke-linejoin="round"/>
<rect x="35.3335" y="18.6667" width="8" height="8" rx="1" stroke="#121212" stroke-width="2" stroke-linejoin="round"/>
<rect x="48.6665" y="18.6667" width="8" height="8" rx="1" stroke="#121212" stroke-width="2" stroke-linejoin="round"/>
<rect x="48.6665" y="5.33334" width="8" height="8" rx="1" stroke="#121212" stroke-width="2" stroke-linejoin="round"/>
<path d="M1.328 64V52.8H6.416C7.632 52.8 8.704 53.0347 9.632 53.504C10.56 53.9627 11.2853 54.608 11.808 55.44C12.3307 56.272 12.592 57.2587 12.592 58.4C12.592 59.5307 12.3307 60.5173 11.808 61.36C11.2853 62.192 10.56 62.8427 9.632 63.312C8.704 63.7707 7.632 64 6.416 64H1.328ZM3.92 61.872H6.288C7.03467 61.872 7.68 61.7333 8.224 61.456C8.77867 61.168 9.20533 60.7627 9.504 60.24C9.81333 59.7173 9.968 59.104 9.968 58.4C9.968 57.6853 9.81333 57.072 9.504 56.56C9.20533 56.0373 8.77867 55.6373 8.224 55.36C7.68 55.072 7.03467 54.928 6.288 54.928H3.92V61.872ZM19.6508 64V62.32L19.4908 61.952V58.944C19.4908 58.4107 19.3254 57.9947 18.9948 57.696C18.6748 57.3973 18.1788 57.248 17.5068 57.248C17.0481 57.248 16.5948 57.3227 16.1468 57.472C15.7094 57.6107 15.3361 57.8027 15.0268 58.048L14.1308 56.304C14.6001 55.9733 15.1654 55.7173 15.8268 55.536C16.4881 55.3547 17.1601 55.264 17.8428 55.264C19.1548 55.264 20.1734 55.5733 20.8988 56.192C21.6241 56.8107 21.9868 57.776 21.9868 59.088V64H19.6508ZM17.0268 64.128C16.3548 64.128 15.7788 64.016 15.2988 63.792C14.8188 63.5573 14.4508 63.2427 14.1948 62.848C13.9388 62.4533 13.8108 62.0107 13.8108 61.52C13.8108 61.008 13.9334 60.56 14.1788 60.176C14.4348 59.792 14.8348 59.4933 15.3788 59.28C15.9228 59.056 16.6321 58.944 17.5068 58.944H19.7948V60.4H17.7788C17.1921 60.4 16.7868 60.496 16.5628 60.688C16.3494 60.88 16.2428 61.12 16.2428 61.408C16.2428 61.728 16.3654 61.984 16.6108 62.176C16.8668 62.3573 17.2134 62.448 17.6508 62.448C18.0668 62.448 18.4401 62.352 18.7708 62.16C19.1014 61.9573 19.3414 61.664 19.4908 61.28L19.8748 62.432C19.6934 62.9867 19.3628 63.408 18.8828 63.696C18.4028 63.984 17.7841 64.128 17.0268 64.128ZM27.1418 64.128C26.4058 64.128 25.6964 64.0427 25.0138 63.872C24.3418 63.6907 23.8084 63.4667 23.4138 63.2L24.2458 61.408C24.6404 61.6533 25.1044 61.856 25.6378 62.016C26.1818 62.1653 26.7151 62.24 27.2378 62.24C27.8138 62.24 28.2191 62.1707 28.4538 62.032C28.6991 61.8933 28.8218 61.7013 28.8218 61.456C28.8218 61.2533 28.7258 61.104 28.5338 61.008C28.3524 60.9013 28.1071 60.8213 27.7977 60.768C27.4884 60.7147 27.1471 60.6613 26.7738 60.608C26.4111 60.5547 26.0431 60.4853 25.6698 60.4C25.2964 60.304 24.9551 60.1653 24.6458 59.984C24.3364 59.8027 24.0858 59.5573 23.8938 59.248C23.7124 58.9387 23.6217 58.5387 23.6217 58.048C23.6217 57.504 23.7764 57.024 24.0858 56.608C24.4058 56.192 24.8644 55.8667 25.4618 55.632C26.0591 55.3867 26.7738 55.264 27.6058 55.264C28.1924 55.264 28.7898 55.328 29.3978 55.456C30.0058 55.584 30.5124 55.7707 30.9178 56.016L30.0858 57.792C29.6698 57.5467 29.2484 57.3813 28.8218 57.296C28.4058 57.2 28.0004 57.152 27.6058 57.152C27.0511 57.152 26.6458 57.2267 26.3898 57.376C26.1338 57.5253 26.0058 57.7173 26.0058 57.952C26.0058 58.1653 26.0964 58.3253 26.2778 58.432C26.4698 58.5387 26.7204 58.624 27.0298 58.688C27.3391 58.752 27.6751 58.8107 28.0378 58.864C28.4111 58.9067 28.7844 58.976 29.1578 59.072C29.5311 59.168 29.8671 59.3067 30.1658 59.488C30.4751 59.6587 30.7258 59.8987 30.9178 60.208C31.1098 60.5067 31.2058 60.9013 31.2058 61.392C31.2058 61.9253 31.0458 62.4 30.7258 62.816C30.4058 63.2213 29.9418 63.5413 29.3338 63.776C28.7364 64.0107 28.0058 64.128 27.1418 64.128ZM37.9778 55.264C38.6604 55.264 39.2684 55.4027 39.8018 55.68C40.3458 55.9467 40.7724 56.3627 41.0818 56.928C41.3911 57.4827 41.5458 58.1973 41.5458 59.072V64H39.0498V59.456C39.0498 58.7627 38.8951 58.2507 38.5858 57.92C38.2871 57.5893 37.8604 57.424 37.3058 57.424C36.9111 57.424 36.5538 57.5093 36.2338 57.68C35.9244 57.84 35.6791 58.0907 35.4978 58.432C35.3271 58.7733 35.2418 59.2107 35.2418 59.744V64H32.7458V52.128H35.2418V57.776L34.6818 57.056C34.9911 56.48 35.4338 56.0373 36.0098 55.728C36.5858 55.4187 37.2418 55.264 37.9778 55.264ZM48.8963 64.128C48.1389 64.128 47.4883 63.968 46.9443 63.648C46.4003 63.328 45.9843 62.8427 45.6963 62.192C45.4083 61.5307 45.2643 60.6987 45.2643 59.696C45.2643 58.6827 45.4136 57.8507 45.7123 57.2C46.0216 56.5493 46.4483 56.064 46.9923 55.744C47.5363 55.424 48.1709 55.264 48.8963 55.264C49.7069 55.264 50.4323 55.4453 51.0723 55.808C51.7229 56.1707 52.2349 56.6827 52.6083 57.344C52.9923 58.0053 53.1843 58.7893 53.1843 59.696C53.1843 60.592 52.9923 61.3707 52.6083 62.032C52.2349 62.6933 51.7229 63.2107 51.0723 63.584C50.4323 63.9467 49.7069 64.128 48.8963 64.128ZM43.8083 64V52.128H46.3043V57.136L46.1443 59.68L46.1923 62.24V64H43.8083ZM48.4643 62.08C48.8803 62.08 49.2483 61.984 49.5683 61.792C49.8989 61.6 50.1603 61.328 50.3523 60.976C50.5549 60.6133 50.6562 60.1867 50.6562 59.696C50.6562 59.1947 50.5549 58.768 50.3523 58.416C50.1603 58.064 49.8989 57.792 49.5683 57.6C49.2483 57.408 48.8803 57.312 48.4643 57.312C48.0483 57.312 47.6749 57.408 47.3443 57.6C47.0136 57.792 46.7523 58.064 46.5603 58.416C46.3683 58.768 46.2723 59.1947 46.2723 59.696C46.2723 60.1867 46.3683 60.6133 46.5603 60.976C46.7523 61.328 47.0136 61.6 47.3443 61.792C47.6749 61.984 48.0483 62.08 48.4643 62.08ZM58.9511 64.128C58.0338 64.128 57.2178 63.936 56.5031 63.552C55.7991 63.168 55.2391 62.6453 54.8231 61.984C54.4178 61.312 54.2151 60.5493 54.2151 59.696C54.2151 58.832 54.4178 58.0693 54.8231 57.408C55.2391 56.736 55.7991 56.2133 56.5031 55.84C57.2178 55.456 58.0338 55.264 58.9511 55.264C59.8578 55.264 60.6685 55.456 61.3831 55.84C62.0978 56.2133 62.6578 56.7307 63.0631 57.392C63.4685 58.0533 63.6711 58.8213 63.6711 59.696C63.6711 60.5493 63.4685 61.312 63.0631 61.984C62.6578 62.6453 62.0978 63.168 61.3831 63.552C60.6685 63.936 59.8578 64.128 58.9511 64.128ZM58.9511 62.08C59.3671 62.08 59.7405 61.984 60.0711 61.792C60.4018 61.6 60.6631 61.328 60.8551 60.976C61.0471 60.6133 61.1431 60.1867 61.1431 59.696C61.1431 59.1947 61.0471 58.768 60.8551 58.416C60.6631 58.064 60.4018 57.792 60.0711 57.6C59.7405 57.408 59.3671 57.312 58.9511 57.312C58.5351 57.312 58.1618 57.408 57.8311 57.6C57.5005 57.792 57.2338 58.064 57.0311 58.416C56.8391 58.768 56.7431 59.1947 56.7431 59.696C56.7431 60.1867 56.8391 60.6133 57.0311 60.976C57.2338 61.328 57.5005 61.6 57.8311 61.792C58.1618 61.984 58.5351 62.08 58.9511 62.08ZM70.4789 64V62.32L70.3189 61.952V58.944C70.3189 58.4107 70.1535 57.9947 69.8229 57.696C69.5029 57.3973 69.0069 57.248 68.3349 57.248C67.8762 57.248 67.4229 57.3227 66.9749 57.472C66.5375 57.6107 66.1642 57.8027 65.8549 58.048L64.9589 56.304C65.4282 55.9733 65.9935 55.7173 66.6549 55.536C67.3162 55.3547 67.9882 55.264 68.6709 55.264C69.9829 55.264 71.0015 55.5733 71.7269 56.192C72.4522 56.8107 72.8149 57.776 72.8149 59.088V64H70.4789ZM67.8549 64.128C67.1829 64.128 66.6069 64.016 66.1269 63.792C65.6469 63.5573 65.2789 63.2427 65.0229 62.848C64.7669 62.4533 64.6389 62.0107 64.6389 61.52C64.6389 61.008 64.7615 60.56 65.0069 60.176C65.2629 59.792 65.6629 59.4933 66.2069 59.28C66.7509 59.056 67.4602 58.944 68.3349 58.944H70.6229V60.4H68.6069C68.0202 60.4 67.6149 60.496 67.3909 60.688C67.1775 60.88 67.0709 61.12 67.0709 61.408C67.0709 61.728 67.1935 61.984 67.4389 62.176C67.6949 62.3573 68.0415 62.448 68.4789 62.448C68.8949 62.448 69.2682 62.352 69.5989 62.16C69.9295 61.9573 70.1695 61.664 70.3189 61.28L70.7029 62.432C70.5215 62.9867 70.1909 63.408 69.7109 63.696C69.2309 63.984 68.6122 64.128 67.8549 64.128ZM75.0739 64V55.392H77.4579V57.824L77.1219 57.12C77.3779 56.512 77.7885 56.0533 78.3539 55.744C78.9192 55.424 79.6072 55.264 80.4179 55.264V57.568C80.3112 57.5573 80.2152 57.552 80.1299 57.552C80.0445 57.5413 79.9539 57.536 79.8579 57.536C79.1752 57.536 78.6205 57.7333 78.1939 58.128C77.7779 58.512 77.5699 59.1147 77.5699 59.936V64H75.0739ZM85.5355 64.128C84.7248 64.128 83.9942 63.9467 83.3435 63.584C82.6928 63.2107 82.1755 62.6933 81.7915 62.032C81.4182 61.3707 81.2315 60.592 81.2315 59.696C81.2315 58.7893 81.4182 58.0053 81.7915 57.344C82.1755 56.6827 82.6928 56.1707 83.3435 55.808C83.9942 55.4453 84.7248 55.264 85.5355 55.264C86.2608 55.264 86.8955 55.424 87.4395 55.744C87.9835 56.064 88.4048 56.5493 88.7035 57.2C89.0022 57.8507 89.1515 58.6827 89.1515 59.696C89.1515 60.6987 89.0075 61.5307 88.7195 62.192C88.4315 62.8427 88.0155 63.328 87.4715 63.648C86.9382 63.968 86.2928 64.128 85.5355 64.128ZM85.9675 62.08C86.3728 62.08 86.7408 61.984 87.0715 61.792C87.4022 61.6 87.6635 61.328 87.8555 60.976C88.0582 60.6133 88.1595 60.1867 88.1595 59.696C88.1595 59.1947 88.0582 58.768 87.8555 58.416C87.6635 58.064 87.4022 57.792 87.0715 57.6C86.7408 57.408 86.3728 57.312 85.9675 57.312C85.5515 57.312 85.1782 57.408 84.8475 57.6C84.5168 57.792 84.2502 58.064 84.0475 58.416C83.8555 58.768 83.7595 59.1947 83.7595 59.696C83.7595 60.1867 83.8555 60.6133 84.0475 60.976C84.2502 61.328 84.5168 61.6 84.8475 61.792C85.1782 61.984 85.5515 62.08 85.9675 62.08ZM88.2235 64V62.24L88.2715 59.68L88.1115 57.136V52.128H90.6075V64H88.2235Z" fill="#121212"/>
</g>
</svg>
