<svg width="1158" height="419" viewBox="0 0 1158 419" fill="none" xmlns="http://www.w3.org/2000/svg">
<path d="M0 8.00001C0 3.58173 3.58172 0 8 0H958C1068.46 0 1158 89.5431 1158 200V410.851C1158 415.269 1154.42 418.851 1150 418.851H8.00002C3.58174 418.851 0 415.269 0 410.851V8.00001Z" fill="#CCE0EC"/>
<path d="M0 8.00001C0 3.58173 3.58172 0 8 0H958C1068.46 0 1158 89.5431 1158 200V410.851C1158 415.269 1154.42 418.851 1150 418.851H8.00002C3.58174 418.851 0 415.269 0 410.851V8.00001Z" stroke="black"/>
<g clip-path="url(#clip0_1626_3941)">
<path d="M416 205.45C416.001 215.396 412.199 224.976 405.354 232.275C398.509 239.573 389.126 244.053 379.08 244.818C378.741 244.843 378.398 244.868 378.054 244.883V207.409C378.055 207.034 377.97 206.664 377.807 206.326C377.644 205.988 377.406 205.691 377.111 205.455C377.077 205.42 377.039 205.39 376.998 205.364C376.961 205.334 376.921 205.307 376.88 205.283C376.52 205.054 376.107 204.918 375.68 204.887C375.253 204.856 374.824 204.931 374.434 205.106L374.008 204.184C374.474 203.975 374.979 203.866 375.49 203.865L346.282 179.026C346.508 178.773 346.744 178.525 346.98 178.277C352.486 172.547 359.607 168.578 367.421 166.885C375.236 165.191 383.386 165.849 390.817 168.775C398.249 171.701 404.621 176.76 409.11 183.297C413.6 189.835 416 197.552 416 205.45Z" fill="#F2F2F2"/>
<path d="M36.1417 232.373C35.9965 231.64 36.0157 230.885 36.1981 230.161C36.3804 229.436 36.7215 228.76 37.1972 228.18C37.6729 227.599 38.2717 227.129 38.9514 226.802C39.6312 226.475 40.3753 226.299 41.1314 226.286L64.1872 199.193L69.9433 206.458L46.4461 231.673C46.3831 232.928 45.856 234.117 44.9644 235.014C44.0729 235.912 42.8789 236.455 41.6088 236.541C40.3386 236.627 39.0806 236.251 38.073 235.482C37.0654 234.714 36.3782 233.608 36.1418 232.373H36.1417Z" fill="#FFB8B8"/>
<path d="M145.626 199.025C145.465 199.256 145.322 199.498 145.199 199.751L120.024 203.303L116.202 198.512L108.123 203.262L115.717 214.95L146.42 206.016C147.23 206.74 148.245 207.203 149.328 207.344C150.412 207.485 151.513 207.297 152.486 206.805C153.458 206.314 154.256 205.541 154.773 204.591C155.29 203.64 155.502 202.557 155.38 201.485C155.259 200.412 154.809 199.402 154.092 198.589C153.374 197.775 152.423 197.196 151.364 196.929C150.305 196.662 149.189 196.72 148.164 197.094C147.139 197.468 146.254 198.142 145.626 199.025Z" fill="#FFB8B8"/>
<path d="M102.623 289.55L107.078 293.929L126.308 279.05L119.733 272.587L102.623 289.55Z" fill="#FFB8B8"/>
<path d="M111.551 306.458L97.5498 292.696L102.936 287.356L111.528 295.8C112.238 296.499 112.802 297.328 113.188 298.242C113.573 299.155 113.773 300.135 113.775 301.124C113.777 302.114 113.582 303.094 113.2 304.009C112.819 304.925 112.258 305.756 111.551 306.458L111.551 306.458Z" fill="#2F2E41"/>
<path d="M78.9434 331.551H85.2301L88.2207 307.614H78.9424L78.9434 331.551Z" fill="#FFB8B8"/>
<path d="M97.3545 337.312L77.5965 337.313L77.5962 329.777L89.7204 329.777C90.7229 329.777 91.7155 329.971 92.6417 330.35C93.5679 330.729 94.4095 331.284 95.1184 331.983C95.8273 332.683 96.3896 333.514 96.7733 334.428C97.157 335.342 97.3544 336.322 97.3545 337.312Z" fill="#2F2E41"/>
<path d="M77.5761 313.062L70.4153 260.93C69.2947 253.051 69.6425 245.037 71.4415 237.282C72.911 231.049 74.8961 226.732 77.342 224.451C77.728 224.093 78.2221 223.871 78.7487 223.817L102.391 221.386C102.847 221.34 103.306 221.423 103.715 221.625C104.125 221.827 104.468 222.139 104.704 222.527L105.481 223.805C105.576 223.96 105.652 224.126 105.708 224.298L110.707 239.595C110.781 239.827 110.902 240.041 111.061 240.225C111.22 240.41 111.415 240.562 111.634 240.672C119.504 244.638 145.069 258.028 143.606 263.805C142.232 269.233 129.362 278.035 125.45 280.603C125.051 280.866 124.582 281.004 124.103 281.001C123.624 280.997 123.157 280.851 122.763 280.583L116.269 276.197C115.952 275.983 115.692 275.697 115.51 275.363C115.327 275.029 115.229 274.657 115.222 274.278C115.215 273.899 115.301 273.523 115.471 273.183C115.641 272.843 115.891 272.549 116.201 272.324L120.679 269.067C120.953 268.867 121.166 268.598 121.297 268.287C121.427 267.977 121.47 267.637 121.419 267.305C121.369 266.973 121.227 266.66 121.01 266.401C120.794 266.142 120.509 265.946 120.188 265.835L96.1391 257.505C95.8691 257.412 95.5809 257.38 95.2968 257.414C95.0126 257.448 94.7401 257.545 94.5 257.699C94.26 257.853 94.059 258.059 93.9123 258.301C93.7656 258.544 93.6772 258.817 93.6539 259.098L89.2198 312.598C89.1708 313.171 88.9131 313.708 88.4943 314.109C88.0754 314.509 87.5238 314.746 86.9415 314.776L80.0808 315.115C80.039 315.117 79.9976 315.118 79.9562 315.118C79.3739 315.12 78.8108 314.913 78.3726 314.534C77.9344 314.156 77.6512 313.632 77.5761 313.062Z" fill="#2F2E41"/>
<path d="M88.4192 178.224C95.375 178.224 101.014 172.657 101.014 165.791C101.014 158.924 95.375 153.358 88.4192 153.358C81.4635 153.358 75.8247 158.924 75.8247 165.791C75.8247 172.657 81.4635 178.224 88.4192 178.224Z" fill="#FFB8B8"/>
<path d="M76.6394 222.321L67.3687 188.929L67.5274 188.824C67.7265 188.691 87.7088 175.666 111.104 186.163L111.528 186.403L106.035 221.061C105.915 221.852 105.519 222.577 104.916 223.111C104.313 223.645 103.54 223.954 102.73 223.985L80.1253 224.844C80.0797 224.845 80.0343 224.846 79.9891 224.846C79.2271 224.848 78.4858 224.601 77.8801 224.145C77.2745 223.688 76.8384 223.047 76.6394 222.321Z" fill="#CCCCCC"/>
<path d="M67.0159 210.668L59.2947 201.903C58.9229 201.482 58.7135 200.945 58.7035 200.386C58.6935 199.828 58.8836 199.284 59.2402 198.85L67.3117 189.007L73.5079 190.675L76.7929 202.025L70.8033 210.472C70.5943 210.768 70.3193 211.014 69.9994 211.189C69.6795 211.364 69.3232 211.464 68.9578 211.482C68.9146 211.484 68.8717 211.485 68.8287 211.485C68.4848 211.486 68.1448 211.413 67.8319 211.272C67.5191 211.131 67.2407 210.925 67.0159 210.668Z" fill="#CCCCCC"/>
<path d="M109.713 208.842C109.347 208.824 108.991 208.724 108.671 208.549C108.351 208.374 108.076 208.129 107.867 207.832L101.877 199.385L104.758 187.437L110.463 185.901L111.528 186.403L119.43 196.21C119.787 196.644 119.977 197.188 119.967 197.746C119.957 198.305 119.747 198.842 119.376 199.263L111.654 208.029C111.43 208.285 111.151 208.491 110.838 208.632C110.526 208.773 110.186 208.846 109.842 208.845C109.799 208.845 109.756 208.844 109.713 208.842Z" fill="#CCCCCC"/>
<path d="M378.053 204.928C378.058 205.054 378.014 205.177 377.93 205.273C377.842 205.375 377.716 205.438 377.58 205.448C377.445 205.459 377.311 205.416 377.207 205.328L375.489 203.865L346.281 179.026L264.359 109.347C263.892 108.952 263.296 108.735 262.681 108.736C262.066 108.737 261.471 108.955 261.005 109.352L150.685 203.967L149.69 204.817C149.652 204.85 149.609 204.878 149.562 204.898C149.48 204.934 149.39 204.948 149.3 204.938C149.172 204.925 149.054 204.866 148.967 204.771C148.922 204.722 148.888 204.664 148.866 204.601C148.845 204.538 148.836 204.471 148.84 204.405C148.844 204.339 148.862 204.274 148.891 204.214C148.921 204.155 148.962 204.102 149.013 204.058L149.151 203.936L260.334 108.587C260.987 108.033 261.819 107.728 262.68 107.726C263.541 107.724 264.375 108.026 265.03 108.577L346.979 178.277L377.874 204.559C377.928 204.605 377.972 204.662 378.003 204.725C378.033 204.789 378.051 204.858 378.053 204.928Z" fill="#3F3D56"/>
<path d="M315.766 219.877L314.417 216.212L309.771 203.557L299.762 176.308L288.573 145.85L268.395 90.9111C267.999 89.8398 267.189 88.9671 266.142 88.4841C265.095 88.0012 263.897 87.9474 262.811 88.3345L146.147 130.091C145.062 130.482 144.177 131.282 143.688 132.315C143.199 133.349 143.144 134.531 143.537 135.604L172.145 213.489L172.632 214.82L202.661 228.255L211.101 232.031L212.471 232.644L248.207 248.635L249.591 248.139L273.031 239.751L308.387 227.096L313.151 225.39C314.237 224.999 315.122 224.2 315.612 223.167C316.102 222.134 316.158 220.951 315.766 219.877Z" fill="#E6E6E6"/>
<path d="M266.846 155.001C266.264 153.424 265.073 152.14 263.533 151.429C261.993 150.718 260.23 150.639 258.632 151.21L212.471 167.737L190.18 175.715C189.388 175.998 188.66 176.432 188.038 176.992C187.416 177.553 186.912 178.228 186.555 178.981C186.198 179.734 185.994 180.549 185.956 181.38C185.918 182.21 186.046 183.04 186.333 183.822C186.621 184.603 187.061 185.321 187.629 185.935C188.197 186.548 188.883 187.045 189.646 187.397C190.409 187.749 191.235 187.949 192.076 187.986C192.917 188.022 193.758 187.895 194.549 187.611L212.471 181.197L263.006 163.111C264.603 162.536 265.904 161.36 266.624 159.84C267.344 158.319 267.424 156.579 266.846 155.001Z" fill="white"/>
<path d="M274.974 177.133C274.392 175.556 273.2 174.271 271.661 173.561C270.121 172.85 268.358 172.771 266.759 173.341L258.939 176.141L212.471 192.774L198.308 197.842C196.711 198.415 195.409 199.59 194.69 201.11C193.97 202.63 193.891 204.369 194.47 205.946C195.049 207.524 196.239 208.809 197.778 209.521C199.316 210.233 201.078 210.313 202.677 209.743L212.471 206.235L271.133 185.237C271.267 185.192 271.395 185.136 271.523 185.08C273.012 184.435 274.198 183.255 274.839 181.779C275.479 180.304 275.528 178.642 274.974 177.133Z" fill="white"/>
<path d="M283.189 199.497C282.608 197.92 281.418 196.636 279.879 195.925C278.34 195.214 276.578 195.135 274.98 195.705L253.048 203.556L236.069 209.636L212.471 218.079L206.523 220.211C205.148 220.705 203.986 221.648 203.227 222.883C202.469 224.118 202.161 225.572 202.354 227.004C202.413 227.43 202.516 227.849 202.662 228.254L211.102 232.031L212.471 231.54H212.481L255.304 216.212L279.348 207.606C280.946 207.033 282.249 205.857 282.969 204.336C283.689 202.816 283.768 201.075 283.189 199.497H283.189Z" fill="white"/>
<path d="M235.125 133.245C234.543 131.668 233.352 130.383 231.812 129.673C230.272 128.962 228.509 128.883 226.911 129.453L200.4 138.939C198.802 139.512 197.501 140.688 196.781 142.208C196.062 143.727 195.983 145.467 196.562 147.044C197.141 148.621 198.33 149.907 199.869 150.619C201.408 151.331 203.17 151.41 204.768 150.84L213.158 147.838L218.711 145.849L231.285 141.349C232.882 140.776 234.183 139.6 234.903 138.081C235.623 136.561 235.703 134.822 235.125 133.245Z" fill="white"/>
<path d="M340.924 145.849H216.83C216.098 145.85 215.378 146.033 214.736 146.38C214.095 146.728 213.552 147.23 213.158 147.839C212.708 148.528 212.47 149.332 212.471 150.152V232.643L248.207 248.634L253.243 250.887L261.196 254.446C261.662 254.653 262.167 254.761 262.678 254.761C263.189 254.761 263.694 254.653 264.16 254.446L272.113 250.887L297.004 239.751L320.202 229.368L345.282 218.151V150.152C345.282 149.011 344.822 147.917 344.005 147.11C343.188 146.304 342.079 145.85 340.924 145.849Z" fill="#00659F"/>
<path d="M315.284 203.557H242.468C240.813 203.558 239.222 204.191 238.029 205.325C236.836 206.458 236.133 208.003 236.069 209.636C236.06 209.719 236.057 209.802 236.059 209.884C236.061 211.562 236.737 213.17 237.939 214.356C239.14 215.542 240.769 216.21 242.468 216.212H315.284C316.984 216.212 318.614 215.545 319.816 214.359C321.018 213.172 321.694 211.563 321.694 209.884C321.694 208.206 321.018 206.597 319.816 205.41C318.614 204.224 316.984 203.557 315.284 203.557Z" fill="white"/>
<path d="M319.432 228.604C318.277 227.628 316.805 227.093 315.284 227.095H242.468C240.768 227.095 239.138 227.762 237.936 228.949C236.734 230.135 236.059 231.745 236.059 233.423C236.059 235.101 236.734 236.711 237.936 237.897C239.138 239.084 240.768 239.751 242.468 239.751H297.003L320.202 229.368C319.967 229.093 319.71 228.837 319.432 228.604Z" fill="white"/>
<path d="M253.243 250.887L261.196 254.445C261.662 254.653 262.167 254.76 262.678 254.76C263.189 254.76 263.694 254.653 264.16 254.445L272.113 250.887H253.243Z" fill="white"/>
<path d="M298.998 176.581C298.547 175.363 297.728 174.311 296.651 173.567C295.574 172.824 294.292 172.425 292.978 172.425H264.775C263.544 172.426 262.339 172.777 261.304 173.436C260.269 174.095 259.448 175.033 258.94 176.14C258.56 176.96 258.364 177.851 258.365 178.752C258.368 180.43 259.044 182.038 260.245 183.224C261.447 184.41 263.076 185.078 264.775 185.08H292.978C294.009 185.08 295.025 184.835 295.94 184.364C296.854 183.894 297.64 183.213 298.231 182.379C298.822 181.544 299.2 180.582 299.334 179.572C299.468 178.563 299.352 177.537 298.998 176.581Z" fill="white"/>
<path d="M294.516 239.751L269.626 250.887L263.734 253.525C263.402 253.672 263.042 253.749 262.677 253.749C262.313 253.749 261.953 253.672 261.621 253.525L255.729 250.887H253.242L261.195 254.446C261.661 254.654 262.166 254.761 262.677 254.761C263.189 254.761 263.694 254.654 264.159 254.446L272.113 250.887L297.003 239.751H294.516ZM294.516 239.751L269.626 250.887L263.734 253.525C263.402 253.672 263.042 253.749 262.677 253.749C262.313 253.749 261.953 253.672 261.621 253.525L255.729 250.887H253.242L261.195 254.446C261.661 254.654 262.166 254.761 262.677 254.761C263.189 254.761 263.694 254.654 264.159 254.446L272.113 250.887L297.003 239.751H294.516ZM294.516 239.751L269.626 250.887L263.734 253.525C263.402 253.672 263.042 253.749 262.677 253.749C262.313 253.749 261.953 253.672 261.621 253.525L255.729 250.887H253.242L261.195 254.446C261.661 254.654 262.166 254.761 262.677 254.761C263.189 254.761 263.694 254.654 264.159 254.446L272.113 250.887L297.003 239.751H294.516ZM378.054 204.929C377.865 204.743 377.657 204.577 377.433 204.433C376.93 204.11 376.352 203.919 375.753 203.875C375.154 203.832 374.554 203.938 374.008 204.185L319.432 228.604L294.516 239.751L269.626 250.887L263.734 253.525C263.402 253.672 263.042 253.749 262.677 253.749C262.313 253.749 261.953 253.672 261.621 253.525L255.729 250.887L249.591 248.139L212.481 231.54L212.471 231.535L202.353 227.004L172.145 213.489L151.347 204.185C151.135 204.088 150.913 204.015 150.685 203.967C150.183 203.843 149.659 203.833 149.152 203.937C148.341 204.101 147.612 204.535 147.088 205.168C146.564 205.801 146.277 206.592 146.275 207.409V334.533C146.276 335.472 146.655 336.373 147.328 337.037C148.001 337.701 148.913 338.075 149.865 338.076H375.49C376.442 338.075 377.354 337.701 378.027 337.037C378.7 336.373 379.078 335.472 379.08 334.533V207.409C379.081 206.481 378.713 205.59 378.054 204.929V204.929ZM378.054 334.533C378.054 335.204 377.783 335.847 377.303 336.322C376.822 336.797 376.17 337.063 375.49 337.064H149.865C149.185 337.063 148.533 336.797 148.052 336.322C147.571 335.847 147.301 335.204 147.301 334.533V207.409C147.301 206.986 147.409 206.57 147.614 206.199C147.819 205.827 148.115 205.512 148.475 205.283C148.729 205.123 149.008 205.007 149.301 204.939C149.387 204.92 149.474 204.907 149.562 204.898C149.663 204.884 149.764 204.877 149.865 204.878C150.229 204.879 150.59 204.956 150.921 205.106L172.632 214.82L202.661 228.255L211.102 232.031L212.471 232.644L248.207 248.635L253.242 250.887L261.195 254.446C261.661 254.654 262.166 254.761 262.677 254.761C263.188 254.761 263.694 254.654 264.159 254.446L272.113 250.887L297.003 239.751L320.202 229.368L374.434 205.106C374.824 204.931 375.252 204.856 375.679 204.887C376.107 204.918 376.519 205.054 376.88 205.283C376.921 205.307 376.96 205.334 376.998 205.364C377.039 205.39 377.076 205.421 377.11 205.455C377.405 205.691 377.643 205.989 377.806 206.327C377.97 206.665 378.054 207.035 378.054 207.409L378.054 334.533ZM294.516 239.751L269.626 250.887L263.734 253.525C263.402 253.672 263.042 253.749 262.677 253.749C262.313 253.749 261.953 253.672 261.621 253.525L255.729 250.887H253.242L261.195 254.446C261.661 254.654 262.166 254.761 262.677 254.761C263.189 254.761 263.694 254.654 264.159 254.446L272.113 250.887L297.003 239.751H294.516ZM294.516 239.751L269.626 250.887L263.734 253.525C263.402 253.672 263.042 253.749 262.677 253.749C262.313 253.749 261.953 253.672 261.621 253.525L255.729 250.887H253.242L261.195 254.446C261.661 254.654 262.166 254.761 262.677 254.761C263.189 254.761 263.694 254.654 264.159 254.446L272.113 250.887L297.003 239.751H294.516ZM211.102 232.031L212.471 232.644V231.54L211.102 232.031ZM294.516 239.751L269.626 250.887L263.734 253.525C263.402 253.672 263.042 253.749 262.677 253.749C262.313 253.749 261.953 253.672 261.621 253.525L255.729 250.887H253.242L261.195 254.446C261.661 254.654 262.166 254.761 262.677 254.761C263.189 254.761 263.694 254.654 264.159 254.446L272.113 250.887L297.003 239.751H294.516Z" fill="#3F3D56"/>
<path d="M116.007 338.075H58.0621C57.9261 338.075 57.7957 338.022 57.6995 337.927C57.6033 337.832 57.5493 337.703 57.5493 337.569C57.5493 337.435 57.6033 337.306 57.6995 337.211C57.7957 337.116 57.9261 337.063 58.0621 337.063H116.007C116.143 337.063 116.273 337.116 116.369 337.211C116.465 337.306 116.52 337.435 116.52 337.569C116.52 337.703 116.465 337.832 116.369 337.927C116.273 338.022 116.143 338.075 116.007 338.075Z" fill="#3F3D56"/>
<path d="M83.6311 174.883C82.6851 174.409 81.8985 173.675 81.3665 172.769C80.8345 171.863 80.58 170.824 80.6337 169.778C80.6874 168.732 81.047 167.724 81.6691 166.876C82.2911 166.027 83.1489 165.375 84.1386 164.998C87.9391 163.55 92.1997 166.505 96.1835 165.665C100.154 164.828 102.451 160.142 101.503 156.244C100.556 152.347 97.1061 149.411 93.3023 148.009C90.8181 147.096 88.1576 146.746 85.5177 146.984C82.8778 147.223 80.3261 148.045 78.0515 149.389C75.8003 150.772 73.9254 152.678 72.5899 154.939C71.2543 157.2 70.4985 159.75 70.3881 162.365C70.3364 164.983 70.9843 167.568 72.2665 169.86C73.5487 172.152 75.4201 174.07 77.692 175.42C78.7046 175.997 79.8831 176.459 81.0219 176.2C81.9568 175.9 82.8375 175.456 83.6311 174.883Z" fill="#2F2E41"/>
<path d="M79.5492 149.086C76.198 144.698 71.6741 141.093 66.4099 139.306C61.1457 137.518 55.1301 137.662 50.186 140.187C45.242 142.713 41.555 147.729 41.1701 153.212C40.5296 162.336 48.4273 170.092 49.2378 179.203C49.4947 182.091 49.0199 184.996 47.8561 187.658C46.6923 190.319 44.8761 192.654 42.571 194.45C40.266 196.246 37.5446 197.448 34.6518 197.948C31.759 198.447 28.7858 198.228 26 197.311C27.9842 198.924 30.2848 200.114 32.7572 200.806C35.2296 201.499 37.8203 201.679 40.3667 201.336C42.909 200.96 45.3344 200.029 47.4672 198.612C49.6 197.196 51.3867 195.328 52.6978 193.145C54.4752 190.097 55.2051 186.555 55.4886 183.049C55.9339 177.505 55.3309 171.927 53.7104 166.601C52.8245 163.694 51.6232 160.704 52.1849 157.72C52.5051 156.168 53.2802 154.743 54.4139 153.622C55.5476 152.501 56.9899 151.734 58.5616 151.416C61.1016 150.946 63.6986 151.711 66.1239 152.592C68.5492 153.473 70.9944 154.492 73.5779 154.55C76.1614 154.608 78.9754 153.441 79.9738 151.088L79.5492 149.086Z" fill="#2F2E41"/>
</g>
<defs>
<clipPath id="clip0_1626_3941">
<rect width="390" height="250" fill="white" transform="translate(26 88.0757)"/>
</clipPath>
</defs>
</svg>
