<svg width="84" height="60" viewBox="0 0 84 60" fill="none" xmlns="http://www.w3.org/2000/svg">
<g opacity="0.5">
<path d="M47 20.5H37C34 20.5 32 19 32 15.5V8.5C32 5 34 3.5 37 3.5H47C50 3.5 52 5 52 8.5V15.5C52 19 50 20.5 47 20.5Z" stroke="#002235" stroke-width="1.5" stroke-miterlimit="10" stroke-linecap="round" stroke-linejoin="round"/>
<path d="M47 9L43.87 11.5C42.84 12.32 41.15 12.32 40.12 11.5L37 9" stroke="#002235" stroke-width="1.5" stroke-miterlimit="10" stroke-linecap="round" stroke-linejoin="round"/>
</g>
<path opacity="0.5" d="M1.828 56V44.8H3.972L8.74 52.704H7.604L12.292 44.8H14.42L14.452 56H12.02L12.004 48.528H12.452L8.708 54.816H7.54L3.716 48.528H4.26V56H1.828ZM21.2053 56.128C20.2239 56.128 19.3599 55.936 18.6133 55.552C17.8773 55.168 17.3066 54.6453 16.9013 53.984C16.4959 53.312 16.2933 52.5493 16.2933 51.696C16.2933 50.832 16.4906 50.0693 16.8853 49.408C17.2906 48.736 17.8399 48.2133 18.5333 47.84C19.2266 47.456 20.0106 47.264 20.8853 47.264C21.7279 47.264 22.4853 47.4453 23.1573 47.808C23.8399 48.16 24.3786 48.672 24.7733 49.344C25.1679 50.0053 25.3653 50.8 25.3653 51.728C25.3653 51.824 25.3599 51.936 25.3493 52.064C25.3386 52.1813 25.3279 52.2933 25.3173 52.4H18.3253V50.944H24.0052L23.0453 51.376C23.0453 50.928 22.9546 50.5387 22.7733 50.208C22.5919 49.8773 22.3413 49.6213 22.0213 49.44C21.7013 49.248 21.3279 49.152 20.9013 49.152C20.4746 49.152 20.0959 49.248 19.7653 49.44C19.4453 49.6213 19.1946 49.8827 19.0133 50.224C18.8319 50.5547 18.7413 50.9493 18.7413 51.408V51.792C18.7413 52.2613 18.8426 52.6773 19.0453 53.04C19.2586 53.392 19.5519 53.664 19.9253 53.856C20.3093 54.0373 20.7573 54.128 21.2693 54.128C21.7279 54.128 22.1279 54.0587 22.4693 53.92C22.8213 53.7813 23.1413 53.5733 23.4293 53.296L24.7573 54.736C24.3626 55.184 23.8666 55.5307 23.2693 55.776C22.6719 56.0107 21.9839 56.128 21.2053 56.128ZM29.923 56.128C29.187 56.128 28.4777 56.0427 27.795 55.872C27.123 55.6907 26.5897 55.4667 26.195 55.2L27.027 53.408C27.4217 53.6533 27.8857 53.856 28.419 54.016C28.963 54.1653 29.4963 54.24 30.019 54.24C30.595 54.24 31.0003 54.1707 31.235 54.032C31.4803 53.8933 31.603 53.7013 31.603 53.456C31.603 53.2533 31.507 53.104 31.315 53.008C31.1337 52.9013 30.8883 52.8213 30.579 52.768C30.2697 52.7147 29.9283 52.6613 29.555 52.608C29.1923 52.5547 28.8243 52.4853 28.451 52.4C28.0777 52.304 27.7363 52.1653 27.427 51.984C27.1177 51.8027 26.867 51.5573 26.675 51.248C26.4937 50.9387 26.403 50.5387 26.403 50.048C26.403 49.504 26.5577 49.024 26.867 48.608C27.187 48.192 27.6457 47.8667 28.243 47.632C28.8403 47.3867 29.555 47.264 30.387 47.264C30.9737 47.264 31.571 47.328 32.179 47.456C32.787 47.584 33.2937 47.7707 33.699 48.016L32.867 49.792C32.451 49.5467 32.0297 49.3813 31.603 49.296C31.187 49.2 30.7817 49.152 30.387 49.152C29.8323 49.152 29.427 49.2267 29.171 49.376C28.915 49.5253 28.787 49.7173 28.787 49.952C28.787 50.1653 28.8777 50.3253 29.059 50.432C29.251 50.5387 29.5017 50.624 29.811 50.688C30.1203 50.752 30.4563 50.8107 30.819 50.864C31.1923 50.9067 31.5657 50.976 31.939 51.072C32.3123 51.168 32.6483 51.3067 32.947 51.488C33.2563 51.6587 33.507 51.8987 33.699 52.208C33.891 52.5067 33.987 52.9013 33.987 53.392C33.987 53.9253 33.827 54.4 33.507 54.816C33.187 55.2213 32.723 55.5413 32.115 55.776C31.5177 56.0107 30.787 56.128 29.923 56.128ZM38.423 56.128C37.687 56.128 36.9777 56.0427 36.295 55.872C35.623 55.6907 35.0897 55.4667 34.695 55.2L35.527 53.408C35.9217 53.6533 36.3857 53.856 36.919 54.016C37.463 54.1653 37.9963 54.24 38.519 54.24C39.095 54.24 39.5003 54.1707 39.735 54.032C39.9803 53.8933 40.103 53.7013 40.103 53.456C40.103 53.2533 40.007 53.104 39.815 53.008C39.6337 52.9013 39.3883 52.8213 39.079 52.768C38.7697 52.7147 38.4283 52.6613 38.055 52.608C37.6923 52.5547 37.3243 52.4853 36.951 52.4C36.5777 52.304 36.2363 52.1653 35.927 51.984C35.6177 51.8027 35.367 51.5573 35.175 51.248C34.9937 50.9387 34.903 50.5387 34.903 50.048C34.903 49.504 35.0577 49.024 35.367 48.608C35.687 48.192 36.1457 47.8667 36.743 47.632C37.3403 47.3867 38.055 47.264 38.887 47.264C39.4737 47.264 40.071 47.328 40.679 47.456C41.287 47.584 41.7937 47.7707 42.199 48.016L41.367 49.792C40.951 49.5467 40.5297 49.3813 40.103 49.296C39.687 49.2 39.2817 49.152 38.887 49.152C38.3323 49.152 37.927 49.2267 37.671 49.376C37.415 49.5253 37.287 49.7173 37.287 49.952C37.287 50.1653 37.3777 50.3253 37.559 50.432C37.751 50.5387 38.0017 50.624 38.311 50.688C38.6203 50.752 38.9563 50.8107 39.319 50.864C39.6923 50.9067 40.0657 50.976 40.439 51.072C40.8123 51.168 41.1483 51.3067 41.447 51.488C41.7563 51.6587 42.007 51.8987 42.199 52.208C42.391 52.5067 42.487 52.9013 42.487 53.392C42.487 53.9253 42.327 54.4 42.007 54.816C41.687 55.2213 41.223 55.5413 40.615 55.776C40.0177 56.0107 39.287 56.128 38.423 56.128ZM49.307 56V54.32L49.147 53.952V50.944C49.147 50.4107 48.9817 49.9947 48.651 49.696C48.331 49.3973 47.835 49.248 47.163 49.248C46.7043 49.248 46.251 49.3227 45.803 49.472C45.3657 49.6107 44.9923 49.8027 44.683 50.048L43.787 48.304C44.2563 47.9733 44.8217 47.7173 45.483 47.536C46.1443 47.3547 46.8163 47.264 47.499 47.264C48.811 47.264 49.8297 47.5733 50.555 48.192C51.2803 48.8107 51.643 49.776 51.643 51.088V56H49.307ZM46.683 56.128C46.011 56.128 45.435 56.016 44.955 55.792C44.475 55.5573 44.107 55.2427 43.851 54.848C43.595 54.4533 43.467 54.0107 43.467 53.52C43.467 53.008 43.5897 52.56 43.835 52.176C44.091 51.792 44.491 51.4933 45.035 51.28C45.579 51.056 46.2883 50.944 47.163 50.944H49.451V52.4H47.435C46.8483 52.4 46.443 52.496 46.219 52.688C46.0057 52.88 45.899 53.12 45.899 53.408C45.899 53.728 46.0217 53.984 46.267 54.176C46.523 54.3573 46.8697 54.448 47.307 54.448C47.723 54.448 48.0963 54.352 48.427 54.16C48.7577 53.9573 48.9977 53.664 49.147 53.28L49.531 54.432C49.3497 54.9867 49.019 55.408 48.539 55.696C48.059 55.984 47.4403 56.128 46.683 56.128ZM58.0125 59.232C57.2018 59.232 56.4178 59.1307 55.6605 58.928C54.9138 58.736 54.2898 58.4427 53.7885 58.048L54.7805 56.256C55.1432 56.5547 55.6018 56.7893 56.1565 56.96C56.7218 57.1413 57.2765 57.232 57.8205 57.232C58.7058 57.232 59.3458 57.0347 59.7405 56.64C60.1458 56.2453 60.3485 55.6587 60.3485 54.88V53.584L60.5085 51.424L60.4765 49.248V47.392H62.8445V54.56C62.8445 56.16 62.4285 57.3387 61.5965 58.096C60.7645 58.8533 59.5698 59.232 58.0125 59.232ZM57.6285 55.584C56.8285 55.584 56.1032 55.4133 55.4525 55.072C54.8125 54.72 54.2952 54.2347 53.9005 53.616C53.5165 52.9867 53.3245 52.256 53.3245 51.424C53.3245 50.5813 53.5165 49.8507 53.9005 49.232C54.2952 48.6027 54.8125 48.1173 55.4525 47.776C56.1032 47.4347 56.8285 47.264 57.6285 47.264C58.3538 47.264 58.9938 47.4133 59.5485 47.712C60.1032 48 60.5352 48.4533 60.8445 49.072C61.1538 49.68 61.3085 50.464 61.3085 51.424C61.3085 52.3733 61.1538 53.1573 60.8445 53.776C60.5352 54.384 60.1032 54.8373 59.5485 55.136C58.9938 55.4347 58.3538 55.584 57.6285 55.584ZM58.1245 53.536C58.5618 53.536 58.9512 53.4507 59.2925 53.28C59.6338 53.0987 59.9005 52.848 60.0925 52.528C60.2845 52.208 60.3805 51.84 60.3805 51.424C60.3805 50.9973 60.2845 50.6293 60.0925 50.32C59.9005 50 59.6338 49.7547 59.2925 49.584C58.9512 49.4027 58.5618 49.312 58.1245 49.312C57.6872 49.312 57.2978 49.4027 56.9565 49.584C56.6152 49.7547 56.3432 50 56.1405 50.32C55.9485 50.6293 55.8525 50.9973 55.8525 51.424C55.8525 51.84 55.9485 52.208 56.1405 52.528C56.3432 52.848 56.6152 53.0987 56.9565 53.28C57.2978 53.4507 57.6872 53.536 58.1245 53.536ZM69.4396 56.128C68.4583 56.128 67.5943 55.936 66.8476 55.552C66.1116 55.168 65.541 54.6453 65.1356 53.984C64.7303 53.312 64.5276 52.5493 64.5276 51.696C64.5276 50.832 64.725 50.0693 65.1196 49.408C65.525 48.736 66.0743 48.2133 66.7676 47.84C67.461 47.456 68.245 47.264 69.1196 47.264C69.9623 47.264 70.7196 47.4453 71.3916 47.808C72.0743 48.16 72.613 48.672 73.0076 49.344C73.4023 50.0053 73.5996 50.8 73.5996 51.728C73.5996 51.824 73.5943 51.936 73.5836 52.064C73.573 52.1813 73.5623 52.2933 73.5516 52.4H66.5596V50.944H72.2396L71.2796 51.376C71.2796 50.928 71.189 50.5387 71.0076 50.208C70.8263 49.8773 70.5756 49.6213 70.2556 49.44C69.9356 49.248 69.5623 49.152 69.1356 49.152C68.709 49.152 68.3303 49.248 67.9996 49.44C67.6796 49.6213 67.429 49.8827 67.2476 50.224C67.0663 50.5547 66.9756 50.9493 66.9756 51.408V51.792C66.9756 52.2613 67.077 52.6773 67.2796 53.04C67.493 53.392 67.7863 53.664 68.1596 53.856C68.5436 54.0373 68.9916 54.128 69.5036 54.128C69.9623 54.128 70.3623 54.0587 70.7036 53.92C71.0556 53.7813 71.3756 53.5733 71.6636 53.296L72.9916 54.736C72.597 55.184 72.101 55.5307 71.5036 55.776C70.9063 56.0107 70.2183 56.128 69.4396 56.128ZM78.1574 56.128C77.4214 56.128 76.712 56.0427 76.0294 55.872C75.3574 55.6907 74.824 55.4667 74.4294 55.2L75.2614 53.408C75.656 53.6533 76.12 53.856 76.6534 54.016C77.1974 54.1653 77.7307 54.24 78.2534 54.24C78.8294 54.24 79.2347 54.1707 79.4694 54.032C79.7147 53.8933 79.8374 53.7013 79.8374 53.456C79.8374 53.2533 79.7414 53.104 79.5494 53.008C79.368 52.9013 79.1227 52.8213 78.8134 52.768C78.504 52.7147 78.1627 52.6613 77.7894 52.608C77.4267 52.5547 77.0587 52.4853 76.6854 52.4C76.312 52.304 75.9707 52.1653 75.6614 51.984C75.352 51.8027 75.1014 51.5573 74.9094 51.248C74.728 50.9387 74.6374 50.5387 74.6374 50.048C74.6374 49.504 74.792 49.024 75.1014 48.608C75.4214 48.192 75.88 47.8667 76.4774 47.632C77.0747 47.3867 77.7894 47.264 78.6214 47.264C79.208 47.264 79.8054 47.328 80.4134 47.456C81.0214 47.584 81.528 47.7707 81.9334 48.016L81.1014 49.792C80.6854 49.5467 80.264 49.3813 79.8374 49.296C79.4214 49.2 79.016 49.152 78.6214 49.152C78.0667 49.152 77.6614 49.2267 77.4054 49.376C77.1494 49.5253 77.0214 49.7173 77.0214 49.952C77.0214 50.1653 77.112 50.3253 77.2934 50.432C77.4854 50.5387 77.736 50.624 78.0454 50.688C78.3547 50.752 78.6907 50.8107 79.0534 50.864C79.4267 50.9067 79.8 50.976 80.1734 51.072C80.5467 51.168 80.8827 51.3067 81.1814 51.488C81.4907 51.6587 81.7414 51.8987 81.9334 52.208C82.1254 52.5067 82.2214 52.9013 82.2214 53.392C82.2214 53.9253 82.0614 54.4 81.7414 54.816C81.4214 55.2213 80.9574 55.5413 80.3494 55.776C79.752 56.0107 79.0214 56.128 78.1574 56.128Z" fill="#002235"/>
</svg>
