<svg width="337" height="171" viewBox="0 0 337 171" fill="none" xmlns="http://www.w3.org/2000/svg">
<path d="M0 8C0 3.58172 3.58172 0 8 0H237C292.228 0 337 44.7715 337 100V162.851C337 167.269 333.418 170.851 329 170.851H8C3.58172 170.851 0 167.269 0 162.851V8Z" fill="#CCE0EC"/>
<path d="M0 8C0 3.58172 3.58172 0 8 0H237C292.228 0 337 44.7715 337 100V162.851C337 167.269 333.418 170.851 329 170.851H8C3.58172 170.851 0 167.269 0 162.851V8Z" stroke="black"/>
<g clip-path="url(#clip0_1477_2563)">
<path d="M121.064 83.8035C121.064 87.8606 119.957 91.7683 117.965 94.7455C115.973 97.7226 113.243 99.5498 110.319 99.8617C110.221 99.872 110.121 99.8823 110.021 99.8885V84.6026C110.021 84.4498 109.996 84.2989 109.949 84.161C109.901 84.0231 109.832 83.9016 109.746 83.8055C109.736 83.7914 109.725 83.779 109.713 83.7684C109.702 83.7562 109.691 83.7451 109.679 83.7353C109.574 83.642 109.454 83.5864 109.33 83.5738C109.205 83.5612 109.081 83.5919 108.967 83.6631L108.843 83.2873C108.979 83.2019 109.126 83.1576 109.275 83.1572L100.774 73.025C100.84 72.9218 100.909 72.8206 100.977 72.7194C102.58 70.3821 104.652 68.7634 106.926 68.0725C109.201 67.3816 111.572 67.6502 113.735 68.8437C115.898 70.0371 117.752 72.1005 119.059 74.7673C120.365 77.4341 121.064 80.5817 121.064 83.8035Z" fill="#F2F2F2"/>
<path d="M10.5178 94.7858C10.4755 94.487 10.4811 94.1789 10.5342 93.8834C10.5872 93.5879 10.6865 93.3121 10.8249 93.0754C10.9634 92.8387 11.1376 92.6469 11.3355 92.5135C11.5333 92.38 11.7498 92.3083 11.9699 92.3032L18.6796 81.2515L20.3547 84.2149L13.5165 94.5003C13.4982 95.0124 13.3448 95.4973 13.0853 95.8633C12.8259 96.2293 12.4784 96.4508 12.1088 96.486C11.7392 96.5212 11.373 96.3676 11.0798 96.0542C10.7866 95.7408 10.5866 95.2895 10.5178 94.7858H10.5178Z" fill="#FFB8B8"/>
<path d="M42.3799 81.1833C42.3329 81.2773 42.2914 81.3762 42.2557 81.4792L34.9293 82.9283L33.8168 80.974L31.4658 82.9116L33.6758 87.6791L42.611 84.0346C42.8467 84.33 43.1419 84.519 43.4573 84.5765C43.7726 84.6341 44.0931 84.5575 44.3762 84.3568C44.6592 84.1562 44.8915 83.8411 45.042 83.4534C45.1924 83.0657 45.2541 82.6238 45.2186 82.1864C45.1832 81.7491 45.0524 81.3371 44.8435 81.0051C44.6347 80.6732 44.3578 80.437 44.0497 80.3281C43.7415 80.2192 43.4167 80.2427 43.1184 80.3955C42.8201 80.5482 42.5625 80.823 42.3799 81.1833Z" fill="#FFB8B8"/>
<path d="M29.8652 118.109L31.1617 119.895L36.7579 113.826L34.8444 111.189L29.8652 118.109Z" fill="#FFB8B8"/>
<path d="M32.4634 125.005L28.3888 119.392L29.9563 117.214L32.4566 120.658C32.6634 120.943 32.8275 121.281 32.9398 121.654C33.052 122.027 33.1101 122.426 33.1107 122.83C33.1113 123.234 33.0545 123.633 32.9434 124.007C32.8323 124.38 32.6692 124.719 32.4634 125.005L32.4634 125.005Z" fill="#2F2E41"/>
<path d="M22.9739 135.241H24.8035L25.6738 125.477H22.9736L22.9739 135.241Z" fill="#FFB8B8"/>
<path d="M28.332 137.591L22.5821 137.591L22.582 134.517L26.1104 134.517C26.4021 134.517 26.691 134.597 26.9605 134.751C27.2301 134.905 27.475 135.132 27.6813 135.417C27.8876 135.703 28.0512 136.042 28.1629 136.415C28.2745 136.787 28.332 137.187 28.332 137.591Z" fill="#2F2E41"/>
<path d="M22.576 127.699L20.4921 106.434C20.166 103.22 20.2672 99.9513 20.7908 96.7879C21.2184 94.2457 21.7961 92.4848 22.5079 91.5542C22.6202 91.4084 22.764 91.3175 22.9173 91.2956L29.7977 90.3039C29.9303 90.2851 30.0639 90.3189 30.1831 90.4013C30.3023 90.4837 30.4021 90.6113 30.4708 90.7692L30.697 91.2908C30.7244 91.3541 30.7466 91.4215 30.763 91.4918L32.2177 97.7317C32.2394 97.826 32.2744 97.9133 32.3208 97.9887C32.3671 98.0641 32.4238 98.126 32.4876 98.1708C34.7779 99.7887 42.2179 105.251 41.7921 107.607C41.392 109.821 37.6466 113.411 36.5082 114.459C36.3923 114.566 36.2557 114.623 36.1163 114.621C35.9768 114.62 35.8409 114.56 35.7262 114.451L33.8365 112.662C33.7442 112.574 33.6684 112.458 33.6154 112.321C33.5624 112.185 33.5337 112.033 33.5317 111.879C33.5298 111.724 33.5546 111.571 33.6042 111.432C33.6537 111.294 33.7265 111.173 33.8165 111.082L35.1197 109.753C35.1994 109.672 35.2616 109.562 35.2996 109.435C35.3376 109.309 35.3499 109.17 35.3352 109.035C35.3205 108.899 35.2794 108.772 35.2163 108.666C35.1531 108.56 35.0704 108.48 34.9769 108.435L27.9782 105.037C27.8996 104.999 27.8158 104.986 27.7331 105C27.6504 105.014 27.5711 105.053 27.5012 105.116C27.4314 105.179 27.3729 105.263 27.3302 105.362C27.2875 105.461 27.2618 105.572 27.255 105.687L25.9646 127.51C25.9503 127.744 25.8753 127.963 25.7534 128.126C25.6315 128.289 25.471 128.386 25.3016 128.398L23.3049 128.537C23.2928 128.537 23.2807 128.538 23.2687 128.538C23.0992 128.539 22.9354 128.454 22.8078 128.3C22.6803 128.145 22.5979 127.932 22.576 127.699Z" fill="#2F2E41"/>
<path d="M25.7316 72.6981C27.7559 72.6981 29.3969 70.4275 29.3969 67.6266C29.3969 64.8257 27.7559 62.5552 25.7316 62.5552C23.7074 62.5552 22.0664 64.8257 22.0664 67.6266C22.0664 70.4275 23.7074 72.6981 25.7316 72.6981Z" fill="#FFB8B8"/>
<path d="M22.3034 90.6855L19.6055 77.0649L19.6517 77.0218C19.7096 76.9677 25.5248 71.6546 32.3333 75.9363L32.4567 76.0343L30.8581 90.1716C30.8232 90.4942 30.708 90.7899 30.5325 91.0076C30.3569 91.2254 30.132 91.3515 29.8964 91.3643L23.3179 91.7145C23.3046 91.7151 23.2914 91.7155 23.2783 91.7155C23.0565 91.7162 22.8408 91.6156 22.6645 91.4294C22.4883 91.2432 22.3613 90.9817 22.3034 90.6855Z" fill="#CCCCCC"/>
<path d="M19.5027 85.9321L17.2557 82.3568C17.1474 82.185 17.0865 81.9659 17.0836 81.738C17.0807 81.5102 17.136 81.2882 17.2398 81.1112L19.5888 77.0962L21.392 77.7767L22.348 82.4064L20.6049 85.852C20.5441 85.9729 20.464 86.0729 20.3709 86.1443C20.2778 86.2158 20.1741 86.2567 20.0678 86.264C20.0552 86.2648 20.0427 86.2652 20.0302 86.2652C19.9301 86.2655 19.8312 86.2359 19.7402 86.1784C19.6491 86.1209 19.5681 86.0369 19.5027 85.9321Z" fill="#CCCCCC"/>
<path d="M31.9286 85.1872C31.8223 85.1799 31.7186 85.139 31.6255 85.0676C31.5324 84.9962 31.4523 84.8961 31.3915 84.7752L29.6484 81.3296L30.4869 76.4561L32.1471 75.8296L32.4569 76.0341L34.7566 80.0345C34.8604 80.2114 34.9157 80.4334 34.9128 80.6613C34.9099 80.8891 34.849 81.1082 34.7407 81.28L32.4937 84.8554C32.4283 84.9601 32.3473 85.0441 32.2562 85.1016C32.1652 85.1591 32.0663 85.1887 31.9662 85.1884C31.9537 85.1884 31.9411 85.188 31.9286 85.1872Z" fill="#CCCCCC"/>
<path d="M110.021 83.5911C110.022 83.6425 110.009 83.6927 109.985 83.7315C109.959 83.7731 109.923 83.7989 109.883 83.8031C109.844 83.8074 109.805 83.7898 109.774 83.7542L109.275 83.1575L100.774 73.0253L76.9335 44.6029C76.7975 44.4418 76.6243 44.3535 76.4452 44.3538C76.2662 44.3542 76.0932 44.4433 75.9575 44.605L43.8522 83.1988L43.5627 83.5457C43.5515 83.5593 43.5389 83.5704 43.5253 83.5787C43.5014 83.5933 43.4752 83.599 43.4492 83.5952C43.4119 83.5897 43.3774 83.5655 43.3522 83.5271C43.3393 83.5068 43.3293 83.4831 43.323 83.4575C43.3166 83.4318 43.314 83.4047 43.3152 83.3777C43.3165 83.3506 43.3216 83.3242 43.3302 83.2999C43.3389 83.2755 43.3509 83.2538 43.3656 83.2359L43.4059 83.1864L75.762 44.2932C75.9521 44.0672 76.1943 43.9427 76.4449 43.9419C76.6955 43.9411 76.9381 44.0643 77.1289 44.2891L100.977 72.7197L109.968 83.4404C109.984 83.4592 109.997 83.4823 110.006 83.5082C110.015 83.5341 110.02 83.5623 110.021 83.5911Z" fill="#3F3D56"/>
<path d="M91.8938 89.6889L91.5013 88.194L90.1492 83.0319L87.2363 71.9169L83.9801 59.4928L78.1079 37.0831C77.9926 36.6461 77.7568 36.2901 77.4522 36.0932C77.1476 35.8962 76.799 35.8742 76.4827 36.0321L42.5315 53.0649C42.2155 53.2243 41.9582 53.5505 41.8158 53.972C41.6734 54.3935 41.6576 54.876 41.7719 55.3135L50.0974 87.0831L50.2392 87.6261L58.9781 93.1062L61.4344 94.6466L61.8328 94.8964L72.2327 101.419L72.6356 101.217L79.4569 97.7954L89.7464 92.6333L91.1327 91.9375C91.4488 91.7783 91.7063 91.4522 91.849 91.0308C91.9916 90.6093 92.0078 90.1268 91.8938 89.6889Z" fill="#E6E6E6"/>
<path d="M77.6572 63.2253C77.4879 62.5822 77.1411 62.0582 76.693 61.7683C76.2448 61.4783 75.7319 61.4461 75.2666 61.6787L61.8329 68.4204L55.3459 71.6746C55.1154 71.7899 54.9036 71.9669 54.7226 72.1955C54.5415 72.4241 54.3948 72.6998 54.2909 73.0069C54.1869 73.314 54.1277 73.6465 54.1166 73.9852C54.1056 74.324 54.1429 74.6625 54.2264 74.9813C54.31 75.3001 54.4381 75.593 54.6035 75.8433C54.7689 76.0935 54.9683 76.2962 55.1904 76.4398C55.4124 76.5833 55.6527 76.6649 55.8976 76.6799C56.1424 76.6948 56.387 76.6429 56.6173 76.527L61.8329 73.9108L76.5395 66.5332C77.0044 66.2988 77.383 65.819 77.5926 65.1989C77.8021 64.5788 77.8253 63.8691 77.6572 63.2253Z" fill="white"/>
<path d="M80.0227 72.2531C79.8534 71.61 79.5066 71.086 79.0585 70.7961C78.6103 70.5062 78.0974 70.474 77.6321 70.7066L75.3563 71.8484L61.8331 78.6335L57.7114 80.7004C57.2466 80.9341 56.8679 81.4136 56.6585 82.0335C56.449 82.6534 56.426 83.363 56.5946 84.0064C56.7631 84.6497 57.1093 85.1742 57.5571 85.4645C58.0049 85.7549 58.5177 85.7873 58.9828 85.5548L61.8331 84.1239L78.905 75.5589C78.9438 75.5403 78.9811 75.5176 79.0184 75.4949C79.4519 75.2318 79.7968 74.7504 79.9833 74.1485C80.1698 73.5465 80.1839 72.8689 80.0227 72.2531Z" fill="white"/>
<path d="M82.4135 81.3752C82.2445 80.7321 81.898 80.2082 81.4501 79.9182C81.0022 79.6283 80.4894 79.596 80.0243 79.8286L73.6418 83.0312L68.7007 85.511L61.8331 88.9552L60.1021 89.8245C59.7021 90.0261 59.3637 90.4107 59.1431 90.9146C58.9225 91.4185 58.8328 92.0115 58.8888 92.5955C58.9059 92.7693 58.936 92.9402 58.9784 93.1055L61.4347 94.6459L61.8332 94.4456H61.8361L74.2984 88.1933L81.2957 84.683C81.7608 84.4492 82.1398 83.9694 82.3494 83.3492C82.5589 82.7289 82.582 82.0189 82.4135 81.3752H82.4135Z" fill="white"/>
<path d="M68.4257 54.3508C68.2563 53.7076 67.9096 53.1837 67.4614 52.8937C67.0133 52.6038 66.5003 52.5716 66.035 52.8042L58.3198 56.6737C57.855 56.9075 57.4763 57.387 57.2669 58.0069C57.0574 58.6268 57.0344 59.3364 57.2029 59.9797C57.3715 60.6231 57.7177 61.1476 58.1655 61.4379C58.6133 61.7282 59.1261 61.7607 59.5912 61.5281L62.0327 60.3037L63.6488 59.4922L67.308 57.6566C67.7727 57.4227 68.1514 56.9433 68.3609 56.3235C68.5705 55.7038 68.5938 54.9943 68.4257 54.3508Z" fill="white"/>
<path d="M99.2151 59.4922H63.1015C62.8885 59.4925 62.6789 59.567 62.4922 59.7088C62.3055 59.8506 62.1476 60.0552 62.033 60.3037C61.9021 60.585 61.8326 60.9127 61.833 61.2473V94.8958L72.2329 101.419L73.6983 102.337L76.0128 103.789C76.1484 103.874 76.2954 103.918 76.4441 103.918C76.5929 103.918 76.7399 103.874 76.8754 103.789L79.19 102.337L86.4336 97.7949L93.1848 93.5599L100.484 88.9842V61.2473C100.483 60.7819 100.35 60.3357 100.112 60.0066C99.874 59.6775 99.5515 59.4925 99.2151 59.4922Z" fill="#00659F"/>
<path d="M91.7534 83.0312H70.5628C70.0809 83.0316 69.6179 83.2901 69.2707 83.7523C68.9235 84.2146 68.7191 84.8449 68.7004 85.5111C68.6979 85.5447 68.6969 85.5785 68.6974 85.6123C68.6981 86.2965 68.8948 86.9525 69.2445 87.4363C69.5942 87.9201 70.0683 88.1924 70.5628 88.1933H91.7534C92.2482 88.1933 92.7226 87.9214 93.0725 87.4374C93.4223 86.9533 93.6188 86.2968 93.6188 85.6123C93.6188 84.9278 93.4223 84.2713 93.0725 83.7872C92.7226 83.3032 92.2482 83.0312 91.7534 83.0312Z" fill="white"/>
<path d="M92.9606 93.2481C92.6243 92.85 92.196 92.6317 91.7533 92.6328H70.5626C70.0679 92.6328 69.5935 92.9047 69.2436 93.3888C68.8938 93.8728 68.6973 94.5293 68.6973 95.2139C68.6973 95.8984 68.8938 96.5549 69.2436 97.0389C69.5935 97.523 70.0679 97.7949 70.5626 97.7949H86.4333L93.1845 93.5599C93.1164 93.4474 93.0415 93.3431 92.9606 93.2481Z" fill="white"/>
<path d="M73.6982 102.337L76.0128 103.789C76.1483 103.874 76.2953 103.918 76.4441 103.918C76.5928 103.918 76.7398 103.874 76.8754 103.789L79.1899 102.337H73.6982Z" fill="white"/>
<path d="M87.014 72.0277C86.8826 71.5309 86.6442 71.1018 86.3308 70.7986C86.0175 70.4954 85.6444 70.3327 85.262 70.3325H77.0543C76.696 70.333 76.3453 70.4761 76.0442 70.7449C75.7431 71.0136 75.5042 71.3966 75.3561 71.8481C75.2456 72.1824 75.1886 72.5459 75.189 72.9136C75.1897 73.5978 75.3864 74.2537 75.7361 74.7376C76.0858 75.2214 76.5598 75.4936 77.0543 75.4946H85.262C85.5621 75.4946 85.8577 75.3945 86.1239 75.2027C86.39 75.0108 86.6188 74.733 86.7907 74.3927C86.9627 74.0524 87.0728 73.6598 87.1117 73.2481C87.1505 72.8363 87.117 72.4177 87.014 72.0277Z" fill="white"/>
<path d="M85.7097 97.7953L78.4661 102.338L76.7515 103.414C76.6548 103.474 76.5501 103.505 76.4441 103.505C76.3381 103.505 76.2333 103.474 76.1366 103.414L74.422 102.338H73.6982L76.0128 103.79C76.1483 103.874 76.2953 103.918 76.4441 103.918C76.5928 103.918 76.7398 103.874 76.8754 103.79L79.1899 102.338L86.4335 97.7953H85.7097ZM85.7097 97.7953L78.4661 102.338L76.7515 103.414C76.6548 103.474 76.5501 103.505 76.4441 103.505C76.3381 103.505 76.2333 103.474 76.1366 103.414L74.422 102.338H73.6982L76.0128 103.79C76.1483 103.874 76.2953 103.918 76.4441 103.918C76.5928 103.918 76.7398 103.874 76.8754 103.79L79.1899 102.338L86.4335 97.7953H85.7097ZM85.7097 97.7953L78.4661 102.338L76.7515 103.414C76.6548 103.474 76.5501 103.505 76.4441 103.505C76.3381 103.505 76.2333 103.474 76.1366 103.414L74.422 102.338H73.6982L76.0128 103.79C76.1483 103.874 76.2953 103.918 76.4441 103.918C76.5928 103.918 76.7398 103.874 76.8754 103.79L79.1899 102.338L86.4335 97.7953H85.7097ZM110.021 83.5913C109.966 83.5156 109.905 83.4478 109.84 83.389C109.694 83.2575 109.525 83.1793 109.351 83.1616C109.177 83.1439 109.002 83.1873 108.843 83.2878L92.9609 93.2486L85.7097 97.7953L78.4661 102.338L76.7515 103.414C76.6548 103.474 76.55 103.505 76.444 103.505C76.3381 103.505 76.2333 103.474 76.1366 103.414L74.422 102.338L72.6357 101.217L61.8359 94.4462L61.8329 94.4441L58.8886 92.5961L50.0975 87.083L44.0447 83.2878C43.9832 83.2484 43.9186 83.2186 43.8522 83.199C43.7061 83.1485 43.5535 83.1443 43.406 83.1866C43.17 83.2535 42.9579 83.4309 42.8054 83.6889C42.6529 83.9469 42.5693 84.2698 42.5688 84.6031V136.457C42.5692 136.841 42.6793 137.208 42.8751 137.479C43.071 137.75 43.3365 137.902 43.6135 137.903H109.275C109.552 137.902 109.817 137.75 110.013 137.479C110.209 137.208 110.319 136.841 110.319 136.457V84.6031C110.32 84.2247 110.213 83.8612 110.021 83.5913V83.5913ZM110.021 136.457C110.021 136.731 109.942 136.994 109.802 137.187C109.662 137.381 109.473 137.49 109.275 137.49H43.6135C43.4156 137.49 43.2258 137.381 43.0859 137.187C42.946 136.994 42.8674 136.731 42.8673 136.457V84.6031C42.8674 84.4306 42.8987 84.2608 42.9584 84.1093C43.0181 83.9578 43.1042 83.8294 43.209 83.7359C43.2828 83.6705 43.364 83.6231 43.4493 83.5955C43.4744 83.588 43.4998 83.5824 43.5254 83.579C43.5546 83.5731 43.584 83.5704 43.6134 83.5707C43.7195 83.5709 43.8244 83.6026 43.9209 83.6636L50.2392 87.626L58.9782 93.1061L61.4345 94.6465L61.8329 94.8963L72.2328 101.419L73.6982 102.338L76.0128 103.79C76.1483 103.874 76.2953 103.918 76.444 103.918C76.5928 103.918 76.7398 103.874 76.8753 103.79L79.1899 102.338L86.4335 97.7953L93.1847 93.5604L108.967 83.6636C109.081 83.5924 109.205 83.5617 109.33 83.5744C109.454 83.587 109.574 83.6425 109.679 83.7359C109.691 83.7457 109.703 83.7567 109.713 83.7689C109.725 83.7795 109.736 83.792 109.746 83.8061C109.832 83.9022 109.901 84.0236 109.949 84.1616C109.996 84.2995 110.021 84.4503 110.021 84.6031L110.021 136.457ZM85.7097 97.7953L78.4661 102.338L76.7515 103.414C76.6548 103.474 76.5501 103.505 76.4441 103.505C76.3381 103.505 76.2333 103.474 76.1366 103.414L74.422 102.338H73.6982L76.0128 103.79C76.1483 103.874 76.2953 103.918 76.4441 103.918C76.5928 103.918 76.7398 103.874 76.8754 103.79L79.1899 102.338L86.4335 97.7953H85.7097ZM85.7097 97.7953L78.4661 102.338L76.7515 103.414C76.6548 103.474 76.5501 103.505 76.4441 103.505C76.3381 103.505 76.2333 103.474 76.1366 103.414L74.422 102.338H73.6982L76.0128 103.79C76.1483 103.874 76.2953 103.918 76.4441 103.918C76.5928 103.918 76.7398 103.874 76.8754 103.79L79.1899 102.338L86.4335 97.7953H85.7097ZM61.4345 94.6465L61.8329 94.8963V94.4462L61.4345 94.6465ZM85.7097 97.7953L78.4661 102.338L76.7515 103.414C76.6548 103.474 76.5501 103.505 76.4441 103.505C76.3381 103.505 76.2333 103.474 76.1366 103.414L74.422 102.338H73.6982L76.0128 103.79C76.1483 103.874 76.2953 103.918 76.4441 103.918C76.5928 103.918 76.7398 103.874 76.8754 103.79L79.1899 102.338L86.4335 97.7953H85.7097Z" fill="#3F3D56"/>
<path d="M33.7603 137.902H16.8973C16.8577 137.902 16.8197 137.88 16.7918 137.842C16.7638 137.803 16.748 137.751 16.748 137.696C16.748 137.641 16.7638 137.588 16.7918 137.55C16.8197 137.511 16.8577 137.489 16.8973 137.489H33.7603C33.7998 137.489 33.8378 137.511 33.8658 137.55C33.8938 137.588 33.9095 137.641 33.9095 137.696C33.9095 137.751 33.8938 137.803 33.8658 137.842C33.8378 137.88 33.7998 137.902 33.7603 137.902Z" fill="#3F3D56"/>
<path d="M24.3382 71.3354C24.0629 71.1421 23.834 70.8426 23.6791 70.473C23.5243 70.1034 23.4503 69.6796 23.4659 69.253C23.4815 68.8264 23.5862 68.4152 23.7672 68.0692C23.9482 67.7231 24.1979 67.4571 24.4859 67.3033C25.5919 66.7128 26.8318 67.918 27.9912 67.5753C29.1467 67.2338 29.8152 65.3223 29.5394 63.7326C29.2635 62.1428 28.2597 60.9453 27.1527 60.3735C26.4297 60.0009 25.6555 59.8581 24.8872 59.9555C24.119 60.0529 23.3764 60.3882 22.7144 60.9364C22.0593 61.5006 21.5137 62.2778 21.125 63.2002C20.7363 64.1226 20.5164 65.1625 20.4842 66.2293C20.4692 67.2971 20.6577 68.3515 21.0309 69.2864C21.404 70.2213 21.9486 71.0036 22.6098 71.5547C22.9045 71.7897 23.2475 71.9784 23.5789 71.8726C23.8509 71.7503 24.1072 71.569 24.3382 71.3354Z" fill="#2F2E41"/>
<path d="M23.1503 60.8125C22.175 59.0226 20.8584 57.5522 19.3264 56.8232C17.7945 56.0942 16.0438 56.1527 14.605 57.1829C13.1662 58.2132 12.0932 60.2593 11.9812 62.4955C11.7948 66.2173 14.0932 69.381 14.329 73.0974C14.4038 74.2754 14.2656 75.4606 13.9269 76.5463C13.5883 77.632 13.0597 78.5841 12.3889 79.3168C11.7181 80.0495 10.9261 80.5398 10.0842 80.7435C9.2424 80.9473 8.37714 80.8581 7.56641 80.484C8.14386 81.1417 8.81337 81.627 9.53287 81.9096C10.2524 82.1921 11.0063 82.2657 11.7474 82.1258C12.4872 81.9721 13.1931 81.5926 13.8138 81.0147C14.4345 80.4368 14.9544 79.675 15.336 78.7846C15.8532 77.5411 16.0656 76.0966 16.1481 74.6663C16.2777 72.4048 16.1022 70.1297 15.6307 67.957C15.3729 66.7715 15.0232 65.5516 15.1867 64.3345C15.2799 63.7014 15.5055 63.1202 15.8354 62.663C16.1653 62.2059 16.5851 61.8929 17.0425 61.763C17.7816 61.5714 18.5374 61.8835 19.2432 62.2428C19.949 62.602 20.6606 63.0178 21.4125 63.0415C22.1643 63.0653 22.9832 62.5891 23.2738 61.6294L23.1503 60.8125Z" fill="#2F2E41"/>
</g>
<defs>
<clipPath id="clip0_1477_2563">
<rect width="113.497" height="101.976" fill="white" transform="translate(7.56641 35.9263)"/>
</clipPath>
</defs>
</svg>
