<svg width="687" height="459" viewBox="0 0 687 459" fill="none" xmlns="http://www.w3.org/2000/svg">
<path d="M136.88 459C212.477 459 273.76 454.53 273.76 449.017C273.76 443.503 212.477 439.034 136.88 439.034C61.2834 439.034 0 443.503 0 449.017C0 454.53 61.2834 459 136.88 459Z" fill="#E6E6E6"/>
<path d="M104.629 101.844C128.45 92.1144 158.12 98.279 187.095 102.557C187.365 97.3762 190.633 91.0704 187.21 87.4556C183.05 83.0641 183.433 78.4498 185.936 73.8089C192.337 61.9415 183.167 49.3139 173.908 38.8142C171.821 36.453 169.184 34.5977 166.21 33.3991C163.236 32.2005 160.01 31.6924 156.793 31.916L139.642 33.0925C135.468 33.3787 131.485 34.8822 128.226 37.4016C124.967 39.921 122.586 43.3363 121.403 47.1904C117.308 52.539 115.116 57.8728 116.496 63.1788C110.362 67.2044 109.331 72.0636 112.088 77.5415C114.425 80.9906 114.4 84.348 111.981 87.6125C108.805 91.7744 106.372 96.4152 104.782 101.344L104.629 101.844Z" fill="#2F2E41"/>
<path d="M670.721 396.798H185.214C180.896 396.798 176.756 395.151 173.703 392.219C170.65 389.288 168.934 385.311 168.934 381.165C344.931 361.523 517.619 361.523 687 381.165C687 385.311 685.285 389.288 682.232 392.219C679.179 395.151 675.038 396.798 670.721 396.798Z" fill="#2F2E41"/>
<path d="M687 382.085L168.934 381.165L228.976 284.15L229.264 283.69V69.8788C229.263 67.2836 229.796 64.7138 230.83 62.3161C231.864 59.9184 233.38 57.7398 235.291 55.9047C237.202 54.0696 239.47 52.6139 241.967 51.6209C244.464 50.6279 247.14 50.1168 249.843 50.1171H603.219C605.921 50.1168 608.598 50.6279 611.094 51.6209C613.591 52.6139 615.86 54.0696 617.771 55.9047C619.682 57.7398 621.198 59.9184 622.232 62.3161C623.266 64.7138 623.798 67.2836 623.798 69.8788V285.161L687 382.085Z" fill="#3F3D56"/>
<path d="M249.373 63.9106C247.596 63.9126 245.892 64.5914 244.636 65.7981C243.379 67.0049 242.672 68.6411 242.67 70.3477V265.298C242.672 267.005 243.379 268.641 244.636 269.848C245.892 271.055 247.596 271.733 249.373 271.735H606.561C608.338 271.733 610.042 271.054 611.299 269.848C612.555 268.641 613.262 267.005 613.264 265.298V70.3477C613.262 68.6411 612.555 67.005 611.299 65.7982C610.042 64.5915 608.338 63.9126 606.561 63.9106H249.373Z" fill="white"/>
<path d="M250.87 297.484C250.321 297.485 249.784 297.636 249.321 297.921C248.859 298.205 248.491 298.611 248.26 299.089L229.759 337.712C229.558 338.132 229.47 338.594 229.503 339.056C229.536 339.517 229.69 339.963 229.95 340.353C230.21 340.742 230.568 341.063 230.99 341.285C231.413 341.507 231.887 341.623 232.369 341.623H621.431C621.921 341.623 622.402 341.503 622.83 341.274C623.258 341.045 623.617 340.715 623.875 340.315C624.132 339.915 624.279 339.458 624.301 338.989C624.323 338.519 624.219 338.051 624 337.631L603.89 299.009C603.653 298.549 603.287 298.163 602.833 297.894C602.379 297.624 601.855 297.482 601.321 297.484H250.87Z" fill="#2F2E41"/>
<path d="M426.531 60.6922C428.911 60.6922 430.84 58.8395 430.84 56.5541C430.84 54.2687 428.911 52.416 426.531 52.416C424.151 52.416 422.222 54.2687 422.222 56.5541C422.222 58.8395 424.151 60.6922 426.531 60.6922Z" fill="white"/>
<path d="M388.289 348.98C387.658 348.981 387.044 349.181 386.543 349.55C386.041 349.919 385.68 350.436 385.516 351.021L380.875 367.574C380.76 367.982 380.745 368.411 380.83 368.827C380.916 369.242 381.1 369.633 381.368 369.969C381.636 370.305 381.982 370.578 382.377 370.765C382.772 370.952 383.207 371.05 383.648 371.05H471.905C472.363 371.05 472.814 370.945 473.221 370.743C473.628 370.542 473.979 370.249 474.245 369.891C474.511 369.533 474.683 369.119 474.748 368.683C474.813 368.248 474.769 367.804 474.619 367.389L468.653 350.836C468.457 350.294 468.09 349.824 467.604 349.492C467.117 349.159 466.535 348.98 465.938 348.98H388.289Z" fill="#2F2E41"/>
<path d="M623.798 280.471V284.149H228.976L229.273 283.69V280.471H623.798Z" fill="#2F2E41"/>
<path d="M612.785 128.741C649.806 128.741 679.818 99.9213 679.818 64.3705C679.818 28.8197 649.806 0 612.785 0C575.764 0 545.753 28.8197 545.753 64.3705C545.753 99.9213 575.764 128.741 612.785 128.741Z" fill="#0D659F"/>
<path d="M640.556 92.4176H585.015C583.999 92.4167 583.026 92.0288 582.307 91.3392C581.589 90.6496 581.185 89.7146 581.184 88.7393V56.554C581.185 55.5788 581.589 54.6438 582.307 53.9542C583.026 53.2646 583.999 52.8768 585.015 52.8757H640.556C641.572 52.8768 642.545 53.2646 643.263 53.9542C643.981 54.6438 644.385 55.5788 644.386 56.554V88.7393C644.385 89.7145 643.982 90.6496 643.263 91.3392C642.545 92.0288 641.572 92.4167 640.556 92.4176ZM585.015 56.5541V88.7393H640.559L640.556 56.554L585.015 56.5541Z" fill="white"/>
<path d="M630.022 56.5541H595.548V41.8408C595.548 31.1839 602.798 23.4492 612.785 23.4492C622.773 23.4492 630.022 31.1839 630.022 41.8408L630.022 56.5541ZM599.379 52.8757H626.192V41.8408C626.192 33.178 620.679 27.1276 612.785 27.1276C604.892 27.1276 599.379 33.178 599.379 41.8408L599.379 52.8757Z" fill="white"/>
<path d="M612.785 75.4055C614.901 75.4055 616.616 73.7586 616.616 71.7271C616.616 69.6957 614.901 68.0488 612.785 68.0488C610.67 68.0488 608.955 69.6957 608.955 71.7271C608.955 73.7586 610.67 75.4055 612.785 75.4055Z" fill="white"/>
<path d="M565.991 205.61H289.943C288.588 205.609 287.289 205.091 286.331 204.171C285.372 203.25 284.833 202.003 284.832 200.701V134.945C284.833 133.643 285.372 132.396 286.331 131.475C287.289 130.555 288.588 130.037 289.943 130.036H565.991C567.346 130.037 568.646 130.555 569.604 131.475C570.562 132.396 571.101 133.643 571.103 134.945V200.701C571.101 202.003 570.562 203.25 569.604 204.171C568.646 205.091 567.346 205.609 565.991 205.61ZM289.943 132C289.13 132 288.351 132.311 287.776 132.863C287.201 133.415 286.877 134.164 286.876 134.945V200.701C286.877 201.482 287.201 202.231 287.776 202.783C288.351 203.335 289.13 203.646 289.943 203.647H565.991C566.804 203.646 567.584 203.335 568.159 202.783C568.734 202.231 569.057 201.482 569.058 200.701V134.945C569.057 134.164 568.734 133.415 568.159 132.863C567.584 132.311 566.804 132 565.991 131.999L289.943 132Z" fill="#E6E6E6"/>
<path d="M332.836 185.297C344.336 185.297 353.659 176.344 353.659 165.3C353.659 154.256 344.336 145.303 332.836 145.303C321.335 145.303 312.012 154.256 312.012 165.3C312.012 176.344 321.335 185.297 332.836 185.297Z" fill="#E6E6E6"/>
<path d="M380.928 151.969C380.472 151.968 380.02 152.054 379.598 152.221C379.177 152.388 378.793 152.634 378.47 152.943C378.148 153.253 377.891 153.62 377.717 154.025C377.542 154.43 377.452 154.864 377.452 155.302C377.452 155.74 377.542 156.174 377.717 156.578C377.891 156.983 378.148 157.351 378.47 157.66C378.793 157.97 379.177 158.215 379.598 158.382C380.02 158.55 380.472 158.635 380.928 158.635H544.541C545.462 158.635 546.344 158.283 546.995 157.658C547.646 157.033 548.012 156.186 548.012 155.302C548.012 154.418 547.646 153.57 546.995 152.945C546.344 152.32 545.462 151.969 544.541 151.969H380.928Z" fill="#E6E6E6"/>
<path d="M380.928 171.966C380.008 171.966 379.125 172.317 378.474 172.942C377.823 173.567 377.458 174.414 377.458 175.298C377.458 176.182 377.823 177.03 378.474 177.655C379.125 178.28 380.008 178.631 380.928 178.631H451.331C452.252 178.631 453.134 178.28 453.785 177.655C454.436 177.03 454.802 176.182 454.802 175.298C454.802 174.414 454.436 173.567 453.785 172.942C453.134 172.317 452.252 171.966 451.331 171.966H380.928Z" fill="#E6E6E6"/>
<path d="M228.297 173.314L177.268 199.366L176.622 177.656C193.277 174.986 209.123 170.337 223.775 162.769L229.113 150.107C229.694 148.727 230.639 147.516 231.855 146.593C233.071 145.67 234.516 145.067 236.049 144.842C237.581 144.617 239.148 144.779 240.595 145.312C242.043 145.844 243.321 146.729 244.305 147.879C245.744 149.562 246.464 151.707 246.318 153.88C246.172 156.054 245.171 158.092 243.518 159.583L228.297 173.314Z" fill="#FFB8B8"/>
<path d="M103.612 323.73C103.239 322.419 103.16 321.047 103.38 319.704C103.599 318.362 104.112 317.079 104.884 315.94L116.094 299.42C118.746 295.513 122.814 292.69 127.51 291.501C132.206 290.311 137.194 290.839 141.508 292.982C136.797 300.683 137.454 307.438 143.135 313.309C134.315 317.443 126.164 322.78 118.933 329.153C117.613 330.017 116.097 330.566 114.512 330.753C112.926 330.941 111.317 330.762 109.818 330.231C108.319 329.701 106.973 328.834 105.894 327.703C104.814 326.572 104.032 325.21 103.612 323.73Z" fill="#2F2E41"/>
<path d="M230.621 302.13C228.925 304.844 226.531 307.095 223.668 308.665C220.805 310.236 217.57 311.073 214.273 311.097L139.803 311.639L136.573 293.65L169.516 284.346L141.741 263.876L172.1 229.76L227.242 279.114C230.465 281.998 232.559 285.858 233.174 290.047C233.789 294.237 232.888 298.502 230.621 302.13Z" fill="#2F2E41"/>
<path d="M128.176 425.152H110.735C95.0764 322.078 79.1371 218.716 126.238 180.137L181.789 188.821L174.684 234.102L143.679 268.218L128.176 425.152Z" fill="#2F2E41"/>
<path d="M143.507 448.501C142.142 448.859 140.713 448.935 139.315 448.724C137.917 448.514 136.581 448.021 135.395 447.279L116.459 444.835C112.389 442.289 109.45 438.383 108.211 433.873C106.972 429.364 107.521 424.573 109.752 420.431C117.772 424.955 124.807 424.323 130.92 418.867C135.239 427.243 142.356 426.732 149.153 433.788C150.053 435.055 150.625 436.511 150.82 438.034C151.016 439.556 150.829 441.102 150.277 442.541C149.725 443.981 148.822 445.273 147.644 446.309C146.467 447.346 145.048 448.098 143.507 448.501Z" fill="#2F2E41"/>
<path d="M169.516 111.285L137.219 103.841C142.583 93.2974 143.025 81.5653 140.449 69.1048L162.411 68.4845C163.099 83.9795 165.181 98.4557 169.516 111.285Z" fill="#FFB8B8"/>
<path d="M178.393 207.498C154.881 222.882 138.269 208.024 125.592 185.099C127.354 171.071 124.501 154.284 119.219 136.044C116.869 127.998 117.747 119.399 121.677 111.945C125.607 104.49 132.305 98.7212 140.449 95.7773L168.224 106.943C191.809 125.403 196.451 145.4 187.603 166.491L178.393 207.498Z" fill="#0D659F"/>
<path d="M110.735 126.792L84.8977 139.818L130.76 165.87L137.141 180.986C137.567 181.995 137.774 183.076 137.751 184.165C137.727 185.253 137.473 186.326 137.004 187.317C136.535 188.308 135.86 189.196 135.021 189.929C134.183 190.661 133.197 191.222 132.126 191.577C130.907 191.981 129.608 192.108 128.33 191.948C127.052 191.789 125.83 191.348 124.759 190.66C123.688 189.971 122.798 189.054 122.158 187.98C121.518 186.906 121.146 185.704 121.07 184.469L120.425 173.934L62.1346 155.462C60.1706 154.84 58.3799 153.796 56.8981 152.411C55.4162 151.026 54.2821 149.335 53.5816 147.466C52.5605 144.742 52.5085 141.771 53.4338 139.015C54.3591 136.26 56.2094 133.877 58.6952 132.24L105.568 101.36L110.735 126.792Z" fill="#FFB8B8"/>
<path d="M136.573 129.273C125.797 124.738 115.998 129.664 103.63 133.615L101.692 100.74C113.973 94.4538 125.683 92.7591 136.573 97.6382L136.573 129.273Z" fill="#0D659F"/>
<path d="M149.464 84.7689C160.852 84.7689 170.084 75.9034 170.084 64.9672C170.084 54.0311 160.852 45.1656 149.464 45.1656C138.075 45.1656 128.843 54.0311 128.843 64.9672C128.843 75.9034 138.075 84.7689 149.464 84.7689Z" fill="#FFB8B8"/>
<path d="M174.132 62.4688C153.716 64.389 138.159 61.1826 128.217 52.053V44.7007H172.4L174.132 62.4688Z" fill="#2F2E41"/>
</svg>
