<svg width="32" height="32" viewBox="0 0 32 32" fill="none" xmlns="http://www.w3.org/2000/svg">
<path d="M18.848 4.48193H17.848V4.53181L17.853 4.58144L18.848 4.48193ZM18.848 4.48191H19.848V4.43204L19.8431 4.38241L18.848 4.48191ZM22.1303 5.84153L22.7636 6.61548V6.61548L22.1303 5.84153ZM23.5249 5.03459L23.4751 6.03335L23.5249 5.03459ZM24.8221 5.96616L24.115 6.67327L24.8221 5.96616ZM26.0336 7.17771L26.7408 6.4706V6.4706L26.0336 7.17771ZM26.1583 9.86949L26.9322 10.5027L26.9322 10.5027L26.1583 9.86949ZM27.5179 13.1518L27.4184 14.1469L27.5179 13.1518ZM29.0746 13.5673L29.8161 12.8963L29.8161 12.8963L29.0746 13.5673ZM29.0746 18.4327L29.8161 19.1037L29.8161 19.1037L29.0746 18.4327ZM27.5181 18.8482L27.4186 17.8532L27.5181 18.8482ZM26.1585 22.1301L26.9324 21.4969L26.1585 22.1301ZM23.5249 26.9649L23.5748 27.9636L23.5249 26.9649ZM22.1304 26.1579L21.4972 26.9319L22.1304 26.1579ZM19.6489 24.8089L19.2662 23.885H19.2662L19.6489 24.8089ZM18.848 27.5179L17.853 27.4184L18.848 27.5179ZM18.4325 29.0748L19.1035 29.8163L19.1035 29.8163L18.4325 29.0748ZM13.5672 29.0748L12.8961 29.8163L12.8961 29.8163L13.5672 29.0748ZM13.1516 27.5181L12.1566 27.6176L13.1516 27.5181ZM12.3509 24.8094L12.7335 23.8855H12.7335L12.3509 24.8094ZM9.86927 26.1585L10.5025 26.9325H10.5025L9.86927 26.1585ZM8.47468 26.9655L8.42487 27.9642H8.42487L8.47468 26.9655ZM7.17747 26.0339L6.47036 26.741L7.17747 26.0339ZM5.96592 24.8223L6.67303 24.1152H6.67303L5.96592 24.8223ZM5.8413 22.1306L6.61526 22.7638L6.61526 22.7638L5.8413 22.1306ZM7.19039 19.649L6.26651 20.0317H6.26651L7.19039 19.649ZM4.48175 18.8482L4.58125 17.8532H4.58125L4.48175 18.8482ZM2.92505 18.4327L2.1836 19.1037H2.1836L2.92505 18.4327ZM2.6665 16.8567H3.6665H2.6665ZM2.6665 15.1433H1.6665H2.6665ZM2.92505 13.5673L2.1836 12.8963L2.1836 12.8963L2.92505 13.5673ZM4.48191 13.1518L4.58141 14.1468H4.58141L4.48191 13.1518ZM5.84151 9.86907L5.06755 10.5023L5.84151 9.86907ZM9.86933 5.84095L10.5026 5.06699V5.06699L9.86933 5.84095ZM13.1517 4.48176L14.1467 4.58126V4.58126L13.1517 4.48176ZM13.5672 2.92523L12.8961 2.18378L12.8961 2.18378L13.5672 2.92523ZM18.4325 2.92523L17.7615 3.66669L17.7615 3.66669L18.4325 2.92523ZM19.848 4.48193V4.48191H17.848V4.48193H19.848ZM20.0315 6.2667C20.2087 6.34011 20.1622 6.48384 20.0733 6.12786C19.9848 5.77397 19.9291 5.24247 19.8431 4.38243L17.853 4.58144C17.9323 5.3745 18.0005 6.08284 18.1329 6.61274C18.2648 7.14057 18.5361 7.81206 19.2661 8.11446L20.0315 6.2667ZM21.4971 5.06757C20.8281 5.61489 20.4129 5.95128 20.1001 6.13899C19.7855 6.3278 19.8543 6.19329 20.0315 6.2667L19.2661 8.11446C19.9962 8.41686 20.6628 8.13383 21.1293 7.85387C21.5976 7.57281 22.1467 7.12018 22.7636 6.61548L21.4971 5.06757ZM23.5747 4.03583C23.0978 4.01205 22.7117 4.18505 22.4056 4.37641C22.1225 4.55339 21.8131 4.80901 21.4971 5.06757L22.7636 6.61548C23.1207 6.32329 23.3161 6.16584 23.4659 6.07225C23.5926 5.99303 23.5671 6.03794 23.4751 6.03335L23.5747 4.03583ZM25.5292 5.25906C25.244 4.97383 24.9636 4.69074 24.7006 4.48779C24.415 4.26739 24.0495 4.05951 23.5747 4.03583L23.4751 6.03335C23.3851 6.02886 23.3641 5.98264 23.4788 6.07117C23.6161 6.17714 23.792 6.35024 24.115 6.67327L25.5292 5.25906ZM26.7408 6.4706L25.5292 5.25906L24.115 6.67327L25.3265 7.88482L26.7408 6.4706ZM27.964 8.42511C27.9403 7.95035 27.7324 7.58478 27.512 7.29918C27.3091 7.03617 27.026 6.75582 26.7408 6.4706L25.3265 7.88482C25.6496 8.20785 25.8227 8.38369 25.9286 8.52102C26.0172 8.63575 25.9709 8.61466 25.9665 8.52474L27.964 8.42511ZM26.9322 10.5027C27.1908 10.1867 27.4464 9.8773 27.6234 9.59422C27.8148 9.28814 27.9878 8.90201 27.964 8.42511L25.9665 8.52474C25.9619 8.43267 26.0068 8.40725 25.9276 8.53396C25.834 8.68367 25.6765 8.87912 25.3843 9.23625L26.9322 10.5027ZM25.7331 11.9684C25.8065 12.1456 25.672 12.2143 25.8608 11.8997C26.0485 11.5869 26.3849 11.1717 26.9322 10.5027L25.3843 9.23625C24.8796 9.85311 24.427 10.4022 24.1459 10.8706C23.866 11.3371 23.5829 12.0037 23.8853 12.7337L25.7331 11.9684ZM27.6174 12.1568C26.7573 12.0708 26.2258 12.015 25.8719 11.9266C25.5159 11.8376 25.6597 11.7911 25.7331 11.9684L23.8853 12.7337C24.1877 13.4638 24.8592 13.735 25.3871 13.8669C25.917 13.9993 26.6253 14.0676 27.4184 14.1469L27.6174 12.1568ZM29.8161 12.8963C29.4957 12.5423 29.1003 12.3916 28.7486 12.3105C28.4232 12.2355 28.0237 12.1974 27.6174 12.1568L27.4184 14.1469C27.8775 14.1928 28.1271 14.2197 28.2991 14.2593C28.4448 14.2929 28.395 14.3067 28.3332 14.2383L29.8161 12.8963ZM30.3332 15.1433C30.3332 14.74 30.3351 14.3416 30.2927 14.0121C30.2465 13.6543 30.135 13.2488 29.8161 12.8963L28.3332 14.2383C28.2728 14.1716 28.2905 14.124 28.3091 14.2677C28.3312 14.4398 28.3332 14.6865 28.3332 15.1433H30.3332ZM30.3332 16.8567V15.1433H28.3332V16.8567H30.3332ZM29.8161 19.1037C30.135 18.7513 30.2465 18.3458 30.2927 17.988C30.3351 17.6585 30.3332 17.2601 30.3332 16.8567H28.3332C28.3332 17.3135 28.3312 17.5603 28.3091 17.7323C28.2905 17.8761 28.2728 17.8285 28.3332 17.7617L29.8161 19.1037ZM27.6176 19.8432C28.0238 19.8026 28.4233 19.7646 28.7486 19.6896C29.1003 19.6084 29.4957 19.4577 29.8161 19.1037L28.3332 17.7617C28.395 17.6934 28.4447 17.7071 28.2992 17.7407C28.1272 17.7804 27.8777 17.8073 27.4186 17.8532L27.6176 19.8432ZM25.7336 20.0316C25.6602 20.2088 25.5165 20.1624 25.8724 20.0734C26.2262 19.985 26.7576 19.9292 27.6176 19.8432L27.4186 17.8532C26.6256 17.9325 25.9173 18.0007 25.3875 18.1331C24.8596 18.265 24.1882 18.5362 23.8858 19.2663L25.7336 20.0316ZM26.9324 21.4969C26.3852 20.8281 26.0489 20.4129 25.8612 20.1002C25.6725 19.7857 25.807 19.8544 25.7336 20.0316L23.8858 19.2663C23.5834 19.9963 23.8664 20.6628 24.1463 21.1293C24.4273 21.5976 24.8799 22.1466 25.3845 22.7634L26.9324 21.4969ZM27.964 23.5743C27.9878 23.0975 27.8149 22.7114 27.6235 22.4053C27.4465 22.1222 27.191 21.8129 26.9324 21.4969L25.3845 22.7634C25.6767 23.1204 25.8341 23.3159 25.9276 23.4655C26.0068 23.5922 25.9619 23.5667 25.9665 23.4747L27.964 23.5743ZM26.7408 25.5288C27.026 25.2436 27.3091 24.9633 27.5121 24.7003C27.7325 24.4147 27.9404 24.0491 27.964 23.5743L25.9665 23.4747C25.971 23.3848 26.0172 23.3637 25.9287 23.4784C25.8227 23.6158 25.6496 23.7916 25.3266 24.1146L26.7408 25.5288ZM25.5293 26.7404L26.7408 25.5288L25.3266 24.1146L24.1151 25.3262L25.5293 26.7404ZM23.5748 27.9636C24.0495 27.9399 24.4151 27.7321 24.7007 27.5117C24.9637 27.3087 25.244 27.0256 25.5293 26.7404L24.1151 25.3262C23.792 25.6492 23.6162 25.8223 23.4789 25.9283C23.3641 26.0168 23.3852 25.9706 23.4751 25.9661L23.5748 27.9636ZM21.4972 26.9319C21.8132 27.1904 22.1226 27.4461 22.4057 27.623C22.7117 27.8144 23.0979 27.9874 23.5748 27.9636L23.4751 25.9661C23.5672 25.9615 23.5926 26.0064 23.4659 25.9272C23.3162 25.8336 23.1208 25.6762 22.7636 25.384L21.4972 26.9319ZM20.0316 25.7327C19.8543 25.8062 19.7856 25.6717 20.1002 25.8605C20.413 26.0482 20.8282 26.3846 21.4972 26.9319L22.7636 25.384C22.1468 24.8793 21.5977 24.4266 21.1293 24.1456C20.6628 23.8656 19.9962 23.5826 19.2662 23.885L20.0316 25.7327ZM19.8431 27.6174C19.9291 26.7572 19.9849 26.2256 20.0733 25.8717C20.1623 25.5156 20.2088 25.6593 20.0316 25.7327L19.2662 23.885C18.5361 24.1874 18.2649 24.859 18.133 25.3868C18.0006 25.9168 17.9323 26.6252 17.853 27.4184L19.8431 27.6174ZM19.1035 29.8163C19.4576 29.4958 19.6083 29.1004 19.6894 28.7487C19.7644 28.4234 19.8024 28.0238 19.8431 27.6174L17.853 27.4184C17.8071 27.8776 17.7802 28.1272 17.7405 28.2993C17.7069 28.445 17.6932 28.3952 17.7615 28.3334L19.1035 29.8163ZM16.8565 30.3334C17.2599 30.3334 17.6583 30.3353 17.9878 30.2928C18.3456 30.2467 18.7511 30.1352 19.1035 29.8163L17.7615 28.3334C17.8283 28.2729 17.8759 28.2907 17.7321 28.3092C17.5601 28.3314 17.3134 28.3334 16.8565 28.3334V30.3334ZM15.1431 30.3334H16.8565V28.3334H15.1431V30.3334ZM12.8961 29.8163C13.2486 30.1352 13.6541 30.2467 14.0119 30.2928C14.3414 30.3353 14.7398 30.3334 15.1431 30.3334V28.3334C14.6863 28.3334 14.4396 28.3314 14.2675 28.3092C14.1238 28.2907 14.1714 28.2729 14.2382 28.3334L12.8961 29.8163ZM12.1566 27.6176C12.1972 28.0239 12.2353 28.4234 12.3103 28.7487C12.3914 29.1005 12.5421 29.4959 12.8961 29.8163L14.2382 28.3334C14.3065 28.3952 14.2927 28.4449 14.2591 28.2993C14.2195 28.1273 14.1926 27.8777 14.1467 27.4186L12.1566 27.6176ZM11.9682 25.7333C11.7909 25.6599 11.8374 25.5161 11.9264 25.8721C12.0148 26.226 12.0706 26.7575 12.1566 27.6176L14.1467 27.4186C14.0674 26.6255 13.9992 25.9172 13.8667 25.3872C13.7348 24.8594 13.4636 24.1879 12.7335 23.8855L11.9682 25.7333ZM10.5025 26.9325C11.1715 26.3851 11.5868 26.0487 11.8995 25.861C12.2142 25.6722 12.1454 25.8067 11.9682 25.7333L12.7335 23.8855C12.0035 23.5831 11.3369 23.8662 10.8704 24.1461C10.402 24.4272 9.85291 24.8798 9.23603 25.3845L10.5025 26.9325ZM8.42487 27.9642C8.90177 27.988 9.28791 27.815 9.59398 27.6236C9.87706 27.4466 10.1865 27.191 10.5025 26.9325L9.23603 25.3845C8.87889 25.6767 8.68343 25.8342 8.53372 25.9278C8.407 26.007 8.43243 25.9621 8.5245 25.9667L8.42487 27.9642ZM6.47036 26.741C6.75558 27.0262 7.03593 27.3093 7.29894 27.5123C7.58454 27.7327 7.95011 27.9405 8.42487 27.9642L8.5245 25.9667C8.61442 25.9712 8.63551 26.0174 8.52078 25.9289C8.38345 25.8229 8.2076 25.6498 7.88457 25.3268L6.47036 26.741ZM5.25882 25.5295L6.47036 26.741L7.88457 25.3268L6.67303 24.1152L5.25882 25.5295ZM4.03559 23.5749C4.05927 24.0497 4.26715 24.4153 4.48755 24.7009C4.6905 24.9639 4.97359 25.2442 5.25882 25.5295L6.67303 24.1152C6.35 23.7922 6.1769 23.6164 6.07093 23.479C5.9824 23.3643 6.02862 23.3854 6.03311 23.4753L4.03559 23.5749ZM5.06734 21.4973C4.80878 21.8133 4.55316 22.1228 4.37617 22.4058C4.18481 22.7119 4.0118 23.098 4.03559 23.5749L6.03311 23.4753C6.0377 23.5674 5.99278 23.5928 6.07201 23.4661C6.16561 23.3164 6.32306 23.1209 6.61526 22.7638L5.06734 21.4973ZM6.26651 20.0317C6.19309 19.8544 6.32761 19.7857 6.13879 20.1003C5.95108 20.4131 5.61468 20.8284 5.06734 21.4973L6.61526 22.7638C7.11997 22.1469 7.5726 21.5978 7.85367 21.1295C8.13363 20.663 8.41667 19.9964 8.11427 19.2663L6.26651 20.0317ZM4.38224 19.8432C5.24229 19.9293 5.77378 19.985 6.12767 20.0735C6.48365 20.1624 6.33992 20.2089 6.26651 20.0317L8.11427 19.2663C7.81187 18.5363 7.14038 18.265 6.61255 18.1331C6.08265 18.0007 5.37431 17.9325 4.58125 17.8532L4.38224 19.8432ZM2.1836 19.1037C2.504 19.4577 2.89937 19.6084 3.2511 19.6896C3.57642 19.7646 3.97595 19.8026 4.38224 19.8432L4.58125 17.8532C4.12211 17.8073 3.87257 17.7804 3.70053 17.7407C3.55492 17.7071 3.60465 17.6934 3.6665 17.7617L2.1836 19.1037ZM1.6665 16.8567C1.6665 17.2601 1.66456 17.6585 1.70703 17.988C1.75314 18.3458 1.86464 18.7513 2.1836 19.1037L3.6665 17.7617C3.72692 17.8285 3.70914 17.876 3.69062 17.7323C3.66845 17.5603 3.6665 17.3135 3.6665 16.8567H1.6665ZM1.6665 15.1433L1.6665 16.8567H3.6665L3.6665 15.1433H1.6665ZM2.1836 12.8963C1.86464 13.2488 1.75314 13.6543 1.70703 14.0121C1.66456 14.3416 1.6665 14.74 1.6665 15.1433H3.6665C3.6665 14.6865 3.66845 14.4398 3.69062 14.2677C3.70914 14.124 3.72692 14.1716 3.6665 14.2383L2.1836 12.8963ZM4.38241 12.1568C3.97606 12.1974 3.57649 12.2354 3.25116 12.3105C2.89942 12.3916 2.50401 12.5423 2.1836 12.8963L3.6665 14.2383C3.60464 14.3067 3.55489 14.2929 3.70056 14.2593C3.87263 14.2196 4.12222 14.1928 4.58141 14.1468L4.38241 12.1568ZM6.26701 11.9683C6.34044 11.791 6.48419 11.8376 6.1281 11.9265C5.77415 12.015 5.24256 12.0708 4.38241 12.1568L4.58141 14.1468C5.37459 14.0675 6.083 13.9993 6.61295 13.8669C7.14078 13.735 7.81235 13.4638 8.11477 12.7337L6.26701 11.9683ZM5.06755 10.5023C5.61498 11.1714 5.95146 11.5868 6.13923 11.8996C6.32813 12.2144 6.19357 12.1456 6.26701 11.9683L8.11477 12.7337C8.41719 12.0036 8.13406 11.3369 7.85409 10.8704C7.57297 10.402 7.12028 9.85282 6.61546 9.23583L5.06755 10.5023ZM4.03565 8.42451C4.01186 8.90144 4.18491 9.2876 4.37628 9.59367C4.55328 9.87677 4.80893 10.1862 5.06755 10.5023L6.61546 9.23583C6.32322 8.87864 6.16572 8.68313 6.07209 8.53339C5.99283 8.40661 6.03776 8.43204 6.03317 8.52413L4.03565 8.42451ZM5.25888 6.47C4.97365 6.75522 4.69056 7.03557 4.48761 7.29857C4.26721 7.58418 4.05933 7.94975 4.03565 8.42451L6.03317 8.52413C6.02868 8.61406 5.98246 8.63514 6.07099 8.52042C6.17696 8.38309 6.35006 8.20724 6.67309 7.88421L5.25888 6.47ZM6.47042 5.25845L5.25888 6.47L6.67309 7.88421L7.88463 6.67267L6.47042 5.25845ZM8.42493 4.03523C7.95017 4.05891 7.5846 4.26679 7.299 4.48718C7.03599 4.69014 6.75564 4.97323 6.47042 5.25845L7.88463 6.67267C8.20766 6.34964 8.38351 6.17654 8.52084 6.07057C8.63557 5.98204 8.61448 6.02826 8.52456 6.03274L8.42493 4.03523ZM10.5026 5.06699C10.1865 4.80842 9.87712 4.5528 9.59404 4.37581C9.28797 4.18445 8.90183 4.01144 8.42493 4.03523L8.52456 6.03274C8.43249 6.03734 8.40706 5.99242 8.53378 6.07165C8.68349 6.16525 8.87895 6.32271 9.23609 6.61491L10.5026 5.06699ZM11.9682 6.26618C12.1455 6.19276 12.2142 6.32728 11.8996 6.13845C11.5868 5.95074 11.1715 5.61433 10.5026 5.06699L9.23609 6.61491C9.85297 7.11962 10.4021 7.57226 10.8704 7.85334C11.3369 8.1333 12.0035 8.41634 12.7336 8.11394L11.9682 6.26618ZM12.1566 4.38226C12.0706 5.24219 12.0149 5.77359 11.9265 6.12741C11.8375 6.48327 11.791 6.33958 11.9682 6.26618L12.7336 8.11394C13.4636 7.81155 13.7349 7.14014 13.8668 6.61233C13.9992 6.08247 14.0674 5.37421 14.1467 4.58126L12.1566 4.38226ZM12.8961 2.18378C12.5421 2.50416 12.3914 2.8995 12.3103 3.25123C12.2353 3.57653 12.1972 3.97602 12.1566 4.38226L14.1467 4.58126C14.1926 4.12218 14.2195 3.87269 14.2591 3.70068C14.2927 3.55512 14.3065 3.60485 14.2382 3.66669L12.8961 2.18378ZM15.1431 1.66669C14.7398 1.66669 14.3414 1.66474 14.0119 1.70721C13.6541 1.75332 13.2486 1.86482 12.8961 2.18378L14.2382 3.66669C14.1714 3.7271 14.1238 3.70933 14.2675 3.6908C14.4396 3.66863 14.6863 3.66669 15.1431 3.66669V1.66669ZM16.8565 1.66669H15.1431V3.66669H16.8565V1.66669ZM19.1035 2.18378C18.7511 1.86482 18.3456 1.75332 17.9878 1.70721C17.6583 1.66474 17.2599 1.66669 16.8565 1.66669V3.66669C17.3134 3.66669 17.5601 3.66863 17.7321 3.6908C17.8759 3.70933 17.8283 3.7271 17.7615 3.66669L19.1035 2.18378ZM19.8431 4.38241C19.8024 3.97612 19.7644 3.57659 19.6894 3.25128C19.6083 2.89955 19.4576 2.50418 19.1035 2.18378L17.7615 3.66669C17.6932 3.60484 17.707 3.5551 17.7405 3.70071C17.7802 3.87275 17.8071 4.12228 17.853 4.58142L19.8431 4.38241ZM20.3332 16C20.3332 18.3933 18.3931 20.3334 15.9998 20.3334V22.3334C19.4976 22.3334 22.3332 19.4978 22.3332 16H20.3332ZM15.9998 11.6667C18.3931 11.6667 20.3332 13.6068 20.3332 16H22.3332C22.3332 12.5022 19.4976 9.66669 15.9998 9.66669V11.6667ZM11.6665 16C11.6665 13.6068 13.6066 11.6667 15.9998 11.6667V9.66669C12.502 9.66669 9.6665 12.5022 9.6665 16H11.6665ZM15.9998 20.3334C13.6066 20.3334 11.6665 18.3933 11.6665 16H9.6665C9.6665 19.4978 12.502 22.3334 15.9998 22.3334V20.3334Z" fill="#2B7FAF"/>
</svg>
