<svg width="375" height="241" viewBox="0 0 375 241" fill="none" xmlns="http://www.w3.org/2000/svg">
<rect opacity="0.4" y="36.3518" width="373.654" height="204.648" fill="#CCE0EC"/>
<path d="M193.913 0H309.853L193.913 225.18H90.9907L193.913 0Z" fill="#CF3B3D"/>
<path d="M292.241 0H375V225.18H190.057L292.241 0Z" fill="#00659F"/>
<path d="M262.767 211.992C302.923 211.992 335.477 188.316 335.477 159.11C335.477 129.903 302.923 106.227 262.767 106.227C222.611 106.227 190.058 129.903 190.058 159.11C190.058 188.316 222.611 211.992 262.767 211.992Z" fill="#F5F5F5"/>
<path d="M233.507 188.546L210.325 170.196L249.536 139.344L233.507 188.546Z" fill="#E0E0E0"/>
<path d="M200.044 169.069L209.491 176.484C209.687 176.62 209.904 176.69 210.124 176.69C210.344 176.69 210.561 176.62 210.758 176.484L223.787 166.134C223.864 166.099 223.93 166.033 223.978 165.943C224.025 165.854 224.05 165.747 224.05 165.637C224.05 165.527 224.025 165.42 223.978 165.331C223.93 165.242 223.864 165.175 223.787 165.14L214.341 157.721C214.144 157.586 213.927 157.515 213.707 157.515C213.487 157.515 213.27 157.586 213.074 157.721L200.044 168.072C199.968 168.107 199.902 168.175 199.855 168.264C199.808 168.354 199.783 168.461 199.783 168.571C199.783 168.68 199.808 168.788 199.855 168.877C199.902 168.966 199.968 169.034 200.044 169.069Z" fill="#E0E0E0"/>
<path d="M201.067 167.916C200.416 166.489 198.406 164.919 195.767 164.143C193.129 163.367 190.478 162.418 191.083 160.32C191.735 158.072 194.191 157.961 196.592 159.3C199.214 160.763 201.152 164.382 201.188 166.661L201.067 167.916Z" fill="#00659F"/>
<g opacity="0.1">
<path d="M201.067 167.916C200.416 166.489 198.406 164.919 195.767 164.143C193.129 163.367 190.478 162.418 191.083 160.32C191.735 158.072 194.191 157.961 196.592 159.3C199.214 160.763 201.152 164.382 201.188 166.661L201.067 167.916Z" fill="black"/>
</g>
<path d="M201.273 167.269C201.236 167.269 201.2 167.254 201.169 167.226C201.137 167.199 201.113 167.16 201.097 167.114C199.003 161.216 194.146 160.262 192.628 160.586C192.576 160.596 192.524 160.578 192.482 160.536C192.44 160.494 192.411 160.43 192.403 160.36C192.399 160.325 192.4 160.29 192.406 160.256C192.412 160.222 192.423 160.189 192.438 160.161C192.453 160.132 192.472 160.108 192.494 160.09C192.516 160.072 192.541 160.059 192.566 160.054C194.175 159.717 199.273 160.706 201.465 166.883C201.488 166.947 201.491 167.021 201.474 167.088C201.457 167.156 201.421 167.211 201.374 167.243C201.342 167.262 201.308 167.271 201.273 167.269Z" fill="white"/>
<path d="M201.067 167.916C201.067 167.916 199.807 161.118 196.611 157.464C195.663 156.378 194.657 155.016 193.943 154.081C192.426 152.067 193.061 149.872 195.162 149.916C198.289 149.974 200.575 153.557 201.566 158.245C202.556 162.932 201.067 167.916 201.067 167.916Z" fill="#00659F"/>
<path d="M201.566 165.278C201.517 165.278 201.469 165.253 201.432 165.208C201.395 165.163 201.372 165.101 201.368 165.034C200.781 156.387 195.934 152.041 194.615 151.579C194.565 151.562 194.521 151.518 194.495 151.456C194.468 151.395 194.46 151.322 194.473 151.254C194.486 151.185 194.519 151.126 194.564 151.09C194.609 151.053 194.662 151.043 194.713 151.061C196.315 151.619 201.159 156.129 201.762 164.985C201.766 165.056 201.75 165.127 201.716 165.182C201.683 165.237 201.635 165.271 201.583 165.278H201.566Z" fill="white"/>
<path d="M209.81 175.393L200.911 168.395L200.908 142.409L209.81 149.406V175.393Z" fill="#263238"/>
<path d="M209.81 149.406L222.526 139.411V165.398L209.81 175.393V149.406Z" fill="#37474F"/>
<path d="M222.526 139.411L209.81 149.406L200.908 142.409L213.627 132.413L222.526 139.411Z" fill="#455A64"/>
<path d="M215.305 149.088L217.034 147.726C217.259 147.549 217.441 147.629 217.441 147.908C217.425 148.078 217.379 148.24 217.309 148.382C217.238 148.523 217.144 148.64 217.034 148.724L215.305 150.085C215.08 150.263 214.897 150.183 214.897 149.903C214.914 149.734 214.959 149.572 215.03 149.43C215.101 149.288 215.195 149.171 215.305 149.088Z" fill="#263238"/>
<path d="M210.849 162.586L221.021 154.59L221.256 154.772L221.021 164.213L221.256 164.4L211.083 172.395L210.849 172.209V162.586Z" fill="#263238"/>
<path d="M211.083 162.768L221.256 154.772V164.4L211.083 172.395V162.768Z" fill="#455A64"/>
<path d="M215.07 161.265L216.8 159.908C217.025 159.73 217.207 159.81 217.207 160.085C217.191 160.256 217.145 160.418 217.075 160.561C217.004 160.703 216.91 160.821 216.8 160.905L215.07 162.267C214.845 162.444 214.663 162.36 214.663 162.085C214.68 161.915 214.725 161.752 214.796 161.61C214.867 161.468 214.96 161.349 215.07 161.265Z" fill="#263238"/>
<path d="M210.849 150.613L221.021 142.617L221.256 142.799L221.021 152.24L221.256 152.426L211.083 160.422L210.849 160.236V150.613Z" fill="#263238"/>
<path d="M211.083 150.795L221.256 142.799V152.427L211.083 160.422V150.795Z" fill="#455A64"/>
<path d="M215.07 149.291L216.8 147.934C217.025 147.757 217.207 147.837 217.207 148.112C217.191 148.282 217.145 148.445 217.075 148.588C217.004 148.73 216.91 148.848 216.8 148.932L215.07 150.294C214.845 150.471 214.663 150.387 214.663 150.112C214.68 149.941 214.725 149.779 214.796 149.636C214.867 149.494 214.96 149.376 215.07 149.291Z" fill="#263238"/>
<path d="M209.81 148.302L200.911 141.304L200.908 115.313L209.81 122.311V148.302Z" fill="#263238"/>
<path d="M209.81 122.311L222.526 112.316V138.307L209.81 148.302V122.311Z" fill="#37474F"/>
<path d="M222.526 112.315L209.81 122.311L200.908 115.313L213.627 105.318L222.526 112.315Z" fill="#455A64"/>
<path d="M211.083 123.309L221.256 115.313L221.49 115.499V125.123L211.318 133.123L211.083 132.936V123.309Z" fill="#263238"/>
<path d="M215.305 121.992L217.034 120.631C217.259 120.453 217.441 120.537 217.441 120.812C217.425 120.983 217.379 121.145 217.309 121.288C217.238 121.43 217.144 121.548 217.034 121.633L215.305 122.99C215.08 123.167 214.897 123.087 214.897 122.812C214.914 122.642 214.959 122.479 215.03 122.337C215.1 122.194 215.195 122.076 215.305 121.992Z" fill="#263238"/>
<path d="M210.849 135.491L221.021 127.495V137.123L221.256 137.304L211.083 145.3L210.849 145.118V135.491Z" fill="#263238"/>
<path d="M211.083 135.677L221.256 127.677V137.304L211.083 145.3V135.677Z" fill="#455A64"/>
<path d="M215.07 134.173L216.8 132.812C217.025 132.635 217.207 132.714 217.207 132.994C217.191 133.164 217.145 133.326 217.074 133.467C217.004 133.609 216.91 133.726 216.8 133.81L215.07 135.171C214.845 135.349 214.663 135.269 214.663 134.989C214.68 134.82 214.725 134.657 214.796 134.516C214.866 134.374 214.96 134.257 215.07 134.173Z" fill="#263238"/>
<path d="M211.083 123.309L221.256 115.313V124.941L211.083 132.936V123.309Z" fill="#263238"/>
<path d="M226.343 120.067L220.773 115.695V124.174L226.343 128.55V120.067Z" fill="#263238"/>
<path d="M214.897 134.307V122.311L217.08 120.59L217.441 121.313L223.8 116.311V127.309L214.897 134.307Z" fill="#00659F"/>
<g opacity="0.2">
<path d="M214.897 134.307V122.311L217.08 120.59L217.441 121.313L223.8 116.311V127.309L214.897 134.307Z" fill="black"/>
</g>
<path d="M214.897 134.306L215.533 123.81L224.435 116.812L223.8 127.309L214.897 134.306Z" fill="#00659F"/>
<path d="M216.168 128.067L211.314 124.253V132.732L216.168 136.546V128.067Z" fill="#37474F"/>
<path d="M216.167 127.309L226.343 119.313V128.936L216.167 136.936V127.309Z" fill="#455A64"/>
<path d="M220.158 125.805L221.888 124.444C222.113 124.267 222.295 124.351 222.295 124.626C222.278 124.796 222.233 124.959 222.162 125.101C222.091 125.243 221.998 125.362 221.888 125.446L220.158 126.803C219.933 126.981 219.751 126.901 219.751 126.626C219.768 126.456 219.813 126.293 219.884 126.151C219.955 126.008 220.048 125.89 220.158 125.805Z" fill="#263238"/>
<path d="M216.168 127.309L215.829 127.043V136.67L216.168 136.937V127.309Z" fill="#263238"/>
<path d="M215.829 127.043L226.005 119.048L226.344 119.314L216.168 127.309L215.829 127.043Z" fill="#37474F"/>
<path d="M301.148 57.8942L299.826 56.8477L232.338 109.885V186.706C232.32 186.944 232.348 187.184 232.42 187.402C232.492 187.62 232.605 187.808 232.748 187.947L234.071 188.994C234.231 189.094 234.408 189.135 234.584 189.112C234.76 189.088 234.928 189.002 235.071 188.861L299.728 138.027C300.139 137.663 300.48 137.171 300.725 136.594C300.97 136.016 301.112 135.368 301.139 134.701L301.148 57.8942Z" fill="#E6E6E6"/>
<path d="M233.659 187.752C233.659 188.976 234.288 189.473 235.07 188.861L299.727 138.027C300.137 137.663 300.479 137.172 300.724 136.594C300.969 136.016 301.111 135.368 301.137 134.701V57.8943L233.659 110.936V187.752Z" fill="#FAFAFA"/>
<path d="M300.822 58.6483V134.71C300.795 135.299 300.668 135.871 300.452 136.382C300.235 136.893 299.935 137.329 299.574 137.655L234.916 188.475C234.776 188.597 234.614 188.667 234.447 188.679C234.037 188.679 233.995 188.032 233.995 187.752V111.189L300.822 58.6483ZM301.147 57.8811L233.659 110.937V187.752C233.659 188.639 233.985 189.123 234.438 189.123C234.661 189.111 234.879 189.021 235.07 188.861L299.727 138.027C300.137 137.663 300.479 137.172 300.724 136.594C300.969 136.016 301.111 135.368 301.137 134.701V57.8944L301.147 57.8811Z" fill="#E0E0E0"/>
<path d="M233.659 110.936V119.251L301.137 66.2091V57.8943L233.659 110.936Z" fill="#00659F"/>
<path d="M275.998 80.9144V82.6882C275.998 83.0519 276.19 83.2027 276.421 83.0208L297.167 66.7104V63.6062L276.421 79.9344C276.3 80.0426 276.199 80.1873 276.126 80.3572C276.052 80.5271 276.009 80.7178 275.998 80.9144Z" fill="#FAFAFA"/>
<path d="M299.392 61.8634C299.626 61.6771 299.815 61.8279 299.815 62.196V63.9698C299.807 64.1698 299.765 64.3645 299.692 64.538C299.618 64.7114 299.515 64.8586 299.392 64.9676L297.167 66.7148V63.6106L299.392 61.8634Z" fill="#455A64"/>
<path d="M299.229 64.3158L298.978 64.2094C299.006 64.0645 299.02 63.9155 299.021 63.7658C299.032 63.6294 299.017 63.4914 298.977 63.3654C298.937 63.2394 298.873 63.1298 298.793 63.0473C298.738 63.0032 298.676 62.98 298.612 62.98C298.548 62.98 298.486 63.0032 298.431 63.0473C298.273 63.2123 298.146 63.4256 298.06 63.6698C297.974 63.9141 297.932 64.1825 297.936 64.4533C297.924 64.5898 297.939 64.7281 297.979 64.8543C298.019 64.9804 298.083 65.09 298.164 65.1718C298.211 65.2109 298.265 65.2309 298.32 65.2295C298.392 65.2274 298.461 65.1999 298.522 65.1496C298.712 64.9734 298.853 64.7158 298.923 64.4178L299.174 64.5243H299.193C299.213 64.5247 299.232 64.5168 299.247 64.5017C299.263 64.4865 299.275 64.4649 299.281 64.44C299.283 64.4146 299.278 64.3892 299.269 64.3671C299.26 64.345 299.246 64.3272 299.229 64.3158ZM298.431 64.9634C298.406 64.9892 298.377 65.005 298.346 65.0089C298.314 65.0128 298.283 65.0047 298.255 64.9855C298.205 64.923 298.166 64.8447 298.143 64.7574C298.12 64.6701 298.112 64.5764 298.122 64.4844C298.118 64.2579 298.153 64.0334 298.222 63.8276C298.292 63.6218 298.394 63.44 298.522 63.2957C298.557 63.2667 298.596 63.2499 298.636 63.2469C298.66 63.2468 298.682 63.2561 298.702 63.2735C298.751 63.3367 298.789 63.4151 298.813 63.5022C298.836 63.5894 298.844 63.6827 298.835 63.7747C298.838 64.0014 298.803 64.2261 298.733 64.4319C298.663 64.6377 298.56 64.8193 298.431 64.9634Z" fill="#FAFAFA"/>
<path d="M299.415 51.5928C299.254 51.4858 299.075 51.4408 298.897 51.4627C298.719 51.4846 298.549 51.5725 298.405 51.717L233.748 102.551C233.337 102.915 232.995 103.405 232.75 103.983C232.505 104.561 232.363 105.21 232.337 105.877V109.899L233.66 110.95L301.148 57.8944V53.8722C301.168 53.6352 301.14 53.3953 301.069 53.1777C300.997 52.96 300.884 52.7726 300.741 52.635C300.496 52.4398 299.646 51.7835 299.415 51.5928Z" fill="#263238"/>
<path d="M233.659 106.914C233.685 106.248 233.826 105.599 234.071 105.021C234.316 104.443 234.658 103.952 235.07 103.589L299.727 52.7637C300.506 52.1517 301.137 52.6484 301.137 53.8724V57.8945L233.659 110.937V106.914Z" fill="#37474F"/>
<path d="M300.744 52.6439C300.583 52.5345 300.403 52.4878 300.224 52.5089C300.044 52.53 299.873 52.6182 299.728 52.7636L235.07 103.584C234.654 103.938 234.311 104.431 234.074 105.016L232.745 103.974C232.983 103.387 233.327 102.893 233.745 102.537L298.405 51.7126C298.55 51.5689 298.72 51.4817 298.898 51.4606C299.076 51.4395 299.255 51.4852 299.415 51.5929C299.646 51.7836 300.493 52.4443 300.718 52.6306L300.744 52.6439Z" fill="#455A64"/>
<path d="M293.2 59.9787C293.009 60.1513 292.851 60.3824 292.738 60.6536C292.624 60.9248 292.56 61.2284 292.548 61.5399C292.548 62.112 292.845 62.3471 293.2 62.0588C293.391 61.8862 293.549 61.655 293.662 61.3838C293.775 61.1127 293.84 60.8091 293.851 60.4976C293.861 59.9166 293.565 59.6815 293.2 59.9787Z" fill="#00659F"/>
<path d="M295.516 58.1559C295.325 58.3275 295.167 58.5579 295.054 58.8283C294.941 59.0988 294.876 59.4017 294.865 59.7126C294.865 60.2892 295.161 60.5198 295.516 60.236C295.707 60.0629 295.865 59.8316 295.978 59.5605C296.091 59.2894 296.156 58.9861 296.168 58.6748C296.177 58.0982 295.881 57.8676 295.516 58.1559Z" fill="#00659F"/>
<path d="M297.829 56.3379C297.638 56.5105 297.48 56.7417 297.366 57.0129C297.253 57.284 297.188 57.5876 297.177 57.8991C297.177 58.4757 297.474 58.7063 297.829 58.418C298.02 58.2462 298.179 58.0152 298.292 57.7439C298.405 57.4725 298.47 57.1686 298.48 56.8568C298.493 56.2847 298.197 56.0496 297.829 56.3379Z" fill="#00659F"/>
<path d="M235.07 188.861L246.89 179.571V108.848L233.659 119.251V187.753C233.659 188.977 234.288 189.469 235.07 188.861Z" fill="#F5F5F5"/>
<path d="M246.565 109.615V179.314L234.907 188.475C234.766 188.597 234.604 188.667 234.438 188.679C234.027 188.679 233.985 188.032 233.985 187.753V119.504L246.565 109.615ZM246.89 108.848L233.659 119.251V187.753C233.659 188.639 233.985 189.123 234.438 189.123C234.661 189.111 234.879 189.021 235.07 188.861L246.89 179.571V108.848Z" fill="#E0E0E0"/>
<path d="M238.05 119.956L244.383 114.967C244.614 114.781 244.803 114.932 244.803 115.3V116.049C244.795 116.249 244.752 116.443 244.68 116.616C244.607 116.789 244.505 116.937 244.383 117.047L238.05 122.027C237.816 122.213 237.627 122.063 237.627 121.695V120.954C237.636 120.754 237.678 120.56 237.752 120.387C237.826 120.214 237.928 120.066 238.05 119.956Z" fill="#E0E0E0"/>
<path d="M236.305 121.996V122.746C236.297 122.946 236.254 123.14 236.181 123.314C236.107 123.487 236.005 123.634 235.881 123.744L235.406 124.116C235.171 124.302 234.982 124.152 234.982 123.784V123.034C234.99 122.834 235.033 122.64 235.106 122.466C235.18 122.293 235.283 122.146 235.406 122.036L235.881 121.664C236.116 121.478 236.305 121.619 236.305 121.996Z" fill="#00659F"/>
<path d="M238.05 124.103L244.383 119.123C244.614 118.937 244.803 119.087 244.803 119.451V120.2C244.795 120.4 244.752 120.595 244.68 120.769C244.607 120.943 244.505 121.091 244.383 121.203L238.05 126.183C237.816 126.364 237.627 126.218 237.627 125.85V125.101C237.635 124.901 237.678 124.706 237.751 124.533C237.825 124.36 237.927 124.212 238.05 124.103Z" fill="#E0E0E0"/>
<path d="M236.305 126.138V126.888C236.297 127.088 236.255 127.283 236.181 127.456C236.108 127.629 236.005 127.777 235.881 127.886L235.406 128.263C235.171 128.444 234.982 128.298 234.982 127.93V127.18C234.99 126.98 235.033 126.786 235.106 126.612C235.18 126.439 235.282 126.292 235.406 126.183L235.881 125.806C236.116 125.611 236.305 125.77 236.305 126.138Z" fill="#00659F"/>
<path d="M238.05 128.245L244.383 123.265C244.614 123.083 244.803 123.229 244.803 123.597V124.347C244.795 124.546 244.753 124.741 244.68 124.914C244.607 125.087 244.505 125.235 244.383 125.345L238.05 130.325C237.816 130.511 237.627 130.36 237.627 129.996V129.243C237.636 129.043 237.679 128.849 237.752 128.676C237.826 128.503 237.928 128.355 238.05 128.245Z" fill="#E0E0E0"/>
<path d="M236.305 130.285V131.034C236.297 131.234 236.255 131.429 236.181 131.602C236.108 131.776 236.005 131.923 235.881 132.032L235.406 132.409C235.171 132.591 234.982 132.44 234.982 132.076V131.322C234.991 131.123 235.034 130.928 235.107 130.755C235.181 130.582 235.283 130.434 235.406 130.325L235.881 129.952C236.116 129.77 236.305 129.917 236.305 130.285Z" fill="#00659F"/>
<path d="M238.05 141.992L244.383 137.007C244.614 136.826 244.803 136.972 244.803 137.34V138.089C244.795 138.289 244.753 138.483 244.68 138.657C244.607 138.83 244.505 138.978 244.383 139.087L238.05 144.072C237.816 144.254 237.627 144.107 237.627 143.739V142.99C237.635 142.79 237.678 142.595 237.751 142.422C237.825 142.249 237.927 142.101 238.05 141.992Z" fill="#E0E0E0"/>
<path d="M236.305 144.028V144.777C236.297 144.977 236.255 145.172 236.181 145.345C236.108 145.519 236.005 145.666 235.881 145.775L235.406 146.152C235.171 146.334 234.982 146.187 234.982 145.819V145.07C234.99 144.87 235.033 144.675 235.106 144.502C235.18 144.328 235.282 144.181 235.406 144.072L235.881 143.695C236.116 143.513 236.305 143.659 236.305 144.028Z" fill="#00659F"/>
<path d="M238.05 145.659L244.383 140.688C244.614 140.506 244.803 140.653 244.803 141.021V141.77C244.795 141.97 244.753 142.164 244.68 142.337C244.607 142.511 244.505 142.658 244.383 142.768L238.05 147.739C237.816 147.925 237.627 147.775 237.627 147.406V146.657C237.636 146.457 237.679 146.263 237.752 146.09C237.826 145.917 237.928 145.77 238.05 145.659Z" fill="#E0E0E0"/>
<path d="M236.305 147.699V148.449C236.297 148.649 236.255 148.843 236.181 149.017C236.108 149.19 236.005 149.338 235.881 149.447L235.406 149.819C235.171 150.005 234.982 149.854 234.982 149.486V148.737C234.991 148.537 235.034 148.343 235.107 148.17C235.181 147.996 235.283 147.849 235.406 147.739L235.881 147.367C236.116 147.185 236.305 147.34 236.305 147.699Z" fill="#00659F"/>
<path d="M238.05 149.331L244.383 144.351C244.614 144.165 244.803 144.316 244.803 144.684V145.433C244.795 145.633 244.752 145.827 244.68 146C244.607 146.173 244.505 146.321 244.383 146.431L238.05 151.411C237.816 151.597 237.627 151.447 237.627 151.078V150.329C237.636 150.129 237.678 149.935 237.752 149.762C237.826 149.589 237.928 149.441 238.05 149.331Z" fill="#E0E0E0"/>
<path d="M236.305 151.371V152.12C236.297 152.32 236.254 152.515 236.181 152.688C236.107 152.862 236.005 153.009 235.881 153.118L235.406 153.491C235.171 153.677 234.982 153.526 234.982 153.158V152.409C234.99 152.209 235.033 152.014 235.106 151.841C235.18 151.667 235.283 151.52 235.406 151.411L235.881 151.038C236.116 150.852 236.305 151.003 236.305 151.371Z" fill="#00659F"/>
<path d="M237.627 132.772V134.063L238.451 132.772H237.627Z" fill="#00659F"/>
<path d="M238.953 132.502C238.953 132.746 239.076 132.839 239.233 132.715L244.523 128.573C244.604 128.5 244.672 128.402 244.721 128.286C244.77 128.17 244.798 128.041 244.803 127.908C244.803 127.664 244.679 127.566 244.523 127.69L239.233 131.846C239.151 131.917 239.084 132.014 239.035 132.128C238.986 132.242 238.958 132.37 238.953 132.502Z" fill="#E0E0E0"/>
<path d="M237.627 134.848V136.143L238.451 134.848H237.627Z" fill="#00659F"/>
<path d="M238.953 134.582C238.953 134.821 239.076 134.919 239.233 134.794L244.523 130.648C244.605 130.576 244.673 130.479 244.721 130.364C244.77 130.249 244.798 130.12 244.803 129.987C244.803 129.743 244.679 129.646 244.523 129.77L239.233 133.925C239.151 133.997 239.084 134.094 239.035 134.208C238.986 134.322 238.958 134.45 238.953 134.582Z" fill="#E0E0E0"/>
<path d="M237.627 136.928V138.223L238.451 136.928H237.627Z" fill="#00659F"/>
<path d="M238.953 136.662C238.953 136.901 239.076 136.999 239.233 136.874L244.523 132.728C244.605 132.656 244.673 132.559 244.721 132.444C244.77 132.329 244.798 132.2 244.803 132.067C244.803 131.823 244.679 131.726 244.523 131.85L239.233 136.005C239.151 136.077 239.084 136.174 239.035 136.288C238.986 136.402 238.958 136.53 238.953 136.662Z" fill="#E0E0E0"/>
<path d="M237.627 139.007V140.302L238.451 139.007H237.627Z" fill="#00659F"/>
<path d="M238.953 138.741C238.953 138.981 239.076 139.078 239.233 138.954L244.523 134.808C244.605 134.736 244.673 134.638 244.721 134.524C244.77 134.409 244.798 134.28 244.803 134.147C244.803 133.903 244.679 133.805 244.523 133.93L239.233 138.085C239.151 138.157 239.084 138.253 239.035 138.367C238.986 138.481 238.958 138.61 238.953 138.741Z" fill="#E0E0E0"/>
<path d="M250.858 111.327V122.165C250.858 122.608 251.092 122.804 251.382 122.577L260.135 115.695C260.288 115.561 260.415 115.379 260.506 115.164C260.597 114.95 260.65 114.709 260.659 114.462V105.553C260.659 105.11 260.425 104.914 260.135 105.141L255.057 109.132C254.767 109.358 254.532 109.176 254.532 108.724V108.44C254.532 107.996 254.301 107.801 254.011 108.028L251.382 110.09C251.23 110.225 251.103 110.408 251.011 110.623C250.92 110.838 250.868 111.079 250.858 111.327Z" fill="#00659F"/>
<path d="M252.582 124.209V124.905C252.582 125.242 252.757 125.38 252.972 125.211L259.539 120.05C259.653 119.949 259.748 119.812 259.816 119.652C259.884 119.492 259.923 119.312 259.93 119.127V118.431C259.93 118.094 259.754 117.956 259.539 118.125L252.972 123.287C252.859 123.388 252.764 123.524 252.696 123.684C252.628 123.845 252.589 124.024 252.582 124.209Z" fill="#E0E0E0"/>
<path d="M263.038 101.814V112.653C263.038 113.096 263.272 113.287 263.559 113.061L272.311 106.183C272.463 106.047 272.59 105.865 272.681 105.651C272.772 105.437 272.825 105.197 272.836 104.95V96.0362C272.836 95.5927 272.601 95.3976 272.311 95.6238L267.233 99.6149C266.943 99.8411 266.712 99.6548 266.712 99.2025V98.9187C266.712 98.4752 266.477 98.2845 266.187 98.5107L263.559 100.577C263.406 100.713 263.28 100.896 263.189 101.111C263.099 101.326 263.047 101.567 263.038 101.814Z" fill="#00659F"/>
<path d="M264.75 114.697V115.411C264.75 115.753 264.926 115.89 265.141 115.722L271.708 110.533C271.822 110.431 271.916 110.294 271.984 110.133C272.052 109.972 272.091 109.792 272.099 109.606V108.914C272.099 108.573 271.923 108.435 271.708 108.608L265.141 113.77C265.028 113.873 264.933 114.01 264.865 114.171C264.797 114.331 264.758 114.512 264.75 114.697Z" fill="#E0E0E0"/>
<path d="M250.858 133.101V143.939C250.858 144.382 251.092 144.578 251.382 144.351L260.135 137.469C260.285 137.336 260.411 137.157 260.502 136.946C260.593 136.735 260.647 136.498 260.659 136.254V127.34C260.659 126.897 260.425 126.706 260.135 126.932L255.057 130.923C254.767 131.15 254.532 130.968 254.532 130.515V130.232C254.532 129.788 254.301 129.593 254.011 129.819L251.382 131.886C251.232 132.019 251.106 132.198 251.015 132.409C250.924 132.62 250.87 132.857 250.858 133.101Z" fill="#00659F"/>
<path d="M252.582 145.983V146.679C252.582 147.016 252.757 147.154 252.972 146.985L259.539 141.824C259.653 141.722 259.747 141.586 259.815 141.426C259.883 141.265 259.922 141.086 259.93 140.901V140.205C259.93 139.868 259.754 139.73 259.539 139.899L252.972 145.061C252.859 145.162 252.764 145.298 252.696 145.458C252.628 145.619 252.589 145.798 252.582 145.983Z" fill="#E0E0E0"/>
<path d="M263.038 123.584V134.422C263.038 134.866 263.272 135.061 263.559 134.835L272.311 127.952C272.464 127.818 272.59 127.637 272.682 127.424C272.773 127.21 272.826 126.97 272.836 126.724V117.81C272.836 117.367 272.601 117.172 272.311 117.398L267.233 121.389C266.943 121.615 266.712 121.429 266.712 120.977V120.693C266.712 120.249 266.477 120.054 266.187 120.285L263.559 122.351C263.407 122.486 263.28 122.669 263.19 122.883C263.099 123.097 263.047 123.337 263.038 123.584Z" fill="#00659F"/>
<path d="M264.75 136.471V137.162C264.75 137.504 264.926 137.641 265.141 137.468L271.708 132.311C271.822 132.209 271.916 132.072 271.984 131.911C272.052 131.75 272.091 131.569 272.099 131.384V130.692C272.099 130.351 271.923 130.213 271.708 130.382L265.141 135.544C265.028 135.646 264.933 135.783 264.865 135.944C264.797 136.105 264.758 136.285 264.75 136.471Z" fill="#E0E0E0"/>
<path d="M275.344 91.7746V102.613C275.344 103.056 275.578 103.251 275.865 103.025L284.621 96.1427C284.772 96.0073 284.899 95.8252 284.989 95.611C285.08 95.3968 285.132 95.1566 285.142 94.9099V86.0008C285.142 85.5573 284.907 85.3622 284.621 85.5884L279.539 89.5795C279.253 89.8101 279.018 89.6238 279.018 89.1715V88.8877C279.018 88.4442 278.783 88.2491 278.494 88.4753L275.865 90.5462C275.713 90.6809 275.587 90.8623 275.497 91.0757C275.406 91.2891 275.354 91.5285 275.344 91.7746Z" fill="#00659F"/>
<path d="M276.92 105.181V105.877C276.92 106.214 277.096 106.351 277.315 106.183L283.885 101.021C283.999 100.921 284.095 100.785 284.163 100.624C284.232 100.464 284.271 100.284 284.279 100.099V99.4067C284.279 99.0653 284.103 98.9278 283.885 99.0963L277.321 104.258C277.205 104.357 277.108 104.493 277.039 104.653C276.969 104.814 276.928 104.994 276.92 105.181Z" fill="#E0E0E0"/>
<path d="M287.369 82.7856V93.6238C287.369 94.0672 287.604 94.2579 287.894 94.0318L296.646 87.1537C296.798 87.0183 296.924 86.8362 297.015 86.622C297.105 86.4078 297.157 86.1677 297.167 85.9209V77.0074C297.167 76.5639 296.936 76.3688 296.646 76.595L291.568 80.5861C291.278 80.8123 291.043 80.626 291.043 80.1737V79.8899C291.043 79.4464 290.812 79.2557 290.522 79.4819L287.894 81.5484C287.74 81.6832 287.613 81.8657 287.522 82.0808C287.43 82.296 287.378 82.5376 287.369 82.7856Z" fill="#00659F"/>
<path d="M289.096 95.6682V96.3423C289.096 96.6837 289.268 96.8212 289.487 96.6527L296.053 91.4908C296.167 91.389 296.261 91.2527 296.329 91.0926C296.397 90.9324 296.436 90.753 296.444 90.5684V89.8722C296.444 89.5307 296.268 89.3933 296.053 89.5662L289.487 94.7236C289.371 94.8271 289.275 94.9668 289.207 95.1312C289.139 95.2955 289.101 95.4797 289.096 95.6682Z" fill="#E0E0E0"/>
<path d="M276.92 126.941V127.637C276.92 127.974 277.096 128.112 277.315 127.943L283.885 122.786C283.999 122.685 284.095 122.549 284.163 122.389C284.232 122.229 284.271 122.048 284.279 121.863V121.176C284.279 120.839 284.103 120.701 283.885 120.87L277.321 126.032C277.206 126.13 277.11 126.263 277.041 126.421C276.971 126.579 276.93 126.757 276.92 126.941Z" fill="#E0E0E0"/>
<path d="M277.086 111.713L283.884 106.36C284.193 106.116 284.447 106.316 284.447 106.803V117.509C284.437 117.775 284.38 118.034 284.282 118.265C284.185 118.496 284.048 118.693 283.884 118.839L277.086 124.191C276.76 124.435 276.522 124.24 276.522 123.748V113.043C276.533 112.777 276.59 112.517 276.688 112.286C276.786 112.055 276.922 111.859 277.086 111.713Z" fill="#FAFAFA"/>
<path d="M276.832 124.52C276.752 124.521 276.673 124.493 276.604 124.44C276.521 124.365 276.455 124.261 276.412 124.139C276.369 124.018 276.351 123.883 276.359 123.748V113.043C276.371 112.737 276.436 112.439 276.549 112.175C276.663 111.91 276.821 111.686 277.011 111.522L283.822 106.169C283.903 106.092 283.998 106.047 284.097 106.037C284.195 106.028 284.294 106.055 284.382 106.116C284.465 106.191 284.531 106.293 284.574 106.414C284.618 106.535 284.637 106.669 284.63 106.804V117.509C284.618 117.815 284.553 118.112 284.44 118.377C284.327 118.642 284.168 118.866 283.978 119.03L277.167 124.387C277.066 124.47 276.95 124.516 276.832 124.52ZM284.148 106.48C284.087 106.483 284.029 106.509 283.978 106.555L277.167 111.908C277.028 112.033 276.911 112.201 276.828 112.398C276.744 112.595 276.695 112.816 276.685 113.043V123.748C276.685 123.903 276.715 124.014 276.767 124.054C276.806 124.072 276.849 124.076 276.89 124.067C276.932 124.058 276.971 124.035 277.004 124.001L283.815 118.648C283.955 118.521 284.071 118.353 284.154 118.155C284.238 117.957 284.287 117.736 284.298 117.509V106.804C284.302 106.747 284.297 106.69 284.283 106.636C284.268 106.583 284.244 106.536 284.213 106.498C284.193 106.484 284.17 106.478 284.148 106.48Z" fill="#EBEBEB"/>
<path d="M284.698 107.806L283.181 108.998C283.016 109.144 282.879 109.34 282.78 109.571C282.682 109.802 282.625 110.062 282.614 110.329V112.715C282.614 113.207 282.868 113.406 283.181 113.158L284.698 111.965C284.863 111.819 284.999 111.623 285.097 111.392C285.195 111.16 285.251 110.901 285.262 110.635V108.249C285.262 107.761 285.008 107.562 284.698 107.806Z" fill="#00659F"/>
<path d="M277.604 112.87L281.018 110.209C281.171 110.089 281.298 110.187 281.298 110.435V110.582C281.292 110.714 281.264 110.844 281.216 110.959C281.167 111.075 281.099 111.173 281.018 111.247L277.604 113.908C277.448 114.032 277.321 113.934 277.324 113.686V113.535C277.329 113.402 277.357 113.272 277.406 113.157C277.455 113.041 277.523 112.943 277.604 112.87Z" fill="#EBEBEB"/>
<path d="M277.604 114.968L281.018 112.307C281.171 112.183 281.298 112.285 281.298 112.529V112.675C281.293 112.808 281.265 112.938 281.217 113.053C281.168 113.169 281.1 113.267 281.018 113.34L277.604 116.001C277.448 116.125 277.321 116.001 277.324 115.779V115.624C277.33 115.492 277.359 115.365 277.407 115.251C277.456 115.137 277.523 115.04 277.604 114.968Z" fill="#EBEBEB"/>
<path d="M277.604 117.025L281.018 114.365C281.171 114.245 281.298 114.342 281.298 114.586V114.737C281.292 114.87 281.264 114.999 281.216 115.114C281.167 115.23 281.099 115.328 281.018 115.402L277.604 118.063C277.448 118.187 277.321 118.09 277.324 117.841V117.69C277.329 117.557 277.357 117.428 277.406 117.312C277.454 117.196 277.522 117.098 277.604 117.025Z" fill="#EBEBEB"/>
<path d="M277.604 119.101L283.272 114.666C283.428 114.546 283.556 114.666 283.556 114.888V115.038C283.55 115.172 283.521 115.302 283.472 115.417C283.423 115.533 283.354 115.631 283.272 115.704L277.604 120.138C277.448 120.258 277.321 120.16 277.324 119.917V119.761C277.33 119.629 277.358 119.5 277.407 119.386C277.455 119.271 277.523 119.173 277.604 119.101Z" fill="#EBEBEB"/>
<path d="M277.604 121.176L283.272 116.741C283.428 116.617 283.556 116.741 283.556 116.963V117.109C283.55 117.243 283.522 117.373 283.472 117.488C283.423 117.604 283.355 117.702 283.272 117.775L277.604 122.209C277.448 122.333 277.321 122.231 277.324 121.987V121.837C277.329 121.704 277.357 121.575 277.406 121.46C277.454 121.345 277.522 121.248 277.604 121.176Z" fill="#EBEBEB"/>
<path d="M288.829 117.588V118.28C288.829 118.622 289.005 118.759 289.219 118.591L295.786 113.429C295.9 113.327 295.995 113.19 296.063 113.029C296.131 112.868 296.17 112.687 296.177 112.502V111.81C296.177 111.469 296.004 111.331 295.786 111.5L289.219 116.661C289.106 116.764 289.011 116.901 288.943 117.062C288.875 117.223 288.836 117.403 288.829 117.588Z" fill="#E0E0E0"/>
<path d="M288.995 102.356L295.802 97.0031C296.128 96.7547 296.369 96.9543 296.369 97.4465V108.152C296.358 108.418 296.3 108.678 296.202 108.909C296.103 109.14 295.967 109.336 295.802 109.482L288.995 114.835C288.669 115.078 288.428 114.879 288.428 114.391V103.686C288.438 103.419 288.495 103.159 288.594 102.928C288.692 102.697 288.83 102.501 288.995 102.356Z" fill="#FAFAFA"/>
<path d="M288.741 115.158C288.661 115.159 288.582 115.132 288.513 115.078C288.43 115.004 288.364 114.901 288.321 114.78C288.277 114.659 288.258 114.525 288.265 114.391V103.686C288.276 103.379 288.341 103.08 288.454 102.815C288.568 102.549 288.726 102.325 288.917 102.16L295.724 96.8078C295.804 96.7232 295.9 96.6729 296 96.6633C296.101 96.6537 296.201 96.6853 296.288 96.754C296.376 96.8226 296.446 96.9253 296.49 97.0487C296.534 97.1721 296.55 97.3106 296.535 97.4464V108.151C296.524 108.458 296.459 108.756 296.346 109.02C296.233 109.285 296.074 109.509 295.884 109.673L289.076 115.025C288.975 115.108 288.859 115.154 288.741 115.158ZM289.066 102.546C288.926 102.672 288.809 102.84 288.725 103.038C288.641 103.236 288.591 103.458 288.581 103.686V114.391C288.576 114.447 288.581 114.505 288.596 114.558C288.611 114.611 288.635 114.659 288.666 114.697C288.706 114.715 288.749 114.719 288.79 114.709C288.832 114.699 288.871 114.675 288.904 114.639L295.711 109.287C295.851 109.162 295.968 108.994 296.053 108.797C296.137 108.6 296.186 108.379 296.197 108.151V97.4464C296.214 97.3885 296.216 97.3238 296.201 97.2645C296.186 97.2052 296.156 97.1553 296.116 97.1243C296.076 97.0932 296.029 97.0831 295.984 97.0959C295.939 97.1087 295.899 97.1434 295.871 97.1936L289.066 102.546Z" fill="#EBEBEB"/>
<path d="M296.604 98.4489L295.086 99.6418C294.922 99.7877 294.785 99.9842 294.687 100.215C294.59 100.446 294.533 100.706 294.522 100.972V103.358C294.522 103.846 294.777 104.045 295.086 103.801L296.604 102.609C296.768 102.463 296.905 102.266 297.004 102.035C297.102 101.804 297.159 101.545 297.171 101.278V98.8923C297.171 98.4001 296.913 98.2005 296.604 98.4489Z" fill="#00659F"/>
<path d="M289.513 103.509L292.923 100.848C293.08 100.724 293.207 100.848 293.207 101.07V101.22C293.202 101.354 293.174 101.484 293.124 101.6C293.075 101.716 293.006 101.813 292.923 101.886L289.513 104.546C289.357 104.67 289.229 104.568 289.229 104.325V104.169C289.236 104.037 289.264 103.908 289.314 103.793C289.363 103.678 289.431 103.581 289.513 103.509Z" fill="#EBEBEB"/>
<path d="M289.513 105.588L292.923 102.928C293.08 102.808 293.207 102.928 293.207 103.149V103.3C293.201 103.434 293.172 103.563 293.123 103.679C293.074 103.794 293.006 103.893 292.923 103.965L289.513 106.626C289.357 106.75 289.229 106.653 289.229 106.404V106.254C289.235 106.12 289.263 105.99 289.313 105.875C289.362 105.759 289.43 105.661 289.513 105.588Z" fill="#EBEBEB"/>
<path d="M289.513 107.664L292.923 105.003C293.08 104.879 293.207 105.003 293.207 105.225V105.371C293.201 105.505 293.173 105.634 293.124 105.75C293.074 105.866 293.006 105.964 292.923 106.036L289.513 108.697C289.357 108.817 289.229 108.719 289.229 108.475V108.316C289.237 108.185 289.266 108.058 289.315 107.945C289.364 107.831 289.432 107.735 289.513 107.664Z" fill="#EBEBEB"/>
<path d="M289.513 109.743L295.181 105.309C295.337 105.185 295.464 105.287 295.464 105.531V105.655C295.458 105.788 295.43 105.918 295.381 106.033C295.331 106.149 295.263 106.247 295.181 106.32L289.513 110.755C289.357 110.879 289.229 110.777 289.229 110.533V110.382C289.237 110.253 289.267 110.128 289.316 110.017C289.365 109.907 289.433 109.813 289.513 109.743Z" fill="#EBEBEB"/>
<path d="M289.513 111.819L295.181 107.385C295.337 107.265 295.464 107.362 295.464 107.606V107.757C295.458 107.89 295.43 108.02 295.381 108.136C295.331 108.251 295.263 108.349 295.181 108.422L289.513 112.857C289.357 112.977 289.229 112.879 289.229 112.635V112.48C289.236 112.347 289.264 112.218 289.314 112.104C289.363 111.989 289.431 111.892 289.513 111.819Z" fill="#EBEBEB"/>
<path d="M276.92 149.039V149.735C276.92 150.072 277.096 150.209 277.315 150.041L283.885 144.879C283.999 144.779 284.095 144.643 284.163 144.482C284.232 144.322 284.271 144.142 284.279 143.957V143.26C284.279 142.923 284.103 142.786 283.885 142.954L277.321 148.116C277.205 148.215 277.108 148.351 277.039 148.511C276.969 148.672 276.928 148.853 276.92 149.039Z" fill="#E0E0E0"/>
<path d="M277.086 133.806L283.884 128.453C284.194 128.209 284.448 128.409 284.448 128.897V139.602C284.437 139.868 284.38 140.127 284.282 140.358C284.184 140.589 284.048 140.786 283.884 140.932L277.073 146.285C276.748 146.529 276.51 146.333 276.51 145.841V135.136C276.522 134.868 276.58 134.608 276.68 134.376C276.78 134.145 276.92 133.949 277.086 133.806Z" fill="#FAFAFA"/>
<path d="M276.831 146.613C276.752 146.614 276.673 146.586 276.603 146.533C276.521 146.457 276.456 146.353 276.413 146.232C276.37 146.11 276.351 145.975 276.359 145.841V135.136C276.371 134.83 276.436 134.532 276.549 134.267C276.662 134.003 276.821 133.779 277.011 133.615L283.815 128.271C283.894 128.189 283.99 128.14 284.089 128.131C284.189 128.122 284.288 128.153 284.374 128.221C284.461 128.289 284.531 128.39 284.575 128.512C284.619 128.634 284.636 128.771 284.623 128.905V139.61C284.612 139.916 284.547 140.214 284.433 140.479C284.32 140.744 284.162 140.967 283.971 141.132L277.16 146.484C277.061 146.564 276.947 146.608 276.831 146.613ZM284.147 128.568C284.087 128.573 284.029 128.599 283.978 128.644L277.167 134.001C277.027 134.126 276.911 134.293 276.827 134.49C276.743 134.688 276.695 134.909 276.685 135.136V145.841C276.667 145.899 276.666 145.964 276.681 146.023C276.696 146.082 276.726 146.132 276.766 146.163C276.806 146.194 276.853 146.204 276.898 146.192C276.943 146.179 276.983 146.144 277.011 146.094L283.822 140.741C283.961 140.614 284.077 140.446 284.16 140.248C284.244 140.05 284.293 139.829 284.304 139.602V128.896C284.309 128.84 284.304 128.783 284.289 128.729C284.274 128.676 284.25 128.629 284.219 128.591C284.197 128.574 284.172 128.567 284.147 128.568Z" fill="#EBEBEB"/>
<path d="M284.698 129.899L283.181 131.092C283.016 131.237 282.879 131.433 282.78 131.665C282.682 131.896 282.625 132.155 282.614 132.422V134.808C282.614 135.3 282.868 135.495 283.181 135.251L284.698 134.058C284.863 133.913 284.999 133.716 285.097 133.485C285.195 133.254 285.251 132.994 285.262 132.728V130.342C285.262 129.854 285.008 129.655 284.698 129.899Z" fill="#00659F"/>
<path d="M277.604 134.963L281.018 132.302C281.171 132.182 281.298 132.28 281.298 132.524V132.675C281.292 132.807 281.264 132.937 281.216 133.052C281.167 133.167 281.099 133.266 281.018 133.34L277.604 136C277.448 136.125 277.321 136.027 277.324 135.779V135.628C277.329 135.495 277.357 135.365 277.406 135.25C277.454 135.134 277.522 135.036 277.604 134.963Z" fill="#EBEBEB"/>
<path d="M277.604 137.038L281.018 134.378C281.171 134.254 281.298 134.356 281.298 134.599V134.746C281.293 134.879 281.265 135.008 281.216 135.124C281.168 135.239 281.1 135.338 281.018 135.411L277.604 138.072C277.448 138.191 277.321 138.094 277.324 137.85V137.695C277.33 137.563 277.359 137.435 277.407 137.322C277.456 137.208 277.523 137.111 277.604 137.038Z" fill="#EBEBEB"/>
<path d="M277.604 139.118L281.018 136.458C281.171 136.338 281.298 136.435 281.298 136.679V136.83C281.292 136.963 281.264 137.092 281.216 137.208C281.167 137.323 281.099 137.421 281.018 137.495L277.604 140.156C277.448 140.28 277.321 140.178 277.324 139.934V139.801C277.326 139.665 277.353 139.531 277.402 139.412C277.451 139.293 277.52 139.192 277.604 139.118Z" fill="#EBEBEB"/>
<path d="M277.604 141.194L283.272 136.759C283.428 136.64 283.556 136.737 283.556 136.981V137.141C283.55 137.274 283.521 137.404 283.472 137.519C283.423 137.635 283.354 137.733 283.272 137.806L277.604 142.24C277.448 142.36 277.321 142.263 277.324 142.019V141.864C277.329 141.73 277.356 141.599 277.405 141.483C277.454 141.366 277.522 141.267 277.604 141.194Z" fill="#EBEBEB"/>
<path d="M277.604 143.274L283.272 138.839C283.428 138.715 283.556 138.812 283.556 139.061V139.207C283.55 139.34 283.521 139.47 283.472 139.586C283.423 139.701 283.354 139.799 283.272 139.872L277.604 144.307C277.448 144.431 277.321 144.329 277.324 144.085V143.934C277.329 143.802 277.357 143.673 277.406 143.558C277.454 143.443 277.522 143.345 277.604 143.274Z" fill="#EBEBEB"/>
<path d="M288.829 139.677V140.373C288.829 140.715 289.005 140.852 289.219 140.679L295.786 135.522C295.9 135.42 295.995 135.283 296.063 135.122C296.131 134.961 296.17 134.781 296.177 134.595V133.903C296.177 133.562 296.004 133.424 295.786 133.593L289.219 138.755C289.106 138.857 289.012 138.993 288.944 139.153C288.876 139.313 288.837 139.493 288.829 139.677Z" fill="#E0E0E0"/>
<path d="M288.995 124.449L295.802 119.096C296.128 118.848 296.369 119.047 296.369 119.54V130.24C296.358 130.507 296.301 130.767 296.203 130.998C296.104 131.229 295.967 131.425 295.802 131.571L288.995 136.928C288.669 137.171 288.428 136.972 288.428 136.484V125.779C288.438 125.512 288.495 125.252 288.594 125.021C288.692 124.79 288.83 124.594 288.995 124.449Z" fill="#FAFAFA"/>
<path d="M288.741 137.251C288.661 137.252 288.582 137.225 288.513 137.172C288.43 137.097 288.364 136.994 288.321 136.874C288.277 136.753 288.258 136.618 288.265 136.484V125.779C288.276 125.472 288.34 125.173 288.454 124.908C288.567 124.642 288.726 124.418 288.917 124.254L295.724 118.901C295.804 118.816 295.9 118.766 296 118.757C296.101 118.747 296.201 118.779 296.288 118.847C296.376 118.916 296.446 119.019 296.49 119.142C296.534 119.265 296.55 119.404 296.535 119.54V130.24C296.525 130.547 296.46 130.846 296.347 131.112C296.233 131.377 296.075 131.602 295.884 131.766L289.076 137.141C288.973 137.216 288.858 137.254 288.741 137.251ZM289.066 124.639C288.926 124.765 288.809 124.933 288.725 125.131C288.641 125.329 288.591 125.551 288.581 125.779V136.484C288.576 136.54 288.58 136.597 288.595 136.65C288.61 136.702 288.634 136.749 288.666 136.786C288.706 136.805 288.748 136.81 288.79 136.801C288.831 136.791 288.87 136.768 288.904 136.733L295.721 131.376C295.861 131.25 295.978 131.082 296.063 130.884C296.147 130.686 296.196 130.464 296.206 130.236V119.54C296.224 119.482 296.226 119.417 296.211 119.358C296.196 119.298 296.166 119.249 296.126 119.218C296.086 119.186 296.039 119.176 295.994 119.189C295.948 119.202 295.908 119.237 295.881 119.287L289.066 124.639Z" fill="#EBEBEB"/>
<path d="M296.604 120.542L295.086 121.735C294.922 121.881 294.785 122.077 294.687 122.308C294.59 122.539 294.533 122.799 294.522 123.065V125.451C294.522 125.939 294.777 126.138 295.086 125.894L296.604 124.702C296.768 124.556 296.905 124.359 297.004 124.128C297.102 123.897 297.159 123.638 297.171 123.371V120.985C297.171 120.493 296.913 120.289 296.604 120.542Z" fill="#00659F"/>
<path d="M289.513 125.61L292.923 122.95C293.08 122.825 293.207 122.927 293.207 123.171V123.318C293.201 123.451 293.173 123.581 293.124 123.696C293.074 123.812 293.006 123.91 292.923 123.983L289.513 126.644C289.357 126.763 289.229 126.644 289.229 126.422V126.267C289.236 126.135 289.265 126.007 289.314 125.893C289.363 125.779 289.431 125.682 289.513 125.61Z" fill="#EBEBEB"/>
<path d="M289.513 127.681L292.923 125.021C293.08 124.901 293.207 125.021 293.207 125.242V125.393C293.201 125.527 293.172 125.656 293.123 125.772C293.074 125.887 293.006 125.986 292.923 126.058L289.513 128.719C289.357 128.843 289.229 128.741 289.229 128.497V128.347C289.234 128.213 289.263 128.083 289.312 127.967C289.361 127.851 289.43 127.753 289.513 127.681Z" fill="#EBEBEB"/>
<path d="M289.513 129.757L292.923 127.096C293.08 126.972 293.207 127.069 293.207 127.318V127.464C293.201 127.597 293.172 127.727 293.123 127.843C293.074 127.958 293.006 128.056 292.923 128.129L289.513 130.79C289.357 130.91 289.229 130.812 289.229 130.568V130.413C289.236 130.281 289.265 130.153 289.314 130.039C289.363 129.926 289.431 129.829 289.513 129.757Z" fill="#EBEBEB"/>
<path d="M289.513 131.819L295.181 127.384C295.337 127.26 295.464 127.358 295.464 127.606V127.752C295.458 127.886 295.43 128.016 295.381 128.131C295.331 128.247 295.263 128.345 295.181 128.418L289.513 132.852C289.357 132.976 289.229 132.874 289.229 132.631V132.48C289.235 132.347 289.263 132.218 289.313 132.103C289.362 131.988 289.431 131.891 289.513 131.819Z" fill="#EBEBEB"/>
<path d="M289.513 133.912L295.181 129.477C295.337 129.353 295.464 129.455 295.464 129.699V129.845C295.459 129.979 295.431 130.109 295.382 130.225C295.332 130.341 295.263 130.439 295.181 130.511L289.513 134.945C289.357 135.065 289.229 134.967 289.229 134.723V134.568C289.236 134.436 289.265 134.308 289.314 134.195C289.363 134.081 289.431 133.984 289.513 133.912Z" fill="#EBEBEB"/>
<path d="M252.582 168.183V168.875C252.582 169.216 252.757 169.354 252.976 169.185L259.539 164.023C259.654 163.923 259.749 163.787 259.818 163.626C259.886 163.466 259.926 163.286 259.933 163.101V162.418C259.933 162.076 259.757 161.939 259.539 162.112L252.976 167.269C252.862 167.369 252.768 167.504 252.699 167.663C252.631 167.821 252.591 167.999 252.582 168.183Z" fill="#E0E0E0"/>
<path d="M252.747 152.95L259.558 147.597C259.884 147.353 260.122 147.549 260.122 148.041V158.746C260.11 159.012 260.053 159.271 259.956 159.502C259.858 159.733 259.722 159.93 259.558 160.076L252.747 165.429C252.421 165.673 252.184 165.473 252.184 164.985V154.28C252.194 154.014 252.25 153.754 252.348 153.523C252.446 153.292 252.583 153.095 252.747 152.95Z" fill="#FAFAFA"/>
<path d="M252.493 165.753C252.413 165.754 252.335 165.726 252.265 165.673C252.183 165.598 252.117 165.495 252.074 165.374C252.031 165.253 252.013 165.119 252.021 164.985V154.28C252.032 153.974 252.097 153.676 252.211 153.412C252.324 153.147 252.482 152.923 252.672 152.759L259.483 147.407C259.562 147.322 259.658 147.271 259.758 147.261C259.858 147.251 259.958 147.282 260.045 147.35C260.132 147.419 260.202 147.521 260.246 147.644C260.29 147.767 260.306 147.905 260.291 148.041V158.746C260.28 159.052 260.215 159.35 260.101 159.614C259.988 159.879 259.83 160.103 259.64 160.267L252.829 165.619C252.727 165.703 252.612 165.749 252.493 165.753ZM252.747 152.95L252.829 153.141C252.689 153.267 252.573 153.435 252.489 153.633C252.405 153.831 252.357 154.052 252.347 154.28V164.985C252.329 165.043 252.327 165.108 252.342 165.167C252.357 165.227 252.387 165.276 252.427 165.307C252.467 165.339 252.514 165.349 252.56 165.336C252.605 165.323 252.645 165.288 252.672 165.238L259.483 159.881C259.622 159.755 259.738 159.587 259.822 159.39C259.906 159.193 259.955 158.973 259.965 158.746V148.041C259.983 147.983 259.985 147.918 259.97 147.859C259.955 147.8 259.924 147.75 259.884 147.719C259.844 147.688 259.798 147.678 259.752 147.69C259.707 147.703 259.667 147.738 259.64 147.788L252.829 153.141L252.747 152.95Z" fill="#EBEBEB"/>
<path d="M260.36 149.043L258.842 150.236C258.677 150.381 258.54 150.577 258.441 150.808C258.342 151.04 258.286 151.299 258.275 151.566V153.952C258.275 154.44 258.529 154.639 258.842 154.395L260.36 153.203C260.523 153.056 260.66 152.86 260.757 152.628C260.855 152.397 260.912 152.138 260.923 151.872V149.486C260.923 148.994 260.669 148.799 260.36 149.043Z" fill="#00659F"/>
<path d="M253.265 154.107L256.679 151.447C256.832 151.322 256.959 151.424 256.959 151.668V151.815C256.954 151.948 256.926 152.077 256.878 152.193C256.829 152.308 256.761 152.407 256.679 152.48L253.265 155.141C253.109 155.265 252.985 155.141 252.985 154.919V154.768C252.99 154.636 253.018 154.506 253.067 154.392C253.115 154.277 253.184 154.179 253.265 154.107Z" fill="#EBEBEB"/>
<path d="M253.265 156.183L256.679 153.522C256.832 153.402 256.959 153.5 256.959 153.748V153.894C256.954 154.027 256.925 154.156 256.877 154.272C256.828 154.387 256.76 154.486 256.679 154.56L253.265 157.22C253.109 157.34 252.985 157.22 252.985 156.999V156.843C252.991 156.711 253.019 156.582 253.068 156.468C253.116 156.353 253.184 156.255 253.265 156.183Z" fill="#EBEBEB"/>
<path d="M253.265 158.262L256.679 155.602C256.832 155.477 256.959 155.579 256.959 155.823V155.97C256.954 156.103 256.926 156.232 256.878 156.348C256.829 156.463 256.761 156.562 256.679 156.635L253.265 159.313C253.109 159.438 252.985 159.313 252.985 159.092V158.936C252.989 158.802 253.016 158.67 253.064 158.552C253.113 158.435 253.182 158.335 253.265 158.262Z" fill="#EBEBEB"/>
<path d="M253.265 160.338L258.933 155.903C259.09 155.779 259.217 155.903 259.217 156.125V156.271C259.212 156.405 259.184 156.535 259.134 156.651C259.085 156.766 259.016 156.864 258.933 156.936L253.265 161.371C253.109 161.495 252.985 161.397 252.985 161.149V160.998C252.991 160.866 253.019 160.737 253.068 160.623C253.116 160.508 253.184 160.41 253.265 160.338Z" fill="#EBEBEB"/>
<path d="M253.265 162.418L258.933 157.983C259.09 157.863 259.217 157.983 259.217 158.205V158.356C259.211 158.489 259.182 158.619 259.133 158.734C259.084 158.85 259.015 158.948 258.933 159.021L253.265 163.455C253.109 163.575 252.985 163.478 252.985 163.234V163.078C252.991 162.946 253.019 162.817 253.068 162.703C253.116 162.588 253.184 162.49 253.265 162.418Z" fill="#EBEBEB"/>
<path d="M264.49 158.821V159.517C264.49 159.854 264.666 159.996 264.881 159.823L271.447 154.662C271.562 154.561 271.657 154.425 271.725 154.265C271.793 154.104 271.832 153.924 271.838 153.739V153.047C271.838 152.706 271.666 152.568 271.447 152.737L264.881 157.899C264.767 158 264.673 158.137 264.605 158.297C264.537 158.457 264.497 158.637 264.49 158.821Z" fill="#E0E0E0"/>
<path d="M264.666 143.588L271.474 138.236C271.799 137.992 272.04 138.192 272.04 138.679V149.384C272.03 149.651 271.973 149.911 271.874 150.142C271.776 150.374 271.639 150.57 271.474 150.715L264.666 156.067C264.34 156.316 264.099 156.116 264.099 155.624V144.919C264.111 144.652 264.168 144.393 264.266 144.162C264.365 143.931 264.502 143.734 264.666 143.588Z" fill="#FAFAFA"/>
<path d="M264.402 156.396C264.322 156.397 264.243 156.369 264.174 156.316C264.091 156.24 264.025 156.137 263.982 156.015C263.938 155.894 263.919 155.759 263.926 155.624V144.919C263.938 144.613 264.003 144.315 264.116 144.051C264.23 143.786 264.388 143.562 264.578 143.398L271.382 138.027C271.461 137.943 271.557 137.893 271.657 137.884C271.757 137.874 271.857 137.905 271.944 137.973C272.032 138.041 272.102 138.143 272.146 138.266C272.19 138.388 272.207 138.526 272.193 138.662V149.367C272.183 149.673 272.118 149.971 272.005 150.236C271.891 150.501 271.732 150.724 271.542 150.888L264.734 156.245C264.635 156.334 264.52 156.386 264.402 156.396ZM271.718 138.356C271.656 138.358 271.596 138.384 271.545 138.431L264.737 143.792C264.597 143.917 264.48 144.085 264.396 144.282C264.312 144.479 264.263 144.7 264.252 144.928V155.633C264.246 155.689 264.251 155.747 264.266 155.8C264.28 155.854 264.305 155.901 264.337 155.939C264.377 155.957 264.419 155.961 264.46 155.952C264.502 155.943 264.541 155.92 264.574 155.886L271.382 150.533C271.522 150.407 271.639 150.239 271.723 150.041C271.808 149.843 271.857 149.621 271.868 149.393V138.679C271.873 138.623 271.867 138.566 271.853 138.512C271.838 138.459 271.814 138.411 271.783 138.373C271.762 138.361 271.74 138.355 271.718 138.356Z" fill="#EBEBEB"/>
<path d="M272.265 139.681L270.747 140.874C270.584 141.021 270.447 141.218 270.35 141.449C270.252 141.68 270.195 141.939 270.184 142.205V144.591C270.184 145.083 270.438 145.282 270.747 145.034L272.265 143.841C272.43 143.696 272.567 143.5 272.666 143.269C272.764 143.037 272.821 142.778 272.832 142.511V140.125C272.832 139.637 272.578 139.438 272.265 139.681Z" fill="#00659F"/>
<path d="M265.174 144.746L268.585 142.085C268.741 141.965 268.868 142.063 268.868 142.311V142.462C268.863 142.595 268.834 142.725 268.785 142.84C268.736 142.956 268.667 143.054 268.585 143.127L265.174 145.788C265.018 145.908 264.891 145.81 264.891 145.562V145.411C264.897 145.277 264.925 145.148 264.975 145.032C265.024 144.917 265.092 144.818 265.174 144.746Z" fill="#EBEBEB"/>
<path d="M265.174 146.826L268.585 144.165C268.741 144.041 268.868 144.143 268.868 144.387V144.533C268.863 144.667 268.835 144.797 268.786 144.912C268.737 145.028 268.668 145.126 268.585 145.198L265.174 147.859C265.018 147.983 264.891 147.881 264.891 147.637V147.482C264.897 147.35 264.926 147.221 264.975 147.107C265.024 146.993 265.093 146.897 265.174 146.826Z" fill="#EBEBEB"/>
<path d="M265.174 148.901L268.585 146.24C268.741 146.121 268.868 146.218 268.868 146.462V146.613C268.863 146.746 268.834 146.876 268.785 146.991C268.736 147.107 268.667 147.205 268.585 147.278L265.174 149.939C265.018 150.063 264.891 149.965 264.891 149.717V149.557C264.898 149.426 264.927 149.298 264.976 149.184C265.025 149.07 265.093 148.973 265.174 148.901Z" fill="#EBEBEB"/>
<path d="M265.174 150.977L270.842 146.542C270.999 146.422 271.126 146.52 271.126 146.764V146.897C271.12 147.03 271.091 147.16 271.042 147.275C270.993 147.391 270.924 147.489 270.842 147.562L265.174 151.997C265.018 152.116 264.891 152.019 264.891 151.775V151.62C264.899 151.49 264.929 151.365 264.978 151.253C265.027 151.142 265.094 151.047 265.174 150.977Z" fill="#EBEBEB"/>
<path d="M265.174 153.056L270.842 148.622C270.999 148.497 271.126 148.599 271.126 148.843V148.99C271.12 149.123 271.092 149.253 271.043 149.369C270.993 149.484 270.925 149.582 270.842 149.655L265.174 154.089C265.018 154.214 264.891 154.089 264.891 153.868V153.717C264.896 153.584 264.925 153.455 264.974 153.34C265.023 153.225 265.092 153.128 265.174 153.056Z" fill="#EBEBEB"/>
<path d="M233.66 110.937L232.337 109.885V118.209L233.66 119.251V110.937Z" fill="#00659F"/>
<path opacity="0.1" d="M233.66 110.937L232.337 109.885V118.209L233.66 119.251V110.937Z" fill="black"/>
<path d="M311.809 145.331C311.658 145.238 311.492 145.201 311.328 145.223C311.163 145.245 311.006 145.325 310.871 145.456C310.486 145.796 310.166 146.253 309.935 146.793C309.704 147.332 309.57 147.937 309.542 148.56C309.524 148.784 309.551 149.01 309.618 149.216C309.686 149.421 309.792 149.599 309.926 149.731L326.415 163.921C326.74 164.232 327.232 164.214 327.77 163.793C328.31 163.317 328.76 162.674 329.083 161.916C329.406 161.159 329.593 160.308 329.63 159.433C329.63 158.591 329.402 158.01 329.037 157.766L311.809 145.331Z" fill="#00659F"/>
<path opacity="0.15" d="M309.542 148.577C309.542 149.726 310.131 150.196 310.864 149.624C311.248 149.284 311.569 148.826 311.8 148.287C312.03 147.748 312.165 147.143 312.193 146.52C312.193 145.371 311.603 144.901 310.87 145.473C310.486 145.813 310.166 146.271 309.935 146.81C309.704 147.349 309.569 147.954 309.542 148.577Z" fill="black"/>
<path d="M305.894 142.347C305.66 142.553 305.465 142.832 305.325 143.16C305.185 143.488 305.104 143.857 305.089 144.236C305.079 144.371 305.095 144.507 305.135 144.631C305.176 144.754 305.24 144.861 305.32 144.941L310.297 148.874C310.388 148.932 310.488 148.955 310.587 148.942C310.686 148.928 310.781 148.879 310.861 148.799C311.097 148.593 311.294 148.312 311.435 147.981C311.575 147.65 311.655 147.278 311.669 146.897C311.68 146.761 311.665 146.624 311.624 146.499C311.584 146.374 311.519 146.266 311.437 146.187L306.46 142.254C306.368 142.199 306.267 142.179 306.168 142.195C306.068 142.212 305.973 142.264 305.894 142.347Z" fill="#263238"/>
<path opacity="0.1" d="M311.486 148.888L328.45 163.078C328.249 163.362 328.021 163.608 327.773 163.81C327.235 164.231 326.753 164.254 326.414 163.939L309.929 149.748C310.079 149.842 310.245 149.881 310.409 149.859C310.573 149.837 310.73 149.756 310.864 149.624C311.101 149.429 311.311 149.18 311.486 148.888Z" fill="black"/>
<path d="M314.334 128.684C314.334 128.493 314.334 128.311 314.314 128.125C314.295 127.939 314.298 127.757 314.282 127.575C314.266 127.393 314.266 127.336 314.256 127.216C314.233 126.897 314.197 126.586 314.161 126.289C314.142 126.156 314.126 126.014 314.106 125.881C314.086 125.748 314.067 125.628 314.047 125.5C313.989 125.158 313.93 124.821 313.858 124.502C313.819 124.351 313.787 124.196 313.748 124.059C313.741 124.035 313.736 124.012 313.731 123.988C313.689 123.837 313.653 123.695 313.611 123.544C313.567 123.381 313.517 123.221 313.461 123.065C313.426 122.948 313.385 122.834 313.341 122.724C313.317 122.64 313.288 122.56 313.253 122.484C313.22 122.387 313.181 122.289 313.142 122.196L313.113 122.13C313.08 122.045 313.041 121.965 313.005 121.881C312.969 121.797 312.953 121.775 312.93 121.722C312.755 121.347 312.559 120.992 312.344 120.657C312.305 120.604 312.269 120.546 312.233 120.493C312.197 120.44 312.171 120.404 312.142 120.36L312.021 120.2C311.91 120.042 311.792 119.894 311.666 119.757C311.609 119.689 311.55 119.625 311.487 119.566C311.425 119.5 311.363 119.438 311.298 119.38C311.201 119.282 311.1 119.191 310.995 119.11L310.914 119.039H310.898L307.315 116.205L307.288 116.183C306.361 115.479 305.314 115.118 304.253 115.136C302.67 115.136 300.885 115.846 298.992 117.331C292.478 122.44 287.22 134.866 287.22 145.092C287.22 150.187 288.523 153.77 290.647 155.451H290.666L294.249 158.28H294.269L294.328 158.325C294.422 158.396 294.513 158.462 294.608 158.524C294.702 158.586 294.842 158.671 294.963 158.737C295.083 158.804 295.178 158.852 295.289 158.897C295.346 158.926 295.405 158.95 295.464 158.968C295.524 159.001 295.587 159.026 295.65 159.043L295.842 159.11C295.888 159.127 295.935 159.14 295.982 159.149L296.236 159.212H296.295L296.601 159.265C298.357 159.518 300.396 158.843 302.578 157.132C309.093 152.019 314.35 139.588 314.35 129.371C314.344 129.158 314.341 128.928 314.334 128.684ZM306.448 121.455C306.703 122.727 306.828 124.04 306.819 125.358C306.819 134.373 301.973 145.797 296.24 150.302C295.403 150.981 294.499 151.493 293.556 151.824C293.301 150.551 293.176 149.236 293.184 147.917C293.184 138.901 298.028 127.478 303.764 122.972C304.601 122.294 305.505 121.783 306.448 121.455Z" fill="#00659F"/>
<path opacity="0.1" d="M294.08 158.17L290.627 155.447C288.51 153.762 287.2 150.174 287.2 145.087C287.2 140.529 288.249 135.535 289.985 130.946L293.568 133.779C291.829 138.365 290.78 143.362 290.78 147.921C290.793 152.906 292.028 156.44 294.08 158.17Z" fill="black"/>
<path opacity="0.4" d="M314.333 128.684C314.333 128.493 314.333 128.311 314.314 128.125C314.294 127.939 314.297 127.757 314.281 127.575C314.265 127.393 314.265 127.336 314.255 127.216C314.232 126.897 314.197 126.586 314.161 126.289C314.141 126.156 314.125 126.014 314.105 125.881C314.086 125.748 314.066 125.629 314.047 125.5C313.988 125.158 313.929 124.821 313.858 124.502C313.819 124.351 313.786 124.196 313.747 124.059C313.741 124.035 313.735 124.012 313.731 123.988C313.688 123.837 313.653 123.695 313.61 123.544C313.566 123.381 313.516 123.221 313.46 123.065C313.425 122.949 313.385 122.835 313.34 122.724C313.317 122.64 313.287 122.56 313.252 122.484C313.219 122.387 313.18 122.289 313.141 122.196L313.112 122.13C313.079 122.045 313.04 121.966 313.004 121.881C312.969 121.797 312.952 121.775 312.929 121.722C312.754 121.347 312.558 120.992 312.343 120.657C312.304 120.604 312.268 120.546 312.232 120.493C312.197 120.44 312.17 120.405 312.141 120.36L312.021 120.201C311.91 120.042 311.791 119.894 311.666 119.757C311.609 119.689 311.549 119.625 311.486 119.566C311.425 119.5 311.363 119.438 311.298 119.38C311.201 119.282 311.099 119.192 310.995 119.11C308.858 117.336 305.783 117.38 302.571 120.143C296.118 125.677 290.829 137.948 290.796 147.903C290.78 153.083 292.145 156.697 294.324 158.342C294.418 158.413 294.509 158.48 294.604 158.542C294.698 158.604 294.838 158.688 294.959 158.755C295.079 158.821 295.174 158.87 295.285 158.915C295.342 158.944 295.401 158.968 295.461 158.985C295.52 159.019 295.583 159.044 295.646 159.061L295.838 159.127C295.884 159.145 295.931 159.158 295.978 159.167L296.232 159.229H296.291L296.597 159.283C298.353 159.535 300.392 158.861 302.574 157.15C309.089 152.036 314.346 139.606 314.346 129.389C314.343 129.158 314.34 128.928 314.333 128.684ZM301.376 154.36C299.916 155.509 298.513 156.112 297.311 156.112C295.057 156.112 294.021 154.019 293.555 151.824C293.3 150.551 293.175 149.236 293.184 147.917C293.184 138.901 298.027 127.478 303.763 122.972C304.6 122.294 305.504 121.784 306.447 121.456C306.9 121.305 307.363 121.226 307.828 121.221C311.555 121.221 311.952 126.95 311.952 129.416C311.952 138.431 307.112 149.855 301.376 154.36Z" fill="white"/>
<path opacity="0.1" d="M311.953 129.416C311.953 138.427 307.112 149.855 301.376 154.36C299.917 155.509 298.513 156.112 297.314 156.112C296.79 156.14 296.268 156.006 295.788 155.72C295.308 155.433 294.882 155.002 294.542 154.458C294.484 154.365 294.428 154.267 294.373 154.169C294.318 154.072 294.265 153.97 294.22 153.863C294.183 153.791 294.149 153.715 294.119 153.637C294.096 153.589 294.073 153.54 294.054 153.491C294.034 153.442 294.008 153.367 293.982 153.305C293.956 153.243 293.94 153.189 293.92 153.132C293.901 153.074 293.878 153.016 293.858 152.954L293.761 152.635C293.721 152.502 293.686 152.369 293.653 152.232C293.62 152.094 293.585 151.961 293.559 151.824C294.502 151.493 295.406 150.981 296.243 150.302C301.975 145.797 306.822 134.373 306.822 125.358C306.831 124.04 306.706 122.727 306.451 121.455C306.903 121.305 307.367 121.226 307.832 121.22C308.014 121.221 308.195 121.236 308.376 121.265L308.545 121.3C311.604 121.992 311.953 127.118 311.953 129.416Z" fill="black"/>
<path opacity="0.7" d="M309.893 127.828C309.893 136.844 305.053 148.267 299.317 152.773C297.858 153.921 296.454 154.547 295.252 154.547C295.013 154.548 294.774 154.521 294.538 154.467C294.48 154.374 294.424 154.276 294.369 154.179C294.314 154.081 294.262 153.979 294.216 153.873C294.179 153.8 294.145 153.724 294.115 153.646C294.092 153.598 294.069 153.549 294.05 153.5C294.03 153.451 294.004 153.376 293.978 153.314C293.952 153.252 293.936 153.198 293.916 153.141C293.897 153.083 293.874 153.025 293.854 152.963L293.757 152.644C293.718 152.511 293.682 152.378 293.649 152.241C293.617 152.103 293.581 151.97 293.555 151.833C294.498 151.502 295.402 150.99 296.239 150.312C301.972 145.806 306.818 134.382 306.818 125.367C306.827 124.049 306.702 122.736 306.447 121.465C306.899 121.314 307.363 121.235 307.828 121.229C308.01 121.23 308.192 121.245 308.372 121.274L308.542 121.309C309.721 123.19 309.893 126.218 309.893 127.828Z" fill="white"/>
</svg>
