<svg width="419" height="58" viewBox="0 0 419 58" fill="none" xmlns="http://www.w3.org/2000/svg">
<path d="M27.332 42V39.552L37.592 29.652C38.504 28.788 39.176 28.032 39.608 27.384C40.064 26.712 40.364 26.1 40.508 25.548C40.676 24.972 40.76 24.42 40.76 23.892C40.76 22.596 40.304 21.576 39.392 20.832C38.48 20.088 37.148 19.716 35.396 19.716C34.052 19.716 32.84 19.944 31.76 20.4C30.68 20.832 29.744 21.516 28.952 22.452L26.504 20.328C27.464 19.104 28.748 18.168 30.356 17.52C31.988 16.848 33.776 16.512 35.72 16.512C37.472 16.512 38.996 16.8 40.292 17.376C41.588 17.928 42.584 18.732 43.28 19.788C44 20.844 44.36 22.092 44.36 23.532C44.36 24.348 44.252 25.152 44.036 25.944C43.82 26.736 43.412 27.576 42.812 28.464C42.212 29.352 41.348 30.348 40.22 31.452L31.076 40.272L30.212 38.868H45.44V42H27.332Z" fill="black"/>
<rect x="0.5" y="0.5" width="72" height="57" rx="28.5" stroke="#32CD32"/>
<path d="M148.432 42.288C146.656 42.288 144.928 42.012 143.248 41.46C141.592 40.908 140.236 40.164 139.18 39.228L140.836 36.384C141.676 37.176 142.768 37.824 144.112 38.328C145.456 38.832 146.896 39.084 148.432 39.084C150.304 39.084 151.756 38.688 152.788 37.896C153.844 37.08 154.372 35.988 154.372 34.62C154.372 33.3 153.868 32.244 152.86 31.452C151.876 30.636 150.304 30.228 148.144 30.228H146.128V27.708L153.616 18.492L154.12 19.932H140.332V16.8H156.964V19.248L149.512 28.428L147.64 27.312H148.828C151.876 27.312 154.156 27.996 155.668 29.364C157.204 30.732 157.972 32.472 157.972 34.584C157.972 36 157.624 37.296 156.928 38.472C156.232 39.648 155.176 40.584 153.76 41.28C152.368 41.952 150.592 42.288 148.432 42.288Z" fill="black"/>
<rect x="113.5" y="0.5" width="72" height="57" rx="28.5" stroke="#32CD32"/>
<path d="M264.024 42.288C262.056 42.288 260.292 41.784 258.732 40.776C257.196 39.768 255.972 38.304 255.06 36.384C254.172 34.464 253.728 32.136 253.728 29.4C253.728 26.664 254.172 24.336 255.06 22.416C255.972 20.496 257.196 19.032 258.732 18.024C260.292 17.016 262.056 16.512 264.024 16.512C265.968 16.512 267.72 17.016 269.28 18.024C270.84 19.032 272.064 20.496 272.952 22.416C273.84 24.336 274.284 26.664 274.284 29.4C274.284 32.136 273.84 34.464 272.952 36.384C272.064 38.304 270.84 39.768 269.28 40.776C267.72 41.784 265.968 42.288 264.024 42.288ZM264.024 39.084C265.344 39.084 266.496 38.724 267.48 38.004C268.488 37.284 269.268 36.204 269.82 34.764C270.396 33.324 270.684 31.536 270.684 29.4C270.684 27.264 270.396 25.476 269.82 24.036C269.268 22.596 268.488 21.516 267.48 20.796C266.496 20.076 265.344 19.716 264.024 19.716C262.704 19.716 261.54 20.076 260.532 20.796C259.524 21.516 258.732 22.596 258.156 24.036C257.604 25.476 257.328 27.264 257.328 29.4C257.328 31.536 257.604 33.324 258.156 34.764C258.732 36.204 259.524 37.284 260.532 38.004C261.54 38.724 262.704 39.084 264.024 39.084Z" fill="black"/>
<rect x="226.5" y="0.5" width="76" height="57" rx="28.5" stroke="#32CD32"/>
<path d="M380.556 42.288C378.516 42.288 376.752 41.988 375.264 41.388C373.776 40.788 372.624 39.936 371.808 38.832C370.992 37.704 370.584 36.384 370.584 34.872C370.584 33.384 370.968 32.124 371.736 31.092C372.528 30.036 373.668 29.244 375.156 28.716C376.644 28.164 378.444 27.888 380.556 27.888C382.668 27.888 384.468 28.164 385.956 28.716C387.468 29.244 388.62 30.036 389.412 31.092C390.204 32.148 390.6 33.408 390.6 34.872C390.6 36.384 390.192 37.704 389.376 38.832C388.56 39.936 387.396 40.788 385.884 41.388C384.372 41.988 382.596 42.288 380.556 42.288ZM380.556 39.372C382.572 39.372 384.144 38.964 385.272 38.148C386.424 37.308 387 36.18 387 34.764C387 33.372 386.424 32.28 385.272 31.488C384.144 30.672 382.572 30.264 380.556 30.264C378.564 30.264 377.004 30.672 375.876 31.488C374.748 32.28 374.184 33.372 374.184 34.764C374.184 36.18 374.748 37.308 375.876 38.148C377.004 38.964 378.564 39.372 380.556 39.372ZM380.556 29.832C378.636 29.832 377.004 29.58 375.66 29.076C374.316 28.548 373.284 27.804 372.564 26.844C371.844 25.86 371.484 24.696 371.484 23.352C371.484 21.936 371.856 20.724 372.6 19.716C373.368 18.684 374.436 17.892 375.804 17.34C377.172 16.788 378.756 16.512 380.556 16.512C382.38 16.512 383.976 16.788 385.344 17.34C386.712 17.892 387.78 18.684 388.548 19.716C389.316 20.724 389.7 21.936 389.7 23.352C389.7 24.696 389.34 25.86 388.62 26.844C387.9 27.804 386.856 28.548 385.488 29.076C384.12 29.58 382.476 29.832 380.556 29.832ZM380.556 27.528C382.308 27.528 383.676 27.168 384.66 26.448C385.668 25.728 386.172 24.744 386.172 23.496C386.172 22.224 385.656 21.228 384.624 20.508C383.592 19.788 382.236 19.428 380.556 19.428C378.876 19.428 377.532 19.788 376.524 20.508C375.54 21.228 375.048 22.224 375.048 23.496C375.048 24.744 375.528 25.728 376.488 26.448C377.472 27.168 378.828 27.528 380.556 27.528Z" fill="black"/>
<rect x="343.5" y="0.5" width="75" height="57" rx="28.5" stroke="#32CD32"/>
</svg>
