<svg width="56" height="68" viewBox="0 0 56 68" fill="none" xmlns="http://www.w3.org/2000/svg">
<g opacity="0.5">
<circle cx="28" cy="13.3333" r="4" stroke="#121212" stroke-width="2" stroke-linecap="round"/>
<circle cx="28" cy="16" r="12" stroke="#121212" stroke-width="2"/>
<path d="M35.7074 25.1019C35.8769 25.0088 35.957 24.8073 35.8854 24.6277C35.3712 23.3393 34.3808 22.2046 33.0419 21.3776C31.5955 20.4843 29.8232 20 28 20C26.1768 20 24.4046 20.4842 22.9581 21.3776C21.6192 22.2046 20.6288 23.3393 20.1146 24.6277C20.043 24.8073 20.1231 25.0088 20.2926 25.1019C25.0929 27.7373 30.9071 27.7373 35.7074 25.1019Z" fill="#121212"/>
</g>
<path opacity="0.5" d="M1.828 64V52.8H6.676C7.67867 52.8 8.54267 52.9653 9.268 53.296C9.99333 53.616 10.5533 54.08 10.948 54.688C11.3427 55.296 11.54 56.0213 11.54 56.864C11.54 57.696 11.3427 58.416 10.948 59.024C10.5533 59.632 9.99333 60.1013 9.268 60.432C8.54267 60.752 7.67867 60.912 6.676 60.912H3.268L4.42 59.744V64H1.828ZM4.42 60.032L3.268 58.8H6.532C7.332 58.8 7.92933 58.6293 8.324 58.288C8.71867 57.9467 8.916 57.472 8.916 56.864C8.916 56.2453 8.71867 55.7653 8.324 55.424C7.92933 55.0827 7.332 54.912 6.532 54.912H3.268L4.42 53.68V60.032ZM13.1989 64V55.392H15.5829V57.824L15.2469 57.12C15.5029 56.512 15.9135 56.0533 16.4789 55.744C17.0442 55.424 17.7322 55.264 18.5429 55.264V57.568C18.4362 57.5573 18.3402 57.552 18.2549 57.552C18.1695 57.5413 18.0789 57.536 17.9829 57.536C17.3002 57.536 16.7455 57.7333 16.3189 58.128C15.9029 58.512 15.6949 59.1147 15.6949 59.936V64H13.1989ZM24.0605 64.128C23.1432 64.128 22.3272 63.936 21.6125 63.552C20.9085 63.168 20.3485 62.6453 19.9325 61.984C19.5272 61.312 19.3245 60.5493 19.3245 59.696C19.3245 58.832 19.5272 58.0693 19.9325 57.408C20.3485 56.736 20.9085 56.2133 21.6125 55.84C22.3272 55.456 23.1432 55.264 24.0605 55.264C24.9672 55.264 25.7778 55.456 26.4925 55.84C27.2072 56.2133 27.7672 56.7307 28.1725 57.392C28.5778 58.0533 28.7805 58.8213 28.7805 59.696C28.7805 60.5493 28.5778 61.312 28.1725 61.984C27.7672 62.6453 27.2072 63.168 26.4925 63.552C25.7778 63.936 24.9672 64.128 24.0605 64.128ZM24.0605 62.08C24.4765 62.08 24.8498 61.984 25.1805 61.792C25.5112 61.6 25.7725 61.328 25.9645 60.976C26.1565 60.6133 26.2525 60.1867 26.2525 59.696C26.2525 59.1947 26.1565 58.768 25.9645 58.416C25.7725 58.064 25.5112 57.792 25.1805 57.6C24.8498 57.408 24.4765 57.312 24.0605 57.312C23.6445 57.312 23.2712 57.408 22.9405 57.6C22.6098 57.792 22.3432 58.064 22.1405 58.416C21.9485 58.768 21.8525 59.1947 21.8525 59.696C21.8525 60.1867 21.9485 60.6133 22.1405 60.976C22.3432 61.328 22.6098 61.6 22.9405 61.792C23.2712 61.984 23.6445 62.08 24.0605 62.08ZM30.7529 64V55.2C30.7529 54.2293 31.0409 53.456 31.6169 52.88C32.1929 52.2933 33.0142 52 34.0809 52C34.4435 52 34.7902 52.0373 35.1209 52.112C35.4622 52.1867 35.7502 52.304 35.9849 52.464L35.3289 54.272C35.1902 54.176 35.0355 54.1013 34.8649 54.048C34.6942 53.9947 34.5129 53.968 34.3209 53.968C33.9582 53.968 33.6755 54.0747 33.4729 54.288C33.2809 54.4907 33.1849 54.8 33.1849 55.216V56.016L33.2489 57.088V64H30.7529ZM29.4249 57.504V55.584H35.3929V57.504H29.4249ZM36.8009 64V55.392H39.2969V64H36.8009ZM38.0489 54.192C37.5902 54.192 37.2169 54.0587 36.9289 53.792C36.6409 53.5253 36.4969 53.1947 36.4969 52.8C36.4969 52.4053 36.6409 52.0747 36.9289 51.808C37.2169 51.5413 37.5902 51.408 38.0489 51.408C38.5075 51.408 38.8809 51.536 39.1689 51.792C39.4569 52.0373 39.6009 52.3573 39.6009 52.752C39.6009 53.168 39.4569 53.5147 39.1689 53.792C38.8915 54.0587 38.5182 54.192 38.0489 54.192ZM41.6051 64V52.128H44.1011V64H41.6051ZM50.6896 64.128C49.7083 64.128 48.8443 63.936 48.0976 63.552C47.3616 63.168 46.791 62.6453 46.3856 61.984C45.9803 61.312 45.7776 60.5493 45.7776 59.696C45.7776 58.832 45.975 58.0693 46.3696 57.408C46.775 56.736 47.3243 56.2133 48.0176 55.84C48.711 55.456 49.495 55.264 50.3696 55.264C51.2123 55.264 51.9696 55.4453 52.6416 55.808C53.3243 56.16 53.863 56.672 54.2576 57.344C54.6523 58.0053 54.8496 58.8 54.8496 59.728C54.8496 59.824 54.8443 59.936 54.8336 60.064C54.823 60.1813 54.8123 60.2933 54.8016 60.4H47.8096V58.944H53.4896L52.5296 59.376C52.5296 58.928 52.439 58.5387 52.2576 58.208C52.0763 57.8773 51.8256 57.6213 51.5056 57.44C51.1856 57.248 50.8123 57.152 50.3856 57.152C49.959 57.152 49.5803 57.248 49.2496 57.44C48.9296 57.6213 48.679 57.8827 48.4976 58.224C48.3163 58.5547 48.2256 58.9493 48.2256 59.408V59.792C48.2256 60.2613 48.327 60.6773 48.5296 61.04C48.743 61.392 49.0363 61.664 49.4096 61.856C49.7936 62.0373 50.2416 62.128 50.7536 62.128C51.2123 62.128 51.6123 62.0587 51.9536 61.92C52.3056 61.7813 52.6256 61.5733 52.9136 61.296L54.2416 62.736C53.847 63.184 53.351 63.5307 52.7536 63.776C52.1563 64.0107 51.4683 64.128 50.6896 64.128Z" fill="#002235"/>
</svg>
